G04 #@! TF.GenerationSoftware,KiCad,Pcbnew,5.0.2-bee76a0~70~ubuntu18.04.1*
G04 #@! TF.CreationDate,2019-12-18T01:53:03+09:00*
G04 #@! TF.ProjectId,ts9,7473392e-6b69-4636-9164-5f7063625858,rev?*
G04 #@! TF.SameCoordinates,Original*
G04 #@! TF.FileFunction,Soldermask,Top*
G04 #@! TF.FilePolarity,Negative*
%FSLAX46Y46*%
G04 Gerber Fmt 4.6, Leading zero omitted, Abs format (unit mm)*
G04 Created by KiCad (PCBNEW 5.0.2-bee76a0~70~ubuntu18.04.1) date 2019年12月18日 01時53分03秒*
%MOMM*%
%LPD*%
G01*
G04 APERTURE LIST*
%ADD10C,0.100000*%
G04 APERTURE END LIST*
D10*
G36*
X37429692Y-142155729D02*
X37650993Y-142247395D01*
X37850158Y-142380473D01*
X38019527Y-142549842D01*
X38152605Y-142749007D01*
X38244271Y-142970308D01*
X38291000Y-143205233D01*
X38291000Y-143444767D01*
X38244271Y-143679692D01*
X38152605Y-143900993D01*
X38019527Y-144100158D01*
X37850158Y-144269527D01*
X37650993Y-144402605D01*
X37429692Y-144494271D01*
X37194767Y-144541000D01*
X36955233Y-144541000D01*
X36720308Y-144494271D01*
X36499007Y-144402605D01*
X36299842Y-144269527D01*
X36130473Y-144100158D01*
X35997395Y-143900993D01*
X35905729Y-143679692D01*
X35859000Y-143444767D01*
X35859000Y-143205233D01*
X35905729Y-142970308D01*
X35997395Y-142749007D01*
X36130473Y-142549842D01*
X36299842Y-142380473D01*
X36499007Y-142247395D01*
X36720308Y-142155729D01*
X36955233Y-142109000D01*
X37194767Y-142109000D01*
X37429692Y-142155729D01*
X37429692Y-142155729D01*
G37*
G36*
X73429692Y-142155729D02*
X73650993Y-142247395D01*
X73850158Y-142380473D01*
X74019527Y-142549842D01*
X74152605Y-142749007D01*
X74244271Y-142970308D01*
X74291000Y-143205233D01*
X74291000Y-143444767D01*
X74244271Y-143679692D01*
X74152605Y-143900993D01*
X74019527Y-144100158D01*
X73850158Y-144269527D01*
X73650993Y-144402605D01*
X73429692Y-144494271D01*
X73194767Y-144541000D01*
X72955233Y-144541000D01*
X72720308Y-144494271D01*
X72499007Y-144402605D01*
X72299842Y-144269527D01*
X72130473Y-144100158D01*
X71997395Y-143900993D01*
X71905729Y-143679692D01*
X71859000Y-143444767D01*
X71859000Y-143205233D01*
X71905729Y-142970308D01*
X71997395Y-142749007D01*
X72130473Y-142549842D01*
X72299842Y-142380473D01*
X72499007Y-142247395D01*
X72720308Y-142155729D01*
X72955233Y-142109000D01*
X73194767Y-142109000D01*
X73429692Y-142155729D01*
X73429692Y-142155729D01*
G37*
G36*
X55429692Y-142155729D02*
X55650993Y-142247395D01*
X55850158Y-142380473D01*
X56019527Y-142549842D01*
X56152605Y-142749007D01*
X56244271Y-142970308D01*
X56291000Y-143205233D01*
X56291000Y-143444767D01*
X56244271Y-143679692D01*
X56152605Y-143900993D01*
X56019527Y-144100158D01*
X55850158Y-144269527D01*
X55650993Y-144402605D01*
X55429692Y-144494271D01*
X55194767Y-144541000D01*
X54955233Y-144541000D01*
X54720308Y-144494271D01*
X54499007Y-144402605D01*
X54299842Y-144269527D01*
X54130473Y-144100158D01*
X53997395Y-143900993D01*
X53905729Y-143679692D01*
X53859000Y-143444767D01*
X53859000Y-143205233D01*
X53905729Y-142970308D01*
X53997395Y-142749007D01*
X54130473Y-142549842D01*
X54299842Y-142380473D01*
X54499007Y-142247395D01*
X54720308Y-142155729D01*
X54955233Y-142109000D01*
X55194767Y-142109000D01*
X55429692Y-142155729D01*
X55429692Y-142155729D01*
G37*
G36*
X50429692Y-140055729D02*
X50650993Y-140147395D01*
X50850158Y-140280473D01*
X51019527Y-140449842D01*
X51152605Y-140649007D01*
X51244271Y-140870308D01*
X51291000Y-141105233D01*
X51291000Y-141344767D01*
X51244271Y-141579692D01*
X51152605Y-141800993D01*
X51019527Y-142000158D01*
X50850158Y-142169527D01*
X50650993Y-142302605D01*
X50429692Y-142394271D01*
X50194767Y-142441000D01*
X49955233Y-142441000D01*
X49720308Y-142394271D01*
X49499007Y-142302605D01*
X49299842Y-142169527D01*
X49130473Y-142000158D01*
X48997395Y-141800993D01*
X48905729Y-141579692D01*
X48859000Y-141344767D01*
X48859000Y-141105233D01*
X48905729Y-140870308D01*
X48997395Y-140649007D01*
X49130473Y-140449842D01*
X49299842Y-140280473D01*
X49499007Y-140147395D01*
X49720308Y-140055729D01*
X49955233Y-140009000D01*
X50194767Y-140009000D01*
X50429692Y-140055729D01*
X50429692Y-140055729D01*
G37*
G36*
X68429692Y-140055729D02*
X68650993Y-140147395D01*
X68850158Y-140280473D01*
X69019527Y-140449842D01*
X69152605Y-140649007D01*
X69244271Y-140870308D01*
X69291000Y-141105233D01*
X69291000Y-141344767D01*
X69244271Y-141579692D01*
X69152605Y-141800993D01*
X69019527Y-142000158D01*
X68850158Y-142169527D01*
X68650993Y-142302605D01*
X68429692Y-142394271D01*
X68194767Y-142441000D01*
X67955233Y-142441000D01*
X67720308Y-142394271D01*
X67499007Y-142302605D01*
X67299842Y-142169527D01*
X67130473Y-142000158D01*
X66997395Y-141800993D01*
X66905729Y-141579692D01*
X66859000Y-141344767D01*
X66859000Y-141105233D01*
X66905729Y-140870308D01*
X66997395Y-140649007D01*
X67130473Y-140449842D01*
X67299842Y-140280473D01*
X67499007Y-140147395D01*
X67720308Y-140055729D01*
X67955233Y-140009000D01*
X68194767Y-140009000D01*
X68429692Y-140055729D01*
X68429692Y-140055729D01*
G37*
G36*
X32429692Y-140055729D02*
X32650993Y-140147395D01*
X32850158Y-140280473D01*
X33019527Y-140449842D01*
X33152605Y-140649007D01*
X33244271Y-140870308D01*
X33291000Y-141105233D01*
X33291000Y-141344767D01*
X33244271Y-141579692D01*
X33152605Y-141800993D01*
X33019527Y-142000158D01*
X32850158Y-142169527D01*
X32650993Y-142302605D01*
X32429692Y-142394271D01*
X32194767Y-142441000D01*
X31955233Y-142441000D01*
X31720308Y-142394271D01*
X31499007Y-142302605D01*
X31299842Y-142169527D01*
X31130473Y-142000158D01*
X30997395Y-141800993D01*
X30905729Y-141579692D01*
X30859000Y-141344767D01*
X30859000Y-141105233D01*
X30905729Y-140870308D01*
X30997395Y-140649007D01*
X31130473Y-140449842D01*
X31299842Y-140280473D01*
X31499007Y-140147395D01*
X31720308Y-140055729D01*
X31955233Y-140009000D01*
X32194767Y-140009000D01*
X32429692Y-140055729D01*
X32429692Y-140055729D01*
G37*
G36*
X73633436Y-135584073D02*
X73633438Y-135584074D01*
X73633439Y-135584074D01*
X73981856Y-135728393D01*
X74295425Y-135937913D01*
X74562087Y-136204575D01*
X74771607Y-136518144D01*
X74915927Y-136866564D01*
X74989500Y-137236437D01*
X74989500Y-137613563D01*
X74915927Y-137983436D01*
X74771607Y-138331856D01*
X74562087Y-138645425D01*
X74295425Y-138912087D01*
X74295422Y-138912089D01*
X73981856Y-139121607D01*
X73633439Y-139265926D01*
X73633438Y-139265926D01*
X73633436Y-139265927D01*
X73263563Y-139339500D01*
X72886437Y-139339500D01*
X72516564Y-139265927D01*
X72516562Y-139265926D01*
X72516561Y-139265926D01*
X72168144Y-139121607D01*
X71854578Y-138912089D01*
X71854575Y-138912087D01*
X71587913Y-138645425D01*
X71378393Y-138331856D01*
X71234073Y-137983436D01*
X71160500Y-137613563D01*
X71160500Y-137236437D01*
X71234073Y-136866564D01*
X71378393Y-136518144D01*
X71587913Y-136204575D01*
X71854575Y-135937913D01*
X72168144Y-135728393D01*
X72516561Y-135584074D01*
X72516562Y-135584074D01*
X72516564Y-135584073D01*
X72886437Y-135510500D01*
X73263563Y-135510500D01*
X73633436Y-135584073D01*
X73633436Y-135584073D01*
G37*
G36*
X55633436Y-135584073D02*
X55633438Y-135584074D01*
X55633439Y-135584074D01*
X55981856Y-135728393D01*
X56295425Y-135937913D01*
X56562087Y-136204575D01*
X56771607Y-136518144D01*
X56915927Y-136866564D01*
X56989500Y-137236437D01*
X56989500Y-137613563D01*
X56915927Y-137983436D01*
X56771607Y-138331856D01*
X56562087Y-138645425D01*
X56295425Y-138912087D01*
X56295422Y-138912089D01*
X55981856Y-139121607D01*
X55633439Y-139265926D01*
X55633438Y-139265926D01*
X55633436Y-139265927D01*
X55263563Y-139339500D01*
X54886437Y-139339500D01*
X54516564Y-139265927D01*
X54516562Y-139265926D01*
X54516561Y-139265926D01*
X54168144Y-139121607D01*
X53854578Y-138912089D01*
X53854575Y-138912087D01*
X53587913Y-138645425D01*
X53378393Y-138331856D01*
X53234073Y-137983436D01*
X53160500Y-137613563D01*
X53160500Y-137236437D01*
X53234073Y-136866564D01*
X53378393Y-136518144D01*
X53587913Y-136204575D01*
X53854575Y-135937913D01*
X54168144Y-135728393D01*
X54516561Y-135584074D01*
X54516562Y-135584074D01*
X54516564Y-135584073D01*
X54886437Y-135510500D01*
X55263563Y-135510500D01*
X55633436Y-135584073D01*
X55633436Y-135584073D01*
G37*
G36*
X37633436Y-135584073D02*
X37633438Y-135584074D01*
X37633439Y-135584074D01*
X37981856Y-135728393D01*
X38295425Y-135937913D01*
X38562087Y-136204575D01*
X38771607Y-136518144D01*
X38915927Y-136866564D01*
X38989500Y-137236437D01*
X38989500Y-137613563D01*
X38915927Y-137983436D01*
X38771607Y-138331856D01*
X38562087Y-138645425D01*
X38295425Y-138912087D01*
X38295422Y-138912089D01*
X37981856Y-139121607D01*
X37633439Y-139265926D01*
X37633438Y-139265926D01*
X37633436Y-139265927D01*
X37263563Y-139339500D01*
X36886437Y-139339500D01*
X36516564Y-139265927D01*
X36516562Y-139265926D01*
X36516561Y-139265926D01*
X36168144Y-139121607D01*
X35854578Y-138912089D01*
X35854575Y-138912087D01*
X35587913Y-138645425D01*
X35378393Y-138331856D01*
X35234073Y-137983436D01*
X35160500Y-137613563D01*
X35160500Y-137236437D01*
X35234073Y-136866564D01*
X35378393Y-136518144D01*
X35587913Y-136204575D01*
X35854575Y-135937913D01*
X36168144Y-135728393D01*
X36516561Y-135584074D01*
X36516562Y-135584074D01*
X36516564Y-135584073D01*
X36886437Y-135510500D01*
X37263563Y-135510500D01*
X37633436Y-135584073D01*
X37633436Y-135584073D01*
G37*
G36*
X78780020Y-136394292D02*
X78881536Y-136414485D01*
X79072788Y-136493704D01*
X79243749Y-136607937D01*
X79244913Y-136608715D01*
X79391285Y-136755087D01*
X79391287Y-136755090D01*
X79506296Y-136927212D01*
X79585515Y-137118464D01*
X79625900Y-137321495D01*
X79625900Y-137528505D01*
X79585515Y-137731536D01*
X79506296Y-137922788D01*
X79465772Y-137983436D01*
X79391285Y-138094913D01*
X79244913Y-138241285D01*
X79244910Y-138241287D01*
X79072788Y-138356296D01*
X78881536Y-138435515D01*
X78780021Y-138455707D01*
X78678506Y-138475900D01*
X78471494Y-138475900D01*
X78369979Y-138455707D01*
X78268464Y-138435515D01*
X78077212Y-138356296D01*
X77905090Y-138241287D01*
X77905087Y-138241285D01*
X77758715Y-138094913D01*
X77684228Y-137983436D01*
X77643704Y-137922788D01*
X77564485Y-137731536D01*
X77524100Y-137528505D01*
X77524100Y-137321495D01*
X77564485Y-137118464D01*
X77643704Y-136927212D01*
X77758713Y-136755090D01*
X77758715Y-136755087D01*
X77905087Y-136608715D01*
X77906251Y-136607937D01*
X78077212Y-136493704D01*
X78268464Y-136414485D01*
X78369980Y-136394292D01*
X78471494Y-136374100D01*
X78678506Y-136374100D01*
X78780020Y-136394292D01*
X78780020Y-136394292D01*
G37*
G36*
X42780020Y-136394292D02*
X42881536Y-136414485D01*
X43072788Y-136493704D01*
X43243749Y-136607937D01*
X43244913Y-136608715D01*
X43391285Y-136755087D01*
X43391287Y-136755090D01*
X43506296Y-136927212D01*
X43585515Y-137118464D01*
X43625900Y-137321495D01*
X43625900Y-137528505D01*
X43585515Y-137731536D01*
X43506296Y-137922788D01*
X43465772Y-137983436D01*
X43391285Y-138094913D01*
X43244913Y-138241285D01*
X43244910Y-138241287D01*
X43072788Y-138356296D01*
X42881536Y-138435515D01*
X42780021Y-138455707D01*
X42678506Y-138475900D01*
X42471494Y-138475900D01*
X42369979Y-138455707D01*
X42268464Y-138435515D01*
X42077212Y-138356296D01*
X41905090Y-138241287D01*
X41905087Y-138241285D01*
X41758715Y-138094913D01*
X41684228Y-137983436D01*
X41643704Y-137922788D01*
X41564485Y-137731536D01*
X41524100Y-137528505D01*
X41524100Y-137321495D01*
X41564485Y-137118464D01*
X41643704Y-136927212D01*
X41758713Y-136755090D01*
X41758715Y-136755087D01*
X41905087Y-136608715D01*
X41906251Y-136607937D01*
X42077212Y-136493704D01*
X42268464Y-136414485D01*
X42369980Y-136394292D01*
X42471494Y-136374100D01*
X42678506Y-136374100D01*
X42780020Y-136394292D01*
X42780020Y-136394292D01*
G37*
G36*
X31780020Y-136394292D02*
X31881536Y-136414485D01*
X32072788Y-136493704D01*
X32243749Y-136607937D01*
X32244913Y-136608715D01*
X32391285Y-136755087D01*
X32391287Y-136755090D01*
X32506296Y-136927212D01*
X32585515Y-137118464D01*
X32625900Y-137321495D01*
X32625900Y-137528505D01*
X32585515Y-137731536D01*
X32506296Y-137922788D01*
X32465772Y-137983436D01*
X32391285Y-138094913D01*
X32244913Y-138241285D01*
X32244910Y-138241287D01*
X32072788Y-138356296D01*
X31881536Y-138435515D01*
X31780021Y-138455707D01*
X31678506Y-138475900D01*
X31471494Y-138475900D01*
X31369979Y-138455707D01*
X31268464Y-138435515D01*
X31077212Y-138356296D01*
X30905090Y-138241287D01*
X30905087Y-138241285D01*
X30758715Y-138094913D01*
X30684228Y-137983436D01*
X30643704Y-137922788D01*
X30564485Y-137731536D01*
X30524100Y-137528505D01*
X30524100Y-137321495D01*
X30564485Y-137118464D01*
X30643704Y-136927212D01*
X30758713Y-136755090D01*
X30758715Y-136755087D01*
X30905087Y-136608715D01*
X30906251Y-136607937D01*
X31077212Y-136493704D01*
X31268464Y-136414485D01*
X31369980Y-136394292D01*
X31471494Y-136374100D01*
X31678506Y-136374100D01*
X31780020Y-136394292D01*
X31780020Y-136394292D01*
G37*
G36*
X49780020Y-136394292D02*
X49881536Y-136414485D01*
X50072788Y-136493704D01*
X50243749Y-136607937D01*
X50244913Y-136608715D01*
X50391285Y-136755087D01*
X50391287Y-136755090D01*
X50506296Y-136927212D01*
X50585515Y-137118464D01*
X50625900Y-137321495D01*
X50625900Y-137528505D01*
X50585515Y-137731536D01*
X50506296Y-137922788D01*
X50465772Y-137983436D01*
X50391285Y-138094913D01*
X50244913Y-138241285D01*
X50244910Y-138241287D01*
X50072788Y-138356296D01*
X49881536Y-138435515D01*
X49780021Y-138455707D01*
X49678506Y-138475900D01*
X49471494Y-138475900D01*
X49369979Y-138455707D01*
X49268464Y-138435515D01*
X49077212Y-138356296D01*
X48905090Y-138241287D01*
X48905087Y-138241285D01*
X48758715Y-138094913D01*
X48684228Y-137983436D01*
X48643704Y-137922788D01*
X48564485Y-137731536D01*
X48524100Y-137528505D01*
X48524100Y-137321495D01*
X48564485Y-137118464D01*
X48643704Y-136927212D01*
X48758713Y-136755090D01*
X48758715Y-136755087D01*
X48905087Y-136608715D01*
X48906251Y-136607937D01*
X49077212Y-136493704D01*
X49268464Y-136414485D01*
X49369980Y-136394292D01*
X49471494Y-136374100D01*
X49678506Y-136374100D01*
X49780020Y-136394292D01*
X49780020Y-136394292D01*
G37*
G36*
X60780020Y-136394292D02*
X60881536Y-136414485D01*
X61072788Y-136493704D01*
X61243749Y-136607937D01*
X61244913Y-136608715D01*
X61391285Y-136755087D01*
X61391287Y-136755090D01*
X61506296Y-136927212D01*
X61585515Y-137118464D01*
X61625900Y-137321495D01*
X61625900Y-137528505D01*
X61585515Y-137731536D01*
X61506296Y-137922788D01*
X61465772Y-137983436D01*
X61391285Y-138094913D01*
X61244913Y-138241285D01*
X61244910Y-138241287D01*
X61072788Y-138356296D01*
X60881536Y-138435515D01*
X60780021Y-138455707D01*
X60678506Y-138475900D01*
X60471494Y-138475900D01*
X60369979Y-138455707D01*
X60268464Y-138435515D01*
X60077212Y-138356296D01*
X59905090Y-138241287D01*
X59905087Y-138241285D01*
X59758715Y-138094913D01*
X59684228Y-137983436D01*
X59643704Y-137922788D01*
X59564485Y-137731536D01*
X59524100Y-137528505D01*
X59524100Y-137321495D01*
X59564485Y-137118464D01*
X59643704Y-136927212D01*
X59758713Y-136755090D01*
X59758715Y-136755087D01*
X59905087Y-136608715D01*
X59906251Y-136607937D01*
X60077212Y-136493704D01*
X60268464Y-136414485D01*
X60369980Y-136394292D01*
X60471494Y-136374100D01*
X60678506Y-136374100D01*
X60780020Y-136394292D01*
X60780020Y-136394292D01*
G37*
G36*
X67780020Y-136394292D02*
X67881536Y-136414485D01*
X68072788Y-136493704D01*
X68243749Y-136607937D01*
X68244913Y-136608715D01*
X68391285Y-136755087D01*
X68391287Y-136755090D01*
X68506296Y-136927212D01*
X68585515Y-137118464D01*
X68625900Y-137321495D01*
X68625900Y-137528505D01*
X68585515Y-137731536D01*
X68506296Y-137922788D01*
X68465772Y-137983436D01*
X68391285Y-138094913D01*
X68244913Y-138241285D01*
X68244910Y-138241287D01*
X68072788Y-138356296D01*
X67881536Y-138435515D01*
X67780021Y-138455707D01*
X67678506Y-138475900D01*
X67471494Y-138475900D01*
X67369979Y-138455707D01*
X67268464Y-138435515D01*
X67077212Y-138356296D01*
X66905090Y-138241287D01*
X66905087Y-138241285D01*
X66758715Y-138094913D01*
X66684228Y-137983436D01*
X66643704Y-137922788D01*
X66564485Y-137731536D01*
X66524100Y-137528505D01*
X66524100Y-137321495D01*
X66564485Y-137118464D01*
X66643704Y-136927212D01*
X66758713Y-136755090D01*
X66758715Y-136755087D01*
X66905087Y-136608715D01*
X66906251Y-136607937D01*
X67077212Y-136493704D01*
X67268464Y-136414485D01*
X67369980Y-136394292D01*
X67471494Y-136374100D01*
X67678506Y-136374100D01*
X67780020Y-136394292D01*
X67780020Y-136394292D01*
G37*
G36*
X60408258Y-132538607D02*
X60497811Y-132556420D01*
X60624348Y-132608833D01*
X60624349Y-132608834D01*
X60738231Y-132684927D01*
X60835073Y-132781769D01*
X60835075Y-132781772D01*
X60911167Y-132895652D01*
X60963580Y-133022189D01*
X60990300Y-133156519D01*
X60990300Y-133293481D01*
X60963580Y-133427811D01*
X60911167Y-133554348D01*
X60911166Y-133554349D01*
X60835073Y-133668231D01*
X60738231Y-133765073D01*
X60738228Y-133765075D01*
X60624348Y-133841167D01*
X60497811Y-133893580D01*
X60408258Y-133911393D01*
X60363482Y-133920300D01*
X60226518Y-133920300D01*
X60181742Y-133911393D01*
X60092189Y-133893580D01*
X59965652Y-133841167D01*
X59851772Y-133765075D01*
X59851769Y-133765073D01*
X59754927Y-133668231D01*
X59678834Y-133554349D01*
X59678833Y-133554348D01*
X59626420Y-133427811D01*
X59599700Y-133293481D01*
X59599700Y-133156519D01*
X59626420Y-133022189D01*
X59678833Y-132895652D01*
X59754925Y-132781772D01*
X59754927Y-132781769D01*
X59851769Y-132684927D01*
X59965651Y-132608834D01*
X59965652Y-132608833D01*
X60092189Y-132556420D01*
X60181742Y-132538607D01*
X60226518Y-132529700D01*
X60363482Y-132529700D01*
X60408258Y-132538607D01*
X60408258Y-132538607D01*
G37*
G36*
X42408258Y-132538607D02*
X42497811Y-132556420D01*
X42624348Y-132608833D01*
X42624349Y-132608834D01*
X42738231Y-132684927D01*
X42835073Y-132781769D01*
X42835075Y-132781772D01*
X42911167Y-132895652D01*
X42963580Y-133022189D01*
X42990300Y-133156519D01*
X42990300Y-133293481D01*
X42963580Y-133427811D01*
X42911167Y-133554348D01*
X42911166Y-133554349D01*
X42835073Y-133668231D01*
X42738231Y-133765073D01*
X42738228Y-133765075D01*
X42624348Y-133841167D01*
X42497811Y-133893580D01*
X42408258Y-133911393D01*
X42363482Y-133920300D01*
X42226518Y-133920300D01*
X42181742Y-133911393D01*
X42092189Y-133893580D01*
X41965652Y-133841167D01*
X41851772Y-133765075D01*
X41851769Y-133765073D01*
X41754927Y-133668231D01*
X41678834Y-133554349D01*
X41678833Y-133554348D01*
X41626420Y-133427811D01*
X41599700Y-133293481D01*
X41599700Y-133156519D01*
X41626420Y-133022189D01*
X41678833Y-132895652D01*
X41754925Y-132781772D01*
X41754927Y-132781769D01*
X41851769Y-132684927D01*
X41965651Y-132608834D01*
X41965652Y-132608833D01*
X42092189Y-132556420D01*
X42181742Y-132538607D01*
X42226518Y-132529700D01*
X42363482Y-132529700D01*
X42408258Y-132538607D01*
X42408258Y-132538607D01*
G37*
G36*
X78408258Y-132538607D02*
X78497811Y-132556420D01*
X78624348Y-132608833D01*
X78624349Y-132608834D01*
X78738231Y-132684927D01*
X78835073Y-132781769D01*
X78835075Y-132781772D01*
X78911167Y-132895652D01*
X78963580Y-133022189D01*
X78990300Y-133156519D01*
X78990300Y-133293481D01*
X78963580Y-133427811D01*
X78911167Y-133554348D01*
X78911166Y-133554349D01*
X78835073Y-133668231D01*
X78738231Y-133765073D01*
X78738228Y-133765075D01*
X78624348Y-133841167D01*
X78497811Y-133893580D01*
X78408258Y-133911393D01*
X78363482Y-133920300D01*
X78226518Y-133920300D01*
X78181742Y-133911393D01*
X78092189Y-133893580D01*
X77965652Y-133841167D01*
X77851772Y-133765075D01*
X77851769Y-133765073D01*
X77754927Y-133668231D01*
X77678834Y-133554349D01*
X77678833Y-133554348D01*
X77626420Y-133427811D01*
X77599700Y-133293481D01*
X77599700Y-133156519D01*
X77626420Y-133022189D01*
X77678833Y-132895652D01*
X77754925Y-132781772D01*
X77754927Y-132781769D01*
X77851769Y-132684927D01*
X77965651Y-132608834D01*
X77965652Y-132608833D01*
X78092189Y-132556420D01*
X78181742Y-132538607D01*
X78226518Y-132529700D01*
X78363482Y-132529700D01*
X78408258Y-132538607D01*
X78408258Y-132538607D01*
G37*
G36*
X55429692Y-125155729D02*
X55650993Y-125247395D01*
X55850158Y-125380473D01*
X56019527Y-125549842D01*
X56152605Y-125749007D01*
X56244271Y-125970308D01*
X56291000Y-126205233D01*
X56291000Y-126444767D01*
X56244271Y-126679692D01*
X56152605Y-126900993D01*
X56019527Y-127100158D01*
X55850158Y-127269527D01*
X55650993Y-127402605D01*
X55429692Y-127494271D01*
X55194767Y-127541000D01*
X54955233Y-127541000D01*
X54720308Y-127494271D01*
X54499007Y-127402605D01*
X54299842Y-127269527D01*
X54130473Y-127100158D01*
X53997395Y-126900993D01*
X53905729Y-126679692D01*
X53859000Y-126444767D01*
X53859000Y-126205233D01*
X53905729Y-125970308D01*
X53997395Y-125749007D01*
X54130473Y-125549842D01*
X54299842Y-125380473D01*
X54499007Y-125247395D01*
X54720308Y-125155729D01*
X54955233Y-125109000D01*
X55194767Y-125109000D01*
X55429692Y-125155729D01*
X55429692Y-125155729D01*
G37*
G36*
X37429692Y-125155729D02*
X37650993Y-125247395D01*
X37850158Y-125380473D01*
X38019527Y-125549842D01*
X38152605Y-125749007D01*
X38244271Y-125970308D01*
X38291000Y-126205233D01*
X38291000Y-126444767D01*
X38244271Y-126679692D01*
X38152605Y-126900993D01*
X38019527Y-127100158D01*
X37850158Y-127269527D01*
X37650993Y-127402605D01*
X37429692Y-127494271D01*
X37194767Y-127541000D01*
X36955233Y-127541000D01*
X36720308Y-127494271D01*
X36499007Y-127402605D01*
X36299842Y-127269527D01*
X36130473Y-127100158D01*
X35997395Y-126900993D01*
X35905729Y-126679692D01*
X35859000Y-126444767D01*
X35859000Y-126205233D01*
X35905729Y-125970308D01*
X35997395Y-125749007D01*
X36130473Y-125549842D01*
X36299842Y-125380473D01*
X36499007Y-125247395D01*
X36720308Y-125155729D01*
X36955233Y-125109000D01*
X37194767Y-125109000D01*
X37429692Y-125155729D01*
X37429692Y-125155729D01*
G37*
G36*
X73429692Y-125155729D02*
X73650993Y-125247395D01*
X73850158Y-125380473D01*
X74019527Y-125549842D01*
X74152605Y-125749007D01*
X74244271Y-125970308D01*
X74291000Y-126205233D01*
X74291000Y-126444767D01*
X74244271Y-126679692D01*
X74152605Y-126900993D01*
X74019527Y-127100158D01*
X73850158Y-127269527D01*
X73650993Y-127402605D01*
X73429692Y-127494271D01*
X73194767Y-127541000D01*
X72955233Y-127541000D01*
X72720308Y-127494271D01*
X72499007Y-127402605D01*
X72299842Y-127269527D01*
X72130473Y-127100158D01*
X71997395Y-126900993D01*
X71905729Y-126679692D01*
X71859000Y-126444767D01*
X71859000Y-126205233D01*
X71905729Y-125970308D01*
X71997395Y-125749007D01*
X72130473Y-125549842D01*
X72299842Y-125380473D01*
X72499007Y-125247395D01*
X72720308Y-125155729D01*
X72955233Y-125109000D01*
X73194767Y-125109000D01*
X73429692Y-125155729D01*
X73429692Y-125155729D01*
G37*
G36*
X68429692Y-123055729D02*
X68650993Y-123147395D01*
X68850158Y-123280473D01*
X69019527Y-123449842D01*
X69152605Y-123649007D01*
X69244271Y-123870308D01*
X69291000Y-124105233D01*
X69291000Y-124344767D01*
X69244271Y-124579692D01*
X69152605Y-124800993D01*
X69019527Y-125000158D01*
X68850158Y-125169527D01*
X68650993Y-125302605D01*
X68429692Y-125394271D01*
X68194767Y-125441000D01*
X67955233Y-125441000D01*
X67720308Y-125394271D01*
X67499007Y-125302605D01*
X67299842Y-125169527D01*
X67130473Y-125000158D01*
X66997395Y-124800993D01*
X66905729Y-124579692D01*
X66859000Y-124344767D01*
X66859000Y-124105233D01*
X66905729Y-123870308D01*
X66997395Y-123649007D01*
X67130473Y-123449842D01*
X67299842Y-123280473D01*
X67499007Y-123147395D01*
X67720308Y-123055729D01*
X67955233Y-123009000D01*
X68194767Y-123009000D01*
X68429692Y-123055729D01*
X68429692Y-123055729D01*
G37*
G36*
X50429692Y-123055729D02*
X50650993Y-123147395D01*
X50850158Y-123280473D01*
X51019527Y-123449842D01*
X51152605Y-123649007D01*
X51244271Y-123870308D01*
X51291000Y-124105233D01*
X51291000Y-124344767D01*
X51244271Y-124579692D01*
X51152605Y-124800993D01*
X51019527Y-125000158D01*
X50850158Y-125169527D01*
X50650993Y-125302605D01*
X50429692Y-125394271D01*
X50194767Y-125441000D01*
X49955233Y-125441000D01*
X49720308Y-125394271D01*
X49499007Y-125302605D01*
X49299842Y-125169527D01*
X49130473Y-125000158D01*
X48997395Y-124800993D01*
X48905729Y-124579692D01*
X48859000Y-124344767D01*
X48859000Y-124105233D01*
X48905729Y-123870308D01*
X48997395Y-123649007D01*
X49130473Y-123449842D01*
X49299842Y-123280473D01*
X49499007Y-123147395D01*
X49720308Y-123055729D01*
X49955233Y-123009000D01*
X50194767Y-123009000D01*
X50429692Y-123055729D01*
X50429692Y-123055729D01*
G37*
G36*
X32429692Y-123055729D02*
X32650993Y-123147395D01*
X32850158Y-123280473D01*
X33019527Y-123449842D01*
X33152605Y-123649007D01*
X33244271Y-123870308D01*
X33291000Y-124105233D01*
X33291000Y-124344767D01*
X33244271Y-124579692D01*
X33152605Y-124800993D01*
X33019527Y-125000158D01*
X32850158Y-125169527D01*
X32650993Y-125302605D01*
X32429692Y-125394271D01*
X32194767Y-125441000D01*
X31955233Y-125441000D01*
X31720308Y-125394271D01*
X31499007Y-125302605D01*
X31299842Y-125169527D01*
X31130473Y-125000158D01*
X30997395Y-124800993D01*
X30905729Y-124579692D01*
X30859000Y-124344767D01*
X30859000Y-124105233D01*
X30905729Y-123870308D01*
X30997395Y-123649007D01*
X31130473Y-123449842D01*
X31299842Y-123280473D01*
X31499007Y-123147395D01*
X31720308Y-123055729D01*
X31955233Y-123009000D01*
X32194767Y-123009000D01*
X32429692Y-123055729D01*
X32429692Y-123055729D01*
G37*
G36*
X73633436Y-118584073D02*
X73633438Y-118584074D01*
X73633439Y-118584074D01*
X73981856Y-118728393D01*
X74295425Y-118937913D01*
X74562087Y-119204575D01*
X74771607Y-119518144D01*
X74915927Y-119866564D01*
X74989500Y-120236437D01*
X74989500Y-120613563D01*
X74915927Y-120983436D01*
X74771607Y-121331856D01*
X74562087Y-121645425D01*
X74295425Y-121912087D01*
X74295422Y-121912089D01*
X73981856Y-122121607D01*
X73633439Y-122265926D01*
X73633438Y-122265926D01*
X73633436Y-122265927D01*
X73263563Y-122339500D01*
X72886437Y-122339500D01*
X72516564Y-122265927D01*
X72516562Y-122265926D01*
X72516561Y-122265926D01*
X72168144Y-122121607D01*
X71854578Y-121912089D01*
X71854575Y-121912087D01*
X71587913Y-121645425D01*
X71378393Y-121331856D01*
X71234073Y-120983436D01*
X71160500Y-120613563D01*
X71160500Y-120236437D01*
X71234073Y-119866564D01*
X71378393Y-119518144D01*
X71587913Y-119204575D01*
X71854575Y-118937913D01*
X72168144Y-118728393D01*
X72516561Y-118584074D01*
X72516562Y-118584074D01*
X72516564Y-118584073D01*
X72886437Y-118510500D01*
X73263563Y-118510500D01*
X73633436Y-118584073D01*
X73633436Y-118584073D01*
G37*
G36*
X37633436Y-118584073D02*
X37633438Y-118584074D01*
X37633439Y-118584074D01*
X37981856Y-118728393D01*
X38295425Y-118937913D01*
X38562087Y-119204575D01*
X38771607Y-119518144D01*
X38915927Y-119866564D01*
X38989500Y-120236437D01*
X38989500Y-120613563D01*
X38915927Y-120983436D01*
X38771607Y-121331856D01*
X38562087Y-121645425D01*
X38295425Y-121912087D01*
X38295422Y-121912089D01*
X37981856Y-122121607D01*
X37633439Y-122265926D01*
X37633438Y-122265926D01*
X37633436Y-122265927D01*
X37263563Y-122339500D01*
X36886437Y-122339500D01*
X36516564Y-122265927D01*
X36516562Y-122265926D01*
X36516561Y-122265926D01*
X36168144Y-122121607D01*
X35854578Y-121912089D01*
X35854575Y-121912087D01*
X35587913Y-121645425D01*
X35378393Y-121331856D01*
X35234073Y-120983436D01*
X35160500Y-120613563D01*
X35160500Y-120236437D01*
X35234073Y-119866564D01*
X35378393Y-119518144D01*
X35587913Y-119204575D01*
X35854575Y-118937913D01*
X36168144Y-118728393D01*
X36516561Y-118584074D01*
X36516562Y-118584074D01*
X36516564Y-118584073D01*
X36886437Y-118510500D01*
X37263563Y-118510500D01*
X37633436Y-118584073D01*
X37633436Y-118584073D01*
G37*
G36*
X55633436Y-118584073D02*
X55633438Y-118584074D01*
X55633439Y-118584074D01*
X55981856Y-118728393D01*
X56295425Y-118937913D01*
X56562087Y-119204575D01*
X56771607Y-119518144D01*
X56915927Y-119866564D01*
X56989500Y-120236437D01*
X56989500Y-120613563D01*
X56915927Y-120983436D01*
X56771607Y-121331856D01*
X56562087Y-121645425D01*
X56295425Y-121912087D01*
X56295422Y-121912089D01*
X55981856Y-122121607D01*
X55633439Y-122265926D01*
X55633438Y-122265926D01*
X55633436Y-122265927D01*
X55263563Y-122339500D01*
X54886437Y-122339500D01*
X54516564Y-122265927D01*
X54516562Y-122265926D01*
X54516561Y-122265926D01*
X54168144Y-122121607D01*
X53854578Y-121912089D01*
X53854575Y-121912087D01*
X53587913Y-121645425D01*
X53378393Y-121331856D01*
X53234073Y-120983436D01*
X53160500Y-120613563D01*
X53160500Y-120236437D01*
X53234073Y-119866564D01*
X53378393Y-119518144D01*
X53587913Y-119204575D01*
X53854575Y-118937913D01*
X54168144Y-118728393D01*
X54516561Y-118584074D01*
X54516562Y-118584074D01*
X54516564Y-118584073D01*
X54886437Y-118510500D01*
X55263563Y-118510500D01*
X55633436Y-118584073D01*
X55633436Y-118584073D01*
G37*
G36*
X31780021Y-119394293D02*
X31881536Y-119414485D01*
X32072788Y-119493704D01*
X32243749Y-119607937D01*
X32244913Y-119608715D01*
X32391285Y-119755087D01*
X32391287Y-119755090D01*
X32506296Y-119927212D01*
X32585515Y-120118464D01*
X32625900Y-120321495D01*
X32625900Y-120528505D01*
X32585515Y-120731536D01*
X32506296Y-120922788D01*
X32465772Y-120983436D01*
X32391285Y-121094913D01*
X32244913Y-121241285D01*
X32244910Y-121241287D01*
X32072788Y-121356296D01*
X31881536Y-121435515D01*
X31780020Y-121455708D01*
X31678506Y-121475900D01*
X31471494Y-121475900D01*
X31369980Y-121455708D01*
X31268464Y-121435515D01*
X31077212Y-121356296D01*
X30905090Y-121241287D01*
X30905087Y-121241285D01*
X30758715Y-121094913D01*
X30684228Y-120983436D01*
X30643704Y-120922788D01*
X30564485Y-120731536D01*
X30524100Y-120528505D01*
X30524100Y-120321495D01*
X30564485Y-120118464D01*
X30643704Y-119927212D01*
X30758713Y-119755090D01*
X30758715Y-119755087D01*
X30905087Y-119608715D01*
X30906251Y-119607937D01*
X31077212Y-119493704D01*
X31268464Y-119414485D01*
X31369979Y-119394293D01*
X31471494Y-119374100D01*
X31678506Y-119374100D01*
X31780021Y-119394293D01*
X31780021Y-119394293D01*
G37*
G36*
X67780021Y-119394293D02*
X67881536Y-119414485D01*
X68072788Y-119493704D01*
X68243749Y-119607937D01*
X68244913Y-119608715D01*
X68391285Y-119755087D01*
X68391287Y-119755090D01*
X68506296Y-119927212D01*
X68585515Y-120118464D01*
X68625900Y-120321495D01*
X68625900Y-120528505D01*
X68585515Y-120731536D01*
X68506296Y-120922788D01*
X68465772Y-120983436D01*
X68391285Y-121094913D01*
X68244913Y-121241285D01*
X68244910Y-121241287D01*
X68072788Y-121356296D01*
X67881536Y-121435515D01*
X67780020Y-121455708D01*
X67678506Y-121475900D01*
X67471494Y-121475900D01*
X67369980Y-121455708D01*
X67268464Y-121435515D01*
X67077212Y-121356296D01*
X66905090Y-121241287D01*
X66905087Y-121241285D01*
X66758715Y-121094913D01*
X66684228Y-120983436D01*
X66643704Y-120922788D01*
X66564485Y-120731536D01*
X66524100Y-120528505D01*
X66524100Y-120321495D01*
X66564485Y-120118464D01*
X66643704Y-119927212D01*
X66758713Y-119755090D01*
X66758715Y-119755087D01*
X66905087Y-119608715D01*
X66906251Y-119607937D01*
X67077212Y-119493704D01*
X67268464Y-119414485D01*
X67369979Y-119394293D01*
X67471494Y-119374100D01*
X67678506Y-119374100D01*
X67780021Y-119394293D01*
X67780021Y-119394293D01*
G37*
G36*
X42780021Y-119394293D02*
X42881536Y-119414485D01*
X43072788Y-119493704D01*
X43243749Y-119607937D01*
X43244913Y-119608715D01*
X43391285Y-119755087D01*
X43391287Y-119755090D01*
X43506296Y-119927212D01*
X43585515Y-120118464D01*
X43625900Y-120321495D01*
X43625900Y-120528505D01*
X43585515Y-120731536D01*
X43506296Y-120922788D01*
X43465772Y-120983436D01*
X43391285Y-121094913D01*
X43244913Y-121241285D01*
X43244910Y-121241287D01*
X43072788Y-121356296D01*
X42881536Y-121435515D01*
X42780020Y-121455708D01*
X42678506Y-121475900D01*
X42471494Y-121475900D01*
X42369980Y-121455708D01*
X42268464Y-121435515D01*
X42077212Y-121356296D01*
X41905090Y-121241287D01*
X41905087Y-121241285D01*
X41758715Y-121094913D01*
X41684228Y-120983436D01*
X41643704Y-120922788D01*
X41564485Y-120731536D01*
X41524100Y-120528505D01*
X41524100Y-120321495D01*
X41564485Y-120118464D01*
X41643704Y-119927212D01*
X41758713Y-119755090D01*
X41758715Y-119755087D01*
X41905087Y-119608715D01*
X41906251Y-119607937D01*
X42077212Y-119493704D01*
X42268464Y-119414485D01*
X42369979Y-119394293D01*
X42471494Y-119374100D01*
X42678506Y-119374100D01*
X42780021Y-119394293D01*
X42780021Y-119394293D01*
G37*
G36*
X60780021Y-119394293D02*
X60881536Y-119414485D01*
X61072788Y-119493704D01*
X61243749Y-119607937D01*
X61244913Y-119608715D01*
X61391285Y-119755087D01*
X61391287Y-119755090D01*
X61506296Y-119927212D01*
X61585515Y-120118464D01*
X61625900Y-120321495D01*
X61625900Y-120528505D01*
X61585515Y-120731536D01*
X61506296Y-120922788D01*
X61465772Y-120983436D01*
X61391285Y-121094913D01*
X61244913Y-121241285D01*
X61244910Y-121241287D01*
X61072788Y-121356296D01*
X60881536Y-121435515D01*
X60780020Y-121455708D01*
X60678506Y-121475900D01*
X60471494Y-121475900D01*
X60369980Y-121455708D01*
X60268464Y-121435515D01*
X60077212Y-121356296D01*
X59905090Y-121241287D01*
X59905087Y-121241285D01*
X59758715Y-121094913D01*
X59684228Y-120983436D01*
X59643704Y-120922788D01*
X59564485Y-120731536D01*
X59524100Y-120528505D01*
X59524100Y-120321495D01*
X59564485Y-120118464D01*
X59643704Y-119927212D01*
X59758713Y-119755090D01*
X59758715Y-119755087D01*
X59905087Y-119608715D01*
X59906251Y-119607937D01*
X60077212Y-119493704D01*
X60268464Y-119414485D01*
X60369979Y-119394293D01*
X60471494Y-119374100D01*
X60678506Y-119374100D01*
X60780021Y-119394293D01*
X60780021Y-119394293D01*
G37*
G36*
X49780021Y-119394293D02*
X49881536Y-119414485D01*
X50072788Y-119493704D01*
X50243749Y-119607937D01*
X50244913Y-119608715D01*
X50391285Y-119755087D01*
X50391287Y-119755090D01*
X50506296Y-119927212D01*
X50585515Y-120118464D01*
X50625900Y-120321495D01*
X50625900Y-120528505D01*
X50585515Y-120731536D01*
X50506296Y-120922788D01*
X50465772Y-120983436D01*
X50391285Y-121094913D01*
X50244913Y-121241285D01*
X50244910Y-121241287D01*
X50072788Y-121356296D01*
X49881536Y-121435515D01*
X49780020Y-121455708D01*
X49678506Y-121475900D01*
X49471494Y-121475900D01*
X49369980Y-121455708D01*
X49268464Y-121435515D01*
X49077212Y-121356296D01*
X48905090Y-121241287D01*
X48905087Y-121241285D01*
X48758715Y-121094913D01*
X48684228Y-120983436D01*
X48643704Y-120922788D01*
X48564485Y-120731536D01*
X48524100Y-120528505D01*
X48524100Y-120321495D01*
X48564485Y-120118464D01*
X48643704Y-119927212D01*
X48758713Y-119755090D01*
X48758715Y-119755087D01*
X48905087Y-119608715D01*
X48906251Y-119607937D01*
X49077212Y-119493704D01*
X49268464Y-119414485D01*
X49369979Y-119394293D01*
X49471494Y-119374100D01*
X49678506Y-119374100D01*
X49780021Y-119394293D01*
X49780021Y-119394293D01*
G37*
G36*
X78780021Y-119394293D02*
X78881536Y-119414485D01*
X79072788Y-119493704D01*
X79243749Y-119607937D01*
X79244913Y-119608715D01*
X79391285Y-119755087D01*
X79391287Y-119755090D01*
X79506296Y-119927212D01*
X79585515Y-120118464D01*
X79625900Y-120321495D01*
X79625900Y-120528505D01*
X79585515Y-120731536D01*
X79506296Y-120922788D01*
X79465772Y-120983436D01*
X79391285Y-121094913D01*
X79244913Y-121241285D01*
X79244910Y-121241287D01*
X79072788Y-121356296D01*
X78881536Y-121435515D01*
X78780020Y-121455708D01*
X78678506Y-121475900D01*
X78471494Y-121475900D01*
X78369980Y-121455708D01*
X78268464Y-121435515D01*
X78077212Y-121356296D01*
X77905090Y-121241287D01*
X77905087Y-121241285D01*
X77758715Y-121094913D01*
X77684228Y-120983436D01*
X77643704Y-120922788D01*
X77564485Y-120731536D01*
X77524100Y-120528505D01*
X77524100Y-120321495D01*
X77564485Y-120118464D01*
X77643704Y-119927212D01*
X77758713Y-119755090D01*
X77758715Y-119755087D01*
X77905087Y-119608715D01*
X77906251Y-119607937D01*
X78077212Y-119493704D01*
X78268464Y-119414485D01*
X78369979Y-119394293D01*
X78471494Y-119374100D01*
X78678506Y-119374100D01*
X78780021Y-119394293D01*
X78780021Y-119394293D01*
G37*
G36*
X42408258Y-115538607D02*
X42497811Y-115556420D01*
X42624348Y-115608833D01*
X42624349Y-115608834D01*
X42738231Y-115684927D01*
X42835073Y-115781769D01*
X42835075Y-115781772D01*
X42911167Y-115895652D01*
X42963580Y-116022189D01*
X42990300Y-116156519D01*
X42990300Y-116293481D01*
X42963580Y-116427811D01*
X42911167Y-116554348D01*
X42911166Y-116554349D01*
X42835073Y-116668231D01*
X42738231Y-116765073D01*
X42738228Y-116765075D01*
X42624348Y-116841167D01*
X42497811Y-116893580D01*
X42408258Y-116911393D01*
X42363482Y-116920300D01*
X42226518Y-116920300D01*
X42181742Y-116911393D01*
X42092189Y-116893580D01*
X41965652Y-116841167D01*
X41851772Y-116765075D01*
X41851769Y-116765073D01*
X41754927Y-116668231D01*
X41678834Y-116554349D01*
X41678833Y-116554348D01*
X41626420Y-116427811D01*
X41599700Y-116293481D01*
X41599700Y-116156519D01*
X41626420Y-116022189D01*
X41678833Y-115895652D01*
X41754925Y-115781772D01*
X41754927Y-115781769D01*
X41851769Y-115684927D01*
X41965651Y-115608834D01*
X41965652Y-115608833D01*
X42092189Y-115556420D01*
X42181742Y-115538607D01*
X42226518Y-115529700D01*
X42363482Y-115529700D01*
X42408258Y-115538607D01*
X42408258Y-115538607D01*
G37*
G36*
X60408258Y-115538607D02*
X60497811Y-115556420D01*
X60624348Y-115608833D01*
X60624349Y-115608834D01*
X60738231Y-115684927D01*
X60835073Y-115781769D01*
X60835075Y-115781772D01*
X60911167Y-115895652D01*
X60963580Y-116022189D01*
X60990300Y-116156519D01*
X60990300Y-116293481D01*
X60963580Y-116427811D01*
X60911167Y-116554348D01*
X60911166Y-116554349D01*
X60835073Y-116668231D01*
X60738231Y-116765073D01*
X60738228Y-116765075D01*
X60624348Y-116841167D01*
X60497811Y-116893580D01*
X60408258Y-116911393D01*
X60363482Y-116920300D01*
X60226518Y-116920300D01*
X60181742Y-116911393D01*
X60092189Y-116893580D01*
X59965652Y-116841167D01*
X59851772Y-116765075D01*
X59851769Y-116765073D01*
X59754927Y-116668231D01*
X59678834Y-116554349D01*
X59678833Y-116554348D01*
X59626420Y-116427811D01*
X59599700Y-116293481D01*
X59599700Y-116156519D01*
X59626420Y-116022189D01*
X59678833Y-115895652D01*
X59754925Y-115781772D01*
X59754927Y-115781769D01*
X59851769Y-115684927D01*
X59965651Y-115608834D01*
X59965652Y-115608833D01*
X60092189Y-115556420D01*
X60181742Y-115538607D01*
X60226518Y-115529700D01*
X60363482Y-115529700D01*
X60408258Y-115538607D01*
X60408258Y-115538607D01*
G37*
G36*
X78408258Y-115538607D02*
X78497811Y-115556420D01*
X78624348Y-115608833D01*
X78624349Y-115608834D01*
X78738231Y-115684927D01*
X78835073Y-115781769D01*
X78835075Y-115781772D01*
X78911167Y-115895652D01*
X78963580Y-116022189D01*
X78990300Y-116156519D01*
X78990300Y-116293481D01*
X78963580Y-116427811D01*
X78911167Y-116554348D01*
X78911166Y-116554349D01*
X78835073Y-116668231D01*
X78738231Y-116765073D01*
X78738228Y-116765075D01*
X78624348Y-116841167D01*
X78497811Y-116893580D01*
X78408258Y-116911393D01*
X78363482Y-116920300D01*
X78226518Y-116920300D01*
X78181742Y-116911393D01*
X78092189Y-116893580D01*
X77965652Y-116841167D01*
X77851772Y-116765075D01*
X77851769Y-116765073D01*
X77754927Y-116668231D01*
X77678834Y-116554349D01*
X77678833Y-116554348D01*
X77626420Y-116427811D01*
X77599700Y-116293481D01*
X77599700Y-116156519D01*
X77626420Y-116022189D01*
X77678833Y-115895652D01*
X77754925Y-115781772D01*
X77754927Y-115781769D01*
X77851769Y-115684927D01*
X77965651Y-115608834D01*
X77965652Y-115608833D01*
X78092189Y-115556420D01*
X78181742Y-115538607D01*
X78226518Y-115529700D01*
X78363482Y-115529700D01*
X78408258Y-115538607D01*
X78408258Y-115538607D01*
G37*
G36*
X55429692Y-108155729D02*
X55650993Y-108247395D01*
X55850158Y-108380473D01*
X56019527Y-108549842D01*
X56152605Y-108749007D01*
X56244271Y-108970308D01*
X56291000Y-109205233D01*
X56291000Y-109444767D01*
X56244271Y-109679692D01*
X56152605Y-109900993D01*
X56019527Y-110100158D01*
X55850158Y-110269527D01*
X55650993Y-110402605D01*
X55429692Y-110494271D01*
X55194767Y-110541000D01*
X54955233Y-110541000D01*
X54720308Y-110494271D01*
X54499007Y-110402605D01*
X54299842Y-110269527D01*
X54130473Y-110100158D01*
X53997395Y-109900993D01*
X53905729Y-109679692D01*
X53859000Y-109444767D01*
X53859000Y-109205233D01*
X53905729Y-108970308D01*
X53997395Y-108749007D01*
X54130473Y-108549842D01*
X54299842Y-108380473D01*
X54499007Y-108247395D01*
X54720308Y-108155729D01*
X54955233Y-108109000D01*
X55194767Y-108109000D01*
X55429692Y-108155729D01*
X55429692Y-108155729D01*
G37*
G36*
X73429692Y-108155729D02*
X73650993Y-108247395D01*
X73850158Y-108380473D01*
X74019527Y-108549842D01*
X74152605Y-108749007D01*
X74244271Y-108970308D01*
X74291000Y-109205233D01*
X74291000Y-109444767D01*
X74244271Y-109679692D01*
X74152605Y-109900993D01*
X74019527Y-110100158D01*
X73850158Y-110269527D01*
X73650993Y-110402605D01*
X73429692Y-110494271D01*
X73194767Y-110541000D01*
X72955233Y-110541000D01*
X72720308Y-110494271D01*
X72499007Y-110402605D01*
X72299842Y-110269527D01*
X72130473Y-110100158D01*
X71997395Y-109900993D01*
X71905729Y-109679692D01*
X71859000Y-109444767D01*
X71859000Y-109205233D01*
X71905729Y-108970308D01*
X71997395Y-108749007D01*
X72130473Y-108549842D01*
X72299842Y-108380473D01*
X72499007Y-108247395D01*
X72720308Y-108155729D01*
X72955233Y-108109000D01*
X73194767Y-108109000D01*
X73429692Y-108155729D01*
X73429692Y-108155729D01*
G37*
G36*
X37429692Y-108155729D02*
X37650993Y-108247395D01*
X37850158Y-108380473D01*
X38019527Y-108549842D01*
X38152605Y-108749007D01*
X38244271Y-108970308D01*
X38291000Y-109205233D01*
X38291000Y-109444767D01*
X38244271Y-109679692D01*
X38152605Y-109900993D01*
X38019527Y-110100158D01*
X37850158Y-110269527D01*
X37650993Y-110402605D01*
X37429692Y-110494271D01*
X37194767Y-110541000D01*
X36955233Y-110541000D01*
X36720308Y-110494271D01*
X36499007Y-110402605D01*
X36299842Y-110269527D01*
X36130473Y-110100158D01*
X35997395Y-109900993D01*
X35905729Y-109679692D01*
X35859000Y-109444767D01*
X35859000Y-109205233D01*
X35905729Y-108970308D01*
X35997395Y-108749007D01*
X36130473Y-108549842D01*
X36299842Y-108380473D01*
X36499007Y-108247395D01*
X36720308Y-108155729D01*
X36955233Y-108109000D01*
X37194767Y-108109000D01*
X37429692Y-108155729D01*
X37429692Y-108155729D01*
G37*
G36*
X50429692Y-106055729D02*
X50650993Y-106147395D01*
X50850158Y-106280473D01*
X51019527Y-106449842D01*
X51152605Y-106649007D01*
X51244271Y-106870308D01*
X51291000Y-107105233D01*
X51291000Y-107344767D01*
X51244271Y-107579692D01*
X51152605Y-107800993D01*
X51019527Y-108000158D01*
X50850158Y-108169527D01*
X50650993Y-108302605D01*
X50429692Y-108394271D01*
X50194767Y-108441000D01*
X49955233Y-108441000D01*
X49720308Y-108394271D01*
X49499007Y-108302605D01*
X49299842Y-108169527D01*
X49130473Y-108000158D01*
X48997395Y-107800993D01*
X48905729Y-107579692D01*
X48859000Y-107344767D01*
X48859000Y-107105233D01*
X48905729Y-106870308D01*
X48997395Y-106649007D01*
X49130473Y-106449842D01*
X49299842Y-106280473D01*
X49499007Y-106147395D01*
X49720308Y-106055729D01*
X49955233Y-106009000D01*
X50194767Y-106009000D01*
X50429692Y-106055729D01*
X50429692Y-106055729D01*
G37*
G36*
X68429692Y-106055729D02*
X68650993Y-106147395D01*
X68850158Y-106280473D01*
X69019527Y-106449842D01*
X69152605Y-106649007D01*
X69244271Y-106870308D01*
X69291000Y-107105233D01*
X69291000Y-107344767D01*
X69244271Y-107579692D01*
X69152605Y-107800993D01*
X69019527Y-108000158D01*
X68850158Y-108169527D01*
X68650993Y-108302605D01*
X68429692Y-108394271D01*
X68194767Y-108441000D01*
X67955233Y-108441000D01*
X67720308Y-108394271D01*
X67499007Y-108302605D01*
X67299842Y-108169527D01*
X67130473Y-108000158D01*
X66997395Y-107800993D01*
X66905729Y-107579692D01*
X66859000Y-107344767D01*
X66859000Y-107105233D01*
X66905729Y-106870308D01*
X66997395Y-106649007D01*
X67130473Y-106449842D01*
X67299842Y-106280473D01*
X67499007Y-106147395D01*
X67720308Y-106055729D01*
X67955233Y-106009000D01*
X68194767Y-106009000D01*
X68429692Y-106055729D01*
X68429692Y-106055729D01*
G37*
G36*
X32429692Y-106055729D02*
X32650993Y-106147395D01*
X32850158Y-106280473D01*
X33019527Y-106449842D01*
X33152605Y-106649007D01*
X33244271Y-106870308D01*
X33291000Y-107105233D01*
X33291000Y-107344767D01*
X33244271Y-107579692D01*
X33152605Y-107800993D01*
X33019527Y-108000158D01*
X32850158Y-108169527D01*
X32650993Y-108302605D01*
X32429692Y-108394271D01*
X32194767Y-108441000D01*
X31955233Y-108441000D01*
X31720308Y-108394271D01*
X31499007Y-108302605D01*
X31299842Y-108169527D01*
X31130473Y-108000158D01*
X30997395Y-107800993D01*
X30905729Y-107579692D01*
X30859000Y-107344767D01*
X30859000Y-107105233D01*
X30905729Y-106870308D01*
X30997395Y-106649007D01*
X31130473Y-106449842D01*
X31299842Y-106280473D01*
X31499007Y-106147395D01*
X31720308Y-106055729D01*
X31955233Y-106009000D01*
X32194767Y-106009000D01*
X32429692Y-106055729D01*
X32429692Y-106055729D01*
G37*
G36*
X37633436Y-101584073D02*
X37633438Y-101584074D01*
X37633439Y-101584074D01*
X37981856Y-101728393D01*
X38295425Y-101937913D01*
X38562087Y-102204575D01*
X38771607Y-102518144D01*
X38915927Y-102866564D01*
X38989500Y-103236437D01*
X38989500Y-103613563D01*
X38915927Y-103983436D01*
X38771607Y-104331856D01*
X38562087Y-104645425D01*
X38295425Y-104912087D01*
X38295422Y-104912089D01*
X37981856Y-105121607D01*
X37633439Y-105265926D01*
X37633438Y-105265926D01*
X37633436Y-105265927D01*
X37263563Y-105339500D01*
X36886437Y-105339500D01*
X36516564Y-105265927D01*
X36516562Y-105265926D01*
X36516561Y-105265926D01*
X36168144Y-105121607D01*
X35854578Y-104912089D01*
X35854575Y-104912087D01*
X35587913Y-104645425D01*
X35378393Y-104331856D01*
X35234073Y-103983436D01*
X35160500Y-103613563D01*
X35160500Y-103236437D01*
X35234073Y-102866564D01*
X35378393Y-102518144D01*
X35587913Y-102204575D01*
X35854575Y-101937913D01*
X36168144Y-101728393D01*
X36516561Y-101584074D01*
X36516562Y-101584074D01*
X36516564Y-101584073D01*
X36886437Y-101510500D01*
X37263563Y-101510500D01*
X37633436Y-101584073D01*
X37633436Y-101584073D01*
G37*
G36*
X55633436Y-101584073D02*
X55633438Y-101584074D01*
X55633439Y-101584074D01*
X55981856Y-101728393D01*
X56295425Y-101937913D01*
X56562087Y-102204575D01*
X56771607Y-102518144D01*
X56915927Y-102866564D01*
X56989500Y-103236437D01*
X56989500Y-103613563D01*
X56915927Y-103983436D01*
X56771607Y-104331856D01*
X56562087Y-104645425D01*
X56295425Y-104912087D01*
X56295422Y-104912089D01*
X55981856Y-105121607D01*
X55633439Y-105265926D01*
X55633438Y-105265926D01*
X55633436Y-105265927D01*
X55263563Y-105339500D01*
X54886437Y-105339500D01*
X54516564Y-105265927D01*
X54516562Y-105265926D01*
X54516561Y-105265926D01*
X54168144Y-105121607D01*
X53854578Y-104912089D01*
X53854575Y-104912087D01*
X53587913Y-104645425D01*
X53378393Y-104331856D01*
X53234073Y-103983436D01*
X53160500Y-103613563D01*
X53160500Y-103236437D01*
X53234073Y-102866564D01*
X53378393Y-102518144D01*
X53587913Y-102204575D01*
X53854575Y-101937913D01*
X54168144Y-101728393D01*
X54516561Y-101584074D01*
X54516562Y-101584074D01*
X54516564Y-101584073D01*
X54886437Y-101510500D01*
X55263563Y-101510500D01*
X55633436Y-101584073D01*
X55633436Y-101584073D01*
G37*
G36*
X73633436Y-101584073D02*
X73633438Y-101584074D01*
X73633439Y-101584074D01*
X73981856Y-101728393D01*
X74295425Y-101937913D01*
X74562087Y-102204575D01*
X74771607Y-102518144D01*
X74915927Y-102866564D01*
X74989500Y-103236437D01*
X74989500Y-103613563D01*
X74915927Y-103983436D01*
X74771607Y-104331856D01*
X74562087Y-104645425D01*
X74295425Y-104912087D01*
X74295422Y-104912089D01*
X73981856Y-105121607D01*
X73633439Y-105265926D01*
X73633438Y-105265926D01*
X73633436Y-105265927D01*
X73263563Y-105339500D01*
X72886437Y-105339500D01*
X72516564Y-105265927D01*
X72516562Y-105265926D01*
X72516561Y-105265926D01*
X72168144Y-105121607D01*
X71854578Y-104912089D01*
X71854575Y-104912087D01*
X71587913Y-104645425D01*
X71378393Y-104331856D01*
X71234073Y-103983436D01*
X71160500Y-103613563D01*
X71160500Y-103236437D01*
X71234073Y-102866564D01*
X71378393Y-102518144D01*
X71587913Y-102204575D01*
X71854575Y-101937913D01*
X72168144Y-101728393D01*
X72516561Y-101584074D01*
X72516562Y-101584074D01*
X72516564Y-101584073D01*
X72886437Y-101510500D01*
X73263563Y-101510500D01*
X73633436Y-101584073D01*
X73633436Y-101584073D01*
G37*
G36*
X78780021Y-102394293D02*
X78881536Y-102414485D01*
X79072788Y-102493704D01*
X79243749Y-102607937D01*
X79244913Y-102608715D01*
X79391285Y-102755087D01*
X79391287Y-102755090D01*
X79506296Y-102927212D01*
X79585515Y-103118464D01*
X79625900Y-103321495D01*
X79625900Y-103528505D01*
X79585515Y-103731536D01*
X79506296Y-103922788D01*
X79465772Y-103983436D01*
X79391285Y-104094913D01*
X79244913Y-104241285D01*
X79244910Y-104241287D01*
X79072788Y-104356296D01*
X78881536Y-104435515D01*
X78780021Y-104455707D01*
X78678506Y-104475900D01*
X78471494Y-104475900D01*
X78369979Y-104455707D01*
X78268464Y-104435515D01*
X78077212Y-104356296D01*
X77905090Y-104241287D01*
X77905087Y-104241285D01*
X77758715Y-104094913D01*
X77684228Y-103983436D01*
X77643704Y-103922788D01*
X77564485Y-103731536D01*
X77524100Y-103528505D01*
X77524100Y-103321495D01*
X77564485Y-103118464D01*
X77643704Y-102927212D01*
X77758713Y-102755090D01*
X77758715Y-102755087D01*
X77905087Y-102608715D01*
X77906251Y-102607937D01*
X78077212Y-102493704D01*
X78268464Y-102414485D01*
X78369979Y-102394293D01*
X78471494Y-102374100D01*
X78678506Y-102374100D01*
X78780021Y-102394293D01*
X78780021Y-102394293D01*
G37*
G36*
X67780021Y-102394293D02*
X67881536Y-102414485D01*
X68072788Y-102493704D01*
X68243749Y-102607937D01*
X68244913Y-102608715D01*
X68391285Y-102755087D01*
X68391287Y-102755090D01*
X68506296Y-102927212D01*
X68585515Y-103118464D01*
X68625900Y-103321495D01*
X68625900Y-103528505D01*
X68585515Y-103731536D01*
X68506296Y-103922788D01*
X68465772Y-103983436D01*
X68391285Y-104094913D01*
X68244913Y-104241285D01*
X68244910Y-104241287D01*
X68072788Y-104356296D01*
X67881536Y-104435515D01*
X67780021Y-104455707D01*
X67678506Y-104475900D01*
X67471494Y-104475900D01*
X67369979Y-104455707D01*
X67268464Y-104435515D01*
X67077212Y-104356296D01*
X66905090Y-104241287D01*
X66905087Y-104241285D01*
X66758715Y-104094913D01*
X66684228Y-103983436D01*
X66643704Y-103922788D01*
X66564485Y-103731536D01*
X66524100Y-103528505D01*
X66524100Y-103321495D01*
X66564485Y-103118464D01*
X66643704Y-102927212D01*
X66758713Y-102755090D01*
X66758715Y-102755087D01*
X66905087Y-102608715D01*
X66906251Y-102607937D01*
X67077212Y-102493704D01*
X67268464Y-102414485D01*
X67369979Y-102394293D01*
X67471494Y-102374100D01*
X67678506Y-102374100D01*
X67780021Y-102394293D01*
X67780021Y-102394293D01*
G37*
G36*
X49780021Y-102394293D02*
X49881536Y-102414485D01*
X50072788Y-102493704D01*
X50243749Y-102607937D01*
X50244913Y-102608715D01*
X50391285Y-102755087D01*
X50391287Y-102755090D01*
X50506296Y-102927212D01*
X50585515Y-103118464D01*
X50625900Y-103321495D01*
X50625900Y-103528505D01*
X50585515Y-103731536D01*
X50506296Y-103922788D01*
X50465772Y-103983436D01*
X50391285Y-104094913D01*
X50244913Y-104241285D01*
X50244910Y-104241287D01*
X50072788Y-104356296D01*
X49881536Y-104435515D01*
X49780021Y-104455707D01*
X49678506Y-104475900D01*
X49471494Y-104475900D01*
X49369979Y-104455707D01*
X49268464Y-104435515D01*
X49077212Y-104356296D01*
X48905090Y-104241287D01*
X48905087Y-104241285D01*
X48758715Y-104094913D01*
X48684228Y-103983436D01*
X48643704Y-103922788D01*
X48564485Y-103731536D01*
X48524100Y-103528505D01*
X48524100Y-103321495D01*
X48564485Y-103118464D01*
X48643704Y-102927212D01*
X48758713Y-102755090D01*
X48758715Y-102755087D01*
X48905087Y-102608715D01*
X48906251Y-102607937D01*
X49077212Y-102493704D01*
X49268464Y-102414485D01*
X49369979Y-102394293D01*
X49471494Y-102374100D01*
X49678506Y-102374100D01*
X49780021Y-102394293D01*
X49780021Y-102394293D01*
G37*
G36*
X42780021Y-102394293D02*
X42881536Y-102414485D01*
X43072788Y-102493704D01*
X43243749Y-102607937D01*
X43244913Y-102608715D01*
X43391285Y-102755087D01*
X43391287Y-102755090D01*
X43506296Y-102927212D01*
X43585515Y-103118464D01*
X43625900Y-103321495D01*
X43625900Y-103528505D01*
X43585515Y-103731536D01*
X43506296Y-103922788D01*
X43465772Y-103983436D01*
X43391285Y-104094913D01*
X43244913Y-104241285D01*
X43244910Y-104241287D01*
X43072788Y-104356296D01*
X42881536Y-104435515D01*
X42780021Y-104455707D01*
X42678506Y-104475900D01*
X42471494Y-104475900D01*
X42369979Y-104455707D01*
X42268464Y-104435515D01*
X42077212Y-104356296D01*
X41905090Y-104241287D01*
X41905087Y-104241285D01*
X41758715Y-104094913D01*
X41684228Y-103983436D01*
X41643704Y-103922788D01*
X41564485Y-103731536D01*
X41524100Y-103528505D01*
X41524100Y-103321495D01*
X41564485Y-103118464D01*
X41643704Y-102927212D01*
X41758713Y-102755090D01*
X41758715Y-102755087D01*
X41905087Y-102608715D01*
X41906251Y-102607937D01*
X42077212Y-102493704D01*
X42268464Y-102414485D01*
X42369979Y-102394293D01*
X42471494Y-102374100D01*
X42678506Y-102374100D01*
X42780021Y-102394293D01*
X42780021Y-102394293D01*
G37*
G36*
X60780021Y-102394293D02*
X60881536Y-102414485D01*
X61072788Y-102493704D01*
X61243749Y-102607937D01*
X61244913Y-102608715D01*
X61391285Y-102755087D01*
X61391287Y-102755090D01*
X61506296Y-102927212D01*
X61585515Y-103118464D01*
X61625900Y-103321495D01*
X61625900Y-103528505D01*
X61585515Y-103731536D01*
X61506296Y-103922788D01*
X61465772Y-103983436D01*
X61391285Y-104094913D01*
X61244913Y-104241285D01*
X61244910Y-104241287D01*
X61072788Y-104356296D01*
X60881536Y-104435515D01*
X60780021Y-104455707D01*
X60678506Y-104475900D01*
X60471494Y-104475900D01*
X60369979Y-104455707D01*
X60268464Y-104435515D01*
X60077212Y-104356296D01*
X59905090Y-104241287D01*
X59905087Y-104241285D01*
X59758715Y-104094913D01*
X59684228Y-103983436D01*
X59643704Y-103922788D01*
X59564485Y-103731536D01*
X59524100Y-103528505D01*
X59524100Y-103321495D01*
X59564485Y-103118464D01*
X59643704Y-102927212D01*
X59758713Y-102755090D01*
X59758715Y-102755087D01*
X59905087Y-102608715D01*
X59906251Y-102607937D01*
X60077212Y-102493704D01*
X60268464Y-102414485D01*
X60369979Y-102394293D01*
X60471494Y-102374100D01*
X60678506Y-102374100D01*
X60780021Y-102394293D01*
X60780021Y-102394293D01*
G37*
G36*
X31780021Y-102394293D02*
X31881536Y-102414485D01*
X32072788Y-102493704D01*
X32243749Y-102607937D01*
X32244913Y-102608715D01*
X32391285Y-102755087D01*
X32391287Y-102755090D01*
X32506296Y-102927212D01*
X32585515Y-103118464D01*
X32625900Y-103321495D01*
X32625900Y-103528505D01*
X32585515Y-103731536D01*
X32506296Y-103922788D01*
X32465772Y-103983436D01*
X32391285Y-104094913D01*
X32244913Y-104241285D01*
X32244910Y-104241287D01*
X32072788Y-104356296D01*
X31881536Y-104435515D01*
X31780021Y-104455707D01*
X31678506Y-104475900D01*
X31471494Y-104475900D01*
X31369979Y-104455707D01*
X31268464Y-104435515D01*
X31077212Y-104356296D01*
X30905090Y-104241287D01*
X30905087Y-104241285D01*
X30758715Y-104094913D01*
X30684228Y-103983436D01*
X30643704Y-103922788D01*
X30564485Y-103731536D01*
X30524100Y-103528505D01*
X30524100Y-103321495D01*
X30564485Y-103118464D01*
X30643704Y-102927212D01*
X30758713Y-102755090D01*
X30758715Y-102755087D01*
X30905087Y-102608715D01*
X30906251Y-102607937D01*
X31077212Y-102493704D01*
X31268464Y-102414485D01*
X31369979Y-102394293D01*
X31471494Y-102374100D01*
X31678506Y-102374100D01*
X31780021Y-102394293D01*
X31780021Y-102394293D01*
G37*
G36*
X78408258Y-98538607D02*
X78497811Y-98556420D01*
X78624348Y-98608833D01*
X78624349Y-98608834D01*
X78738231Y-98684927D01*
X78835073Y-98781769D01*
X78835075Y-98781772D01*
X78911167Y-98895652D01*
X78963580Y-99022189D01*
X78990300Y-99156519D01*
X78990300Y-99293481D01*
X78963580Y-99427811D01*
X78911167Y-99554348D01*
X78911166Y-99554349D01*
X78835073Y-99668231D01*
X78738231Y-99765073D01*
X78738228Y-99765075D01*
X78624348Y-99841167D01*
X78497811Y-99893580D01*
X78408258Y-99911393D01*
X78363482Y-99920300D01*
X78226518Y-99920300D01*
X78181742Y-99911393D01*
X78092189Y-99893580D01*
X77965652Y-99841167D01*
X77851772Y-99765075D01*
X77851769Y-99765073D01*
X77754927Y-99668231D01*
X77678834Y-99554349D01*
X77678833Y-99554348D01*
X77626420Y-99427811D01*
X77599700Y-99293481D01*
X77599700Y-99156519D01*
X77626420Y-99022189D01*
X77678833Y-98895652D01*
X77754925Y-98781772D01*
X77754927Y-98781769D01*
X77851769Y-98684927D01*
X77965651Y-98608834D01*
X77965652Y-98608833D01*
X78092189Y-98556420D01*
X78181742Y-98538607D01*
X78226518Y-98529700D01*
X78363482Y-98529700D01*
X78408258Y-98538607D01*
X78408258Y-98538607D01*
G37*
G36*
X42408258Y-98538607D02*
X42497811Y-98556420D01*
X42624348Y-98608833D01*
X42624349Y-98608834D01*
X42738231Y-98684927D01*
X42835073Y-98781769D01*
X42835075Y-98781772D01*
X42911167Y-98895652D01*
X42963580Y-99022189D01*
X42990300Y-99156519D01*
X42990300Y-99293481D01*
X42963580Y-99427811D01*
X42911167Y-99554348D01*
X42911166Y-99554349D01*
X42835073Y-99668231D01*
X42738231Y-99765073D01*
X42738228Y-99765075D01*
X42624348Y-99841167D01*
X42497811Y-99893580D01*
X42408258Y-99911393D01*
X42363482Y-99920300D01*
X42226518Y-99920300D01*
X42181742Y-99911393D01*
X42092189Y-99893580D01*
X41965652Y-99841167D01*
X41851772Y-99765075D01*
X41851769Y-99765073D01*
X41754927Y-99668231D01*
X41678834Y-99554349D01*
X41678833Y-99554348D01*
X41626420Y-99427811D01*
X41599700Y-99293481D01*
X41599700Y-99156519D01*
X41626420Y-99022189D01*
X41678833Y-98895652D01*
X41754925Y-98781772D01*
X41754927Y-98781769D01*
X41851769Y-98684927D01*
X41965651Y-98608834D01*
X41965652Y-98608833D01*
X42092189Y-98556420D01*
X42181742Y-98538607D01*
X42226518Y-98529700D01*
X42363482Y-98529700D01*
X42408258Y-98538607D01*
X42408258Y-98538607D01*
G37*
G36*
X60408258Y-98538607D02*
X60497811Y-98556420D01*
X60624348Y-98608833D01*
X60624349Y-98608834D01*
X60738231Y-98684927D01*
X60835073Y-98781769D01*
X60835075Y-98781772D01*
X60911167Y-98895652D01*
X60963580Y-99022189D01*
X60990300Y-99156519D01*
X60990300Y-99293481D01*
X60963580Y-99427811D01*
X60911167Y-99554348D01*
X60911166Y-99554349D01*
X60835073Y-99668231D01*
X60738231Y-99765073D01*
X60738228Y-99765075D01*
X60624348Y-99841167D01*
X60497811Y-99893580D01*
X60408258Y-99911393D01*
X60363482Y-99920300D01*
X60226518Y-99920300D01*
X60181742Y-99911393D01*
X60092189Y-99893580D01*
X59965652Y-99841167D01*
X59851772Y-99765075D01*
X59851769Y-99765073D01*
X59754927Y-99668231D01*
X59678834Y-99554349D01*
X59678833Y-99554348D01*
X59626420Y-99427811D01*
X59599700Y-99293481D01*
X59599700Y-99156519D01*
X59626420Y-99022189D01*
X59678833Y-98895652D01*
X59754925Y-98781772D01*
X59754927Y-98781769D01*
X59851769Y-98684927D01*
X59965651Y-98608834D01*
X59965652Y-98608833D01*
X60092189Y-98556420D01*
X60181742Y-98538607D01*
X60226518Y-98529700D01*
X60363482Y-98529700D01*
X60408258Y-98538607D01*
X60408258Y-98538607D01*
G37*
G36*
X51200888Y-91379470D02*
X51381274Y-91415350D01*
X51572362Y-91494502D01*
X51744336Y-91609411D01*
X51890589Y-91755664D01*
X51971071Y-91876114D01*
X51986612Y-91895050D01*
X52005554Y-91910596D01*
X52027164Y-91922147D01*
X52050614Y-91929260D01*
X52075000Y-91931662D01*
X52099386Y-91929260D01*
X52122835Y-91922147D01*
X52144446Y-91910596D01*
X52163388Y-91895050D01*
X52178929Y-91876114D01*
X52259411Y-91755664D01*
X52405664Y-91609411D01*
X52577638Y-91494502D01*
X52768726Y-91415350D01*
X52949112Y-91379470D01*
X52971583Y-91375000D01*
X53178417Y-91375000D01*
X53200888Y-91379470D01*
X53381274Y-91415350D01*
X53572362Y-91494502D01*
X53744336Y-91609411D01*
X53890589Y-91755664D01*
X53971071Y-91876114D01*
X53986612Y-91895050D01*
X54005554Y-91910596D01*
X54027164Y-91922147D01*
X54050614Y-91929260D01*
X54075000Y-91931662D01*
X54099386Y-91929260D01*
X54122835Y-91922147D01*
X54144446Y-91910596D01*
X54163388Y-91895050D01*
X54178929Y-91876114D01*
X54259411Y-91755664D01*
X54405664Y-91609411D01*
X54577638Y-91494502D01*
X54768726Y-91415350D01*
X54949112Y-91379470D01*
X54971583Y-91375000D01*
X55178417Y-91375000D01*
X55200888Y-91379470D01*
X55381274Y-91415350D01*
X55572362Y-91494502D01*
X55744336Y-91609411D01*
X55890589Y-91755664D01*
X55971071Y-91876114D01*
X55986612Y-91895050D01*
X56005554Y-91910596D01*
X56027164Y-91922147D01*
X56050614Y-91929260D01*
X56075000Y-91931662D01*
X56099386Y-91929260D01*
X56122835Y-91922147D01*
X56144446Y-91910596D01*
X56163388Y-91895050D01*
X56178929Y-91876114D01*
X56259411Y-91755664D01*
X56405664Y-91609411D01*
X56577638Y-91494502D01*
X56768726Y-91415350D01*
X56949112Y-91379470D01*
X56971583Y-91375000D01*
X57178417Y-91375000D01*
X57200888Y-91379470D01*
X57381274Y-91415350D01*
X57572362Y-91494502D01*
X57744336Y-91609411D01*
X57811612Y-91676687D01*
X57830554Y-91692233D01*
X57852165Y-91703784D01*
X57875614Y-91710897D01*
X57900000Y-91713299D01*
X57924386Y-91710897D01*
X57947835Y-91703784D01*
X57969446Y-91692233D01*
X57988388Y-91676687D01*
X58003934Y-91657745D01*
X58015485Y-91636134D01*
X58022598Y-91612685D01*
X58025000Y-91588299D01*
X58025000Y-91375000D01*
X60125000Y-91375000D01*
X60125000Y-93475000D01*
X58025000Y-93475000D01*
X58025000Y-93261701D01*
X58022598Y-93237315D01*
X58015485Y-93213866D01*
X58003934Y-93192255D01*
X57988388Y-93173313D01*
X57969446Y-93157767D01*
X57947835Y-93146216D01*
X57924386Y-93139103D01*
X57900000Y-93136701D01*
X57875614Y-93139103D01*
X57852165Y-93146216D01*
X57830554Y-93157767D01*
X57811612Y-93173313D01*
X57744336Y-93240589D01*
X57572362Y-93355498D01*
X57381274Y-93434650D01*
X57200888Y-93470530D01*
X57178417Y-93475000D01*
X56971583Y-93475000D01*
X56949112Y-93470530D01*
X56768726Y-93434650D01*
X56577638Y-93355498D01*
X56405664Y-93240589D01*
X56259411Y-93094336D01*
X56178929Y-92973886D01*
X56163388Y-92954950D01*
X56144446Y-92939404D01*
X56122836Y-92927853D01*
X56099386Y-92920740D01*
X56075000Y-92918338D01*
X56050614Y-92920740D01*
X56027165Y-92927853D01*
X56005554Y-92939404D01*
X55986612Y-92954950D01*
X55971071Y-92973886D01*
X55890589Y-93094336D01*
X55744336Y-93240589D01*
X55572362Y-93355498D01*
X55381274Y-93434650D01*
X55200888Y-93470530D01*
X55178417Y-93475000D01*
X54971583Y-93475000D01*
X54949112Y-93470530D01*
X54768726Y-93434650D01*
X54577638Y-93355498D01*
X54405664Y-93240589D01*
X54259411Y-93094336D01*
X54178929Y-92973886D01*
X54163388Y-92954950D01*
X54144446Y-92939404D01*
X54122836Y-92927853D01*
X54099386Y-92920740D01*
X54075000Y-92918338D01*
X54050614Y-92920740D01*
X54027165Y-92927853D01*
X54005554Y-92939404D01*
X53986612Y-92954950D01*
X53971071Y-92973886D01*
X53890589Y-93094336D01*
X53744336Y-93240589D01*
X53572362Y-93355498D01*
X53381274Y-93434650D01*
X53200888Y-93470530D01*
X53178417Y-93475000D01*
X52971583Y-93475000D01*
X52949112Y-93470530D01*
X52768726Y-93434650D01*
X52577638Y-93355498D01*
X52405664Y-93240589D01*
X52259411Y-93094336D01*
X52178929Y-92973886D01*
X52163388Y-92954950D01*
X52144446Y-92939404D01*
X52122836Y-92927853D01*
X52099386Y-92920740D01*
X52075000Y-92918338D01*
X52050614Y-92920740D01*
X52027165Y-92927853D01*
X52005554Y-92939404D01*
X51986612Y-92954950D01*
X51971071Y-92973886D01*
X51890589Y-93094336D01*
X51744336Y-93240589D01*
X51572362Y-93355498D01*
X51381274Y-93434650D01*
X51200888Y-93470530D01*
X51178417Y-93475000D01*
X50971583Y-93475000D01*
X50949112Y-93470530D01*
X50768726Y-93434650D01*
X50577638Y-93355498D01*
X50405664Y-93240589D01*
X50259411Y-93094336D01*
X50144502Y-92922362D01*
X50065350Y-92731274D01*
X50025000Y-92528416D01*
X50025000Y-92321584D01*
X50065350Y-92118726D01*
X50144502Y-91927638D01*
X50259411Y-91755664D01*
X50405664Y-91609411D01*
X50577638Y-91494502D01*
X50768726Y-91415350D01*
X50949112Y-91379470D01*
X50971583Y-91375000D01*
X51178417Y-91375000D01*
X51200888Y-91379470D01*
X51200888Y-91379470D01*
G37*
G36*
X73808352Y-89655743D02*
X73953941Y-89716048D01*
X74084973Y-89803601D01*
X74196399Y-89915027D01*
X74283952Y-90046059D01*
X74344257Y-90191648D01*
X74375000Y-90346205D01*
X74375000Y-90503795D01*
X74344257Y-90658352D01*
X74283952Y-90803941D01*
X74196399Y-90934973D01*
X74084973Y-91046399D01*
X73953941Y-91133952D01*
X73808352Y-91194257D01*
X73653795Y-91225000D01*
X73496205Y-91225000D01*
X73341648Y-91194257D01*
X73196059Y-91133952D01*
X73065027Y-91046399D01*
X72953601Y-90934973D01*
X72866048Y-90803941D01*
X72805743Y-90658352D01*
X72775000Y-90503795D01*
X72775000Y-90346205D01*
X72805743Y-90191648D01*
X72866048Y-90046059D01*
X72953601Y-89915027D01*
X73065027Y-89803601D01*
X73196059Y-89716048D01*
X73341648Y-89655743D01*
X73496205Y-89625000D01*
X73653795Y-89625000D01*
X73808352Y-89655743D01*
X73808352Y-89655743D01*
G37*
G36*
X36673352Y-89655743D02*
X36818941Y-89716048D01*
X36949973Y-89803601D01*
X37061399Y-89915027D01*
X37148952Y-90046059D01*
X37209257Y-90191648D01*
X37240000Y-90346205D01*
X37240000Y-90503795D01*
X37209257Y-90658352D01*
X37148952Y-90803941D01*
X37061399Y-90934973D01*
X36949973Y-91046399D01*
X36818941Y-91133952D01*
X36673352Y-91194257D01*
X36518795Y-91225000D01*
X36361205Y-91225000D01*
X36206648Y-91194257D01*
X36061059Y-91133952D01*
X35930027Y-91046399D01*
X35818601Y-90934973D01*
X35731048Y-90803941D01*
X35670743Y-90658352D01*
X35640000Y-90503795D01*
X35640000Y-90346205D01*
X35670743Y-90191648D01*
X35731048Y-90046059D01*
X35818601Y-89915027D01*
X35930027Y-89803601D01*
X36061059Y-89716048D01*
X36206648Y-89655743D01*
X36361205Y-89625000D01*
X36518795Y-89625000D01*
X36673352Y-89655743D01*
X36673352Y-89655743D01*
G37*
G36*
X29673352Y-89655743D02*
X29818941Y-89716048D01*
X29949973Y-89803601D01*
X30061399Y-89915027D01*
X30148952Y-90046059D01*
X30209257Y-90191648D01*
X30240000Y-90346205D01*
X30240000Y-90503795D01*
X30209257Y-90658352D01*
X30148952Y-90803941D01*
X30061399Y-90934973D01*
X29949973Y-91046399D01*
X29818941Y-91133952D01*
X29673352Y-91194257D01*
X29518795Y-91225000D01*
X29361205Y-91225000D01*
X29206648Y-91194257D01*
X29061059Y-91133952D01*
X28930027Y-91046399D01*
X28818601Y-90934973D01*
X28731048Y-90803941D01*
X28670743Y-90658352D01*
X28640000Y-90503795D01*
X28640000Y-90346205D01*
X28670743Y-90191648D01*
X28731048Y-90046059D01*
X28818601Y-89915027D01*
X28930027Y-89803601D01*
X29061059Y-89716048D01*
X29206648Y-89655743D01*
X29361205Y-89625000D01*
X29518795Y-89625000D01*
X29673352Y-89655743D01*
X29673352Y-89655743D01*
G37*
G36*
X80808352Y-89655743D02*
X80953941Y-89716048D01*
X81084973Y-89803601D01*
X81196399Y-89915027D01*
X81283952Y-90046059D01*
X81344257Y-90191648D01*
X81375000Y-90346205D01*
X81375000Y-90503795D01*
X81344257Y-90658352D01*
X81283952Y-90803941D01*
X81196399Y-90934973D01*
X81084973Y-91046399D01*
X80953941Y-91133952D01*
X80808352Y-91194257D01*
X80653795Y-91225000D01*
X80496205Y-91225000D01*
X80341648Y-91194257D01*
X80196059Y-91133952D01*
X80065027Y-91046399D01*
X79953601Y-90934973D01*
X79866048Y-90803941D01*
X79805743Y-90658352D01*
X79775000Y-90503795D01*
X79775000Y-90346205D01*
X79805743Y-90191648D01*
X79866048Y-90046059D01*
X79953601Y-89915027D01*
X80065027Y-89803601D01*
X80196059Y-89716048D01*
X80341648Y-89655743D01*
X80496205Y-89625000D01*
X80653795Y-89625000D01*
X80808352Y-89655743D01*
X80808352Y-89655743D01*
G37*
G36*
X49958824Y-82992652D02*
X50198389Y-83040305D01*
X50649721Y-83227252D01*
X51055908Y-83498658D01*
X51401342Y-83844092D01*
X51672748Y-84250279D01*
X51859695Y-84701611D01*
X51955000Y-85180741D01*
X51955000Y-85669259D01*
X51859695Y-86148389D01*
X51672748Y-86599721D01*
X51401342Y-87005908D01*
X51055908Y-87351342D01*
X50649721Y-87622748D01*
X50198389Y-87809695D01*
X49958824Y-87857347D01*
X49719260Y-87905000D01*
X49230740Y-87905000D01*
X48991176Y-87857347D01*
X48751611Y-87809695D01*
X48300279Y-87622748D01*
X47894092Y-87351342D01*
X47548658Y-87005908D01*
X47277252Y-86599721D01*
X47090305Y-86148389D01*
X46995000Y-85669259D01*
X46995000Y-85180741D01*
X47090305Y-84701611D01*
X47277252Y-84250279D01*
X47548658Y-83844092D01*
X47894092Y-83498658D01*
X48300279Y-83227252D01*
X48751611Y-83040305D01*
X48991176Y-82992652D01*
X49230740Y-82945000D01*
X49719260Y-82945000D01*
X49958824Y-82992652D01*
X49958824Y-82992652D01*
G37*
G36*
X61158824Y-82992652D02*
X61398389Y-83040305D01*
X61849721Y-83227252D01*
X62255908Y-83498658D01*
X62601342Y-83844092D01*
X62872748Y-84250279D01*
X63059695Y-84701611D01*
X63155000Y-85180741D01*
X63155000Y-85669259D01*
X63059695Y-86148389D01*
X62872748Y-86599721D01*
X62601342Y-87005908D01*
X62255908Y-87351342D01*
X61849721Y-87622748D01*
X61398389Y-87809695D01*
X61158824Y-87857347D01*
X60919260Y-87905000D01*
X60430740Y-87905000D01*
X60191176Y-87857347D01*
X59951611Y-87809695D01*
X59500279Y-87622748D01*
X59094092Y-87351342D01*
X58748658Y-87005908D01*
X58477252Y-86599721D01*
X58290305Y-86148389D01*
X58195000Y-85669259D01*
X58195000Y-85180741D01*
X58290305Y-84701611D01*
X58477252Y-84250279D01*
X58748658Y-83844092D01*
X59094092Y-83498658D01*
X59500279Y-83227252D01*
X59951611Y-83040305D01*
X60191176Y-82992652D01*
X60430740Y-82945000D01*
X60919260Y-82945000D01*
X61158824Y-82992652D01*
X61158824Y-82992652D01*
G37*
G36*
X52917732Y-76795154D02*
X52917734Y-76795155D01*
X52917735Y-76795155D01*
X52996725Y-76827874D01*
X53131572Y-76883729D01*
X53324022Y-77012320D01*
X53487680Y-77175978D01*
X53616272Y-77368430D01*
X53709515Y-77593538D01*
X53721066Y-77615149D01*
X53736612Y-77634091D01*
X53755554Y-77649637D01*
X53777165Y-77661188D01*
X53800614Y-77668301D01*
X53825000Y-77670703D01*
X53849386Y-77668301D01*
X53872835Y-77661188D01*
X53894446Y-77649637D01*
X53913388Y-77634091D01*
X53928934Y-77615149D01*
X53940485Y-77593538D01*
X54033728Y-77368430D01*
X54162320Y-77175978D01*
X54325978Y-77012320D01*
X54518428Y-76883729D01*
X54653275Y-76827874D01*
X54732265Y-76795155D01*
X54732266Y-76795155D01*
X54732268Y-76795154D01*
X54959271Y-76750000D01*
X55190729Y-76750000D01*
X55417732Y-76795154D01*
X55417734Y-76795155D01*
X55417735Y-76795155D01*
X55496725Y-76827874D01*
X55631572Y-76883729D01*
X55824022Y-77012320D01*
X55987680Y-77175978D01*
X56116272Y-77368430D01*
X56209515Y-77593538D01*
X56221066Y-77615149D01*
X56236612Y-77634091D01*
X56255554Y-77649637D01*
X56277165Y-77661188D01*
X56300614Y-77668301D01*
X56325000Y-77670703D01*
X56349386Y-77668301D01*
X56372835Y-77661188D01*
X56394446Y-77649637D01*
X56413388Y-77634091D01*
X56428934Y-77615149D01*
X56440485Y-77593538D01*
X56533728Y-77368430D01*
X56662320Y-77175978D01*
X56825978Y-77012320D01*
X57018428Y-76883729D01*
X57153275Y-76827874D01*
X57232265Y-76795155D01*
X57232266Y-76795155D01*
X57232268Y-76795154D01*
X57459271Y-76750000D01*
X57690729Y-76750000D01*
X57917732Y-76795154D01*
X57917734Y-76795155D01*
X57917735Y-76795155D01*
X57996725Y-76827874D01*
X58131572Y-76883729D01*
X58324022Y-77012320D01*
X58487680Y-77175978D01*
X58616271Y-77368428D01*
X58704846Y-77582268D01*
X58750000Y-77809271D01*
X58750000Y-78040729D01*
X58704846Y-78267732D01*
X58616271Y-78481572D01*
X58487680Y-78674022D01*
X58324022Y-78837680D01*
X58131572Y-78966271D01*
X57996725Y-79022126D01*
X57917735Y-79054845D01*
X57917734Y-79054845D01*
X57917732Y-79054846D01*
X57690729Y-79100000D01*
X57459271Y-79100000D01*
X57232268Y-79054846D01*
X57232266Y-79054845D01*
X57232265Y-79054845D01*
X57153275Y-79022126D01*
X57018428Y-78966271D01*
X56825978Y-78837680D01*
X56662320Y-78674022D01*
X56533728Y-78481570D01*
X56440485Y-78256462D01*
X56428934Y-78234851D01*
X56413388Y-78215909D01*
X56394446Y-78200363D01*
X56372835Y-78188812D01*
X56349386Y-78181699D01*
X56325000Y-78179297D01*
X56300614Y-78181699D01*
X56277165Y-78188812D01*
X56255554Y-78200363D01*
X56236612Y-78215909D01*
X56221066Y-78234851D01*
X56209515Y-78256462D01*
X56116272Y-78481570D01*
X55987680Y-78674022D01*
X55824022Y-78837680D01*
X55631572Y-78966271D01*
X55496725Y-79022126D01*
X55417735Y-79054845D01*
X55417734Y-79054845D01*
X55417732Y-79054846D01*
X55190729Y-79100000D01*
X54959271Y-79100000D01*
X54732268Y-79054846D01*
X54732266Y-79054845D01*
X54732265Y-79054845D01*
X54653275Y-79022126D01*
X54518428Y-78966271D01*
X54325978Y-78837680D01*
X54162320Y-78674022D01*
X54033728Y-78481570D01*
X53940485Y-78256462D01*
X53928934Y-78234851D01*
X53913388Y-78215909D01*
X53894446Y-78200363D01*
X53872835Y-78188812D01*
X53849386Y-78181699D01*
X53825000Y-78179297D01*
X53800614Y-78181699D01*
X53777165Y-78188812D01*
X53755554Y-78200363D01*
X53736612Y-78215909D01*
X53721066Y-78234851D01*
X53709515Y-78256462D01*
X53616272Y-78481570D01*
X53487680Y-78674022D01*
X53324022Y-78837680D01*
X53131572Y-78966271D01*
X52996725Y-79022126D01*
X52917735Y-79054845D01*
X52917734Y-79054845D01*
X52917732Y-79054846D01*
X52690729Y-79100000D01*
X52459271Y-79100000D01*
X52232268Y-79054846D01*
X52232266Y-79054845D01*
X52232265Y-79054845D01*
X52153275Y-79022126D01*
X52018428Y-78966271D01*
X51825978Y-78837680D01*
X51662320Y-78674022D01*
X51533729Y-78481572D01*
X51445154Y-78267732D01*
X51400000Y-78040729D01*
X51400000Y-77809271D01*
X51445154Y-77582268D01*
X51533729Y-77368428D01*
X51662320Y-77175978D01*
X51825978Y-77012320D01*
X52018428Y-76883729D01*
X52153275Y-76827874D01*
X52232265Y-76795155D01*
X52232266Y-76795155D01*
X52232268Y-76795154D01*
X52459271Y-76750000D01*
X52690729Y-76750000D01*
X52917732Y-76795154D01*
X52917732Y-76795154D01*
G37*
G36*
X37558824Y-69592653D02*
X37798389Y-69640305D01*
X38249721Y-69827252D01*
X38655908Y-70098658D01*
X39001342Y-70444092D01*
X39272748Y-70850279D01*
X39459695Y-71301611D01*
X39555000Y-71780741D01*
X39555000Y-72269259D01*
X39459695Y-72748389D01*
X39272748Y-73199721D01*
X39001342Y-73605908D01*
X38655908Y-73951342D01*
X38249721Y-74222748D01*
X37798389Y-74409695D01*
X37558824Y-74457347D01*
X37319260Y-74505000D01*
X36830740Y-74505000D01*
X36591176Y-74457347D01*
X36351611Y-74409695D01*
X35900279Y-74222748D01*
X35494092Y-73951342D01*
X35148658Y-73605908D01*
X34877252Y-73199721D01*
X34690305Y-72748389D01*
X34595000Y-72269259D01*
X34595000Y-71780741D01*
X34690305Y-71301611D01*
X34877252Y-70850279D01*
X35148658Y-70444092D01*
X35494092Y-70098658D01*
X35900279Y-69827252D01*
X36351611Y-69640305D01*
X36591176Y-69592653D01*
X36830740Y-69545000D01*
X37319260Y-69545000D01*
X37558824Y-69592653D01*
X37558824Y-69592653D01*
G37*
G36*
X73558824Y-69592653D02*
X73798389Y-69640305D01*
X74249721Y-69827252D01*
X74655908Y-70098658D01*
X75001342Y-70444092D01*
X75272748Y-70850279D01*
X75459695Y-71301611D01*
X75555000Y-71780741D01*
X75555000Y-72269259D01*
X75459695Y-72748389D01*
X75272748Y-73199721D01*
X75001342Y-73605908D01*
X74655908Y-73951342D01*
X74249721Y-74222748D01*
X73798389Y-74409695D01*
X73558824Y-74457347D01*
X73319260Y-74505000D01*
X72830740Y-74505000D01*
X72591176Y-74457347D01*
X72351611Y-74409695D01*
X71900279Y-74222748D01*
X71494092Y-73951342D01*
X71148658Y-73605908D01*
X70877252Y-73199721D01*
X70690305Y-72748389D01*
X70595000Y-72269259D01*
X70595000Y-71780741D01*
X70690305Y-71301611D01*
X70877252Y-70850279D01*
X71148658Y-70444092D01*
X71494092Y-70098658D01*
X71900279Y-69827252D01*
X72351611Y-69640305D01*
X72591176Y-69592653D01*
X72830740Y-69545000D01*
X73319260Y-69545000D01*
X73558824Y-69592653D01*
X73558824Y-69592653D01*
G37*
G36*
X81125000Y-63475000D02*
X80911701Y-63475000D01*
X80887315Y-63477402D01*
X80863866Y-63484515D01*
X80842255Y-63496066D01*
X80823313Y-63511612D01*
X80807767Y-63530554D01*
X80796216Y-63552165D01*
X80789103Y-63575614D01*
X80786701Y-63600000D01*
X80789103Y-63624386D01*
X80796216Y-63647835D01*
X80807767Y-63669446D01*
X80823313Y-63688388D01*
X80890589Y-63755664D01*
X81005498Y-63927638D01*
X81084650Y-64118726D01*
X81125000Y-64321584D01*
X81125000Y-64528416D01*
X81084650Y-64731274D01*
X81005498Y-64922362D01*
X80890589Y-65094336D01*
X80744336Y-65240589D01*
X80623886Y-65321071D01*
X80604950Y-65336612D01*
X80589404Y-65355554D01*
X80577853Y-65377164D01*
X80570740Y-65400614D01*
X80568338Y-65425000D01*
X80570740Y-65449386D01*
X80577853Y-65472835D01*
X80589404Y-65494446D01*
X80604950Y-65513388D01*
X80623886Y-65528929D01*
X80744336Y-65609411D01*
X80890589Y-65755664D01*
X81005498Y-65927638D01*
X81084650Y-66118726D01*
X81125000Y-66321584D01*
X81125000Y-66528416D01*
X81084650Y-66731274D01*
X81005498Y-66922362D01*
X80890589Y-67094336D01*
X80744336Y-67240589D01*
X80623886Y-67321071D01*
X80604950Y-67336612D01*
X80589404Y-67355554D01*
X80577853Y-67377164D01*
X80570740Y-67400614D01*
X80568338Y-67425000D01*
X80570740Y-67449386D01*
X80577853Y-67472835D01*
X80589404Y-67494446D01*
X80604950Y-67513388D01*
X80623886Y-67528929D01*
X80744336Y-67609411D01*
X80890589Y-67755664D01*
X81005498Y-67927638D01*
X81084650Y-68118726D01*
X81125000Y-68321584D01*
X81125000Y-68528416D01*
X81084650Y-68731274D01*
X81005498Y-68922362D01*
X80890589Y-69094336D01*
X80744336Y-69240589D01*
X80623886Y-69321071D01*
X80604950Y-69336612D01*
X80589404Y-69355554D01*
X80577853Y-69377164D01*
X80570740Y-69400614D01*
X80568338Y-69425000D01*
X80570740Y-69449386D01*
X80577853Y-69472835D01*
X80589404Y-69494446D01*
X80604950Y-69513388D01*
X80623886Y-69528929D01*
X80744336Y-69609411D01*
X80890589Y-69755664D01*
X81005498Y-69927638D01*
X81084650Y-70118726D01*
X81125000Y-70321584D01*
X81125000Y-70528416D01*
X81084650Y-70731274D01*
X81005498Y-70922362D01*
X80890589Y-71094336D01*
X80744336Y-71240589D01*
X80572362Y-71355498D01*
X80381274Y-71434650D01*
X80200888Y-71470530D01*
X80178417Y-71475000D01*
X79971583Y-71475000D01*
X79949112Y-71470530D01*
X79768726Y-71434650D01*
X79577638Y-71355498D01*
X79405664Y-71240589D01*
X79259411Y-71094336D01*
X79144502Y-70922362D01*
X79065350Y-70731274D01*
X79025000Y-70528416D01*
X79025000Y-70321584D01*
X79065350Y-70118726D01*
X79144502Y-69927638D01*
X79259411Y-69755664D01*
X79405664Y-69609411D01*
X79526114Y-69528929D01*
X79545050Y-69513388D01*
X79560596Y-69494446D01*
X79572147Y-69472836D01*
X79579260Y-69449386D01*
X79581662Y-69425000D01*
X79579260Y-69400614D01*
X79572147Y-69377165D01*
X79560596Y-69355554D01*
X79545050Y-69336612D01*
X79526114Y-69321071D01*
X79405664Y-69240589D01*
X79259411Y-69094336D01*
X79144502Y-68922362D01*
X79065350Y-68731274D01*
X79025000Y-68528416D01*
X79025000Y-68321584D01*
X79065350Y-68118726D01*
X79144502Y-67927638D01*
X79259411Y-67755664D01*
X79405664Y-67609411D01*
X79526114Y-67528929D01*
X79545050Y-67513388D01*
X79560596Y-67494446D01*
X79572147Y-67472836D01*
X79579260Y-67449386D01*
X79581662Y-67425000D01*
X79579260Y-67400614D01*
X79572147Y-67377165D01*
X79560596Y-67355554D01*
X79545050Y-67336612D01*
X79526114Y-67321071D01*
X79405664Y-67240589D01*
X79259411Y-67094336D01*
X79144502Y-66922362D01*
X79065350Y-66731274D01*
X79025000Y-66528416D01*
X79025000Y-66321584D01*
X79065350Y-66118726D01*
X79144502Y-65927638D01*
X79259411Y-65755664D01*
X79405664Y-65609411D01*
X79526114Y-65528929D01*
X79545050Y-65513388D01*
X79560596Y-65494446D01*
X79572147Y-65472836D01*
X79579260Y-65449386D01*
X79581662Y-65425000D01*
X79579260Y-65400614D01*
X79572147Y-65377165D01*
X79560596Y-65355554D01*
X79545050Y-65336612D01*
X79526114Y-65321071D01*
X79405664Y-65240589D01*
X79259411Y-65094336D01*
X79144502Y-64922362D01*
X79065350Y-64731274D01*
X79025000Y-64528416D01*
X79025000Y-64321584D01*
X79065350Y-64118726D01*
X79144502Y-63927638D01*
X79259411Y-63755664D01*
X79326687Y-63688388D01*
X79342233Y-63669446D01*
X79353784Y-63647835D01*
X79360897Y-63624386D01*
X79363299Y-63600000D01*
X79360897Y-63575614D01*
X79353784Y-63552165D01*
X79342233Y-63530554D01*
X79326687Y-63511612D01*
X79307745Y-63496066D01*
X79286134Y-63484515D01*
X79262685Y-63477402D01*
X79238299Y-63475000D01*
X79025000Y-63475000D01*
X79025000Y-61375000D01*
X81125000Y-61375000D01*
X81125000Y-63475000D01*
X81125000Y-63475000D01*
G37*
G36*
X30200888Y-61379470D02*
X30381274Y-61415350D01*
X30572362Y-61494502D01*
X30744336Y-61609411D01*
X30890589Y-61755664D01*
X31005498Y-61927638D01*
X31084650Y-62118726D01*
X31125000Y-62321584D01*
X31125000Y-62528416D01*
X31084650Y-62731274D01*
X31005498Y-62922362D01*
X30890589Y-63094336D01*
X30744336Y-63240589D01*
X30623886Y-63321071D01*
X30604950Y-63336612D01*
X30589404Y-63355554D01*
X30577853Y-63377164D01*
X30570740Y-63400614D01*
X30568338Y-63425000D01*
X30570740Y-63449386D01*
X30577853Y-63472835D01*
X30589404Y-63494446D01*
X30604950Y-63513388D01*
X30623886Y-63528929D01*
X30744336Y-63609411D01*
X30890589Y-63755664D01*
X31005498Y-63927638D01*
X31084650Y-64118726D01*
X31125000Y-64321584D01*
X31125000Y-64528416D01*
X31084650Y-64731274D01*
X31005498Y-64922362D01*
X30890589Y-65094336D01*
X30744336Y-65240589D01*
X30623886Y-65321071D01*
X30604950Y-65336612D01*
X30589404Y-65355554D01*
X30577853Y-65377164D01*
X30570740Y-65400614D01*
X30568338Y-65425000D01*
X30570740Y-65449386D01*
X30577853Y-65472835D01*
X30589404Y-65494446D01*
X30604950Y-65513388D01*
X30623886Y-65528929D01*
X30744336Y-65609411D01*
X30890589Y-65755664D01*
X31005498Y-65927638D01*
X31084650Y-66118726D01*
X31125000Y-66321584D01*
X31125000Y-66528416D01*
X31084650Y-66731274D01*
X31005498Y-66922362D01*
X30890589Y-67094336D01*
X30744336Y-67240589D01*
X30623886Y-67321071D01*
X30604950Y-67336612D01*
X30589404Y-67355554D01*
X30577853Y-67377164D01*
X30570740Y-67400614D01*
X30568338Y-67425000D01*
X30570740Y-67449386D01*
X30577853Y-67472835D01*
X30589404Y-67494446D01*
X30604950Y-67513388D01*
X30623886Y-67528929D01*
X30744336Y-67609411D01*
X30890589Y-67755664D01*
X31005498Y-67927638D01*
X31084650Y-68118726D01*
X31125000Y-68321584D01*
X31125000Y-68528416D01*
X31084650Y-68731274D01*
X31005498Y-68922362D01*
X30890589Y-69094336D01*
X30823313Y-69161612D01*
X30807767Y-69180554D01*
X30796216Y-69202165D01*
X30789103Y-69225614D01*
X30786701Y-69250000D01*
X30789103Y-69274386D01*
X30796216Y-69297835D01*
X30807767Y-69319446D01*
X30823313Y-69338388D01*
X30842255Y-69353934D01*
X30863866Y-69365485D01*
X30887315Y-69372598D01*
X30911701Y-69375000D01*
X31125000Y-69375000D01*
X31125000Y-71475000D01*
X29025000Y-71475000D01*
X29025000Y-69375000D01*
X29238299Y-69375000D01*
X29262685Y-69372598D01*
X29286134Y-69365485D01*
X29307745Y-69353934D01*
X29326687Y-69338388D01*
X29342233Y-69319446D01*
X29353784Y-69297835D01*
X29360897Y-69274386D01*
X29363299Y-69250000D01*
X29360897Y-69225614D01*
X29353784Y-69202165D01*
X29342233Y-69180554D01*
X29326687Y-69161612D01*
X29259411Y-69094336D01*
X29144502Y-68922362D01*
X29065350Y-68731274D01*
X29025000Y-68528416D01*
X29025000Y-68321584D01*
X29065350Y-68118726D01*
X29144502Y-67927638D01*
X29259411Y-67755664D01*
X29405664Y-67609411D01*
X29526114Y-67528929D01*
X29545050Y-67513388D01*
X29560596Y-67494446D01*
X29572147Y-67472836D01*
X29579260Y-67449386D01*
X29581662Y-67425000D01*
X29579260Y-67400614D01*
X29572147Y-67377165D01*
X29560596Y-67355554D01*
X29545050Y-67336612D01*
X29526114Y-67321071D01*
X29405664Y-67240589D01*
X29259411Y-67094336D01*
X29144502Y-66922362D01*
X29065350Y-66731274D01*
X29025000Y-66528416D01*
X29025000Y-66321584D01*
X29065350Y-66118726D01*
X29144502Y-65927638D01*
X29259411Y-65755664D01*
X29405664Y-65609411D01*
X29526114Y-65528929D01*
X29545050Y-65513388D01*
X29560596Y-65494446D01*
X29572147Y-65472836D01*
X29579260Y-65449386D01*
X29581662Y-65425000D01*
X29579260Y-65400614D01*
X29572147Y-65377165D01*
X29560596Y-65355554D01*
X29545050Y-65336612D01*
X29526114Y-65321071D01*
X29405664Y-65240589D01*
X29259411Y-65094336D01*
X29144502Y-64922362D01*
X29065350Y-64731274D01*
X29025000Y-64528416D01*
X29025000Y-64321584D01*
X29065350Y-64118726D01*
X29144502Y-63927638D01*
X29259411Y-63755664D01*
X29405664Y-63609411D01*
X29526114Y-63528929D01*
X29545050Y-63513388D01*
X29560596Y-63494446D01*
X29572147Y-63472836D01*
X29579260Y-63449386D01*
X29581662Y-63425000D01*
X29579260Y-63400614D01*
X29572147Y-63377165D01*
X29560596Y-63355554D01*
X29545050Y-63336612D01*
X29526114Y-63321071D01*
X29405664Y-63240589D01*
X29259411Y-63094336D01*
X29144502Y-62922362D01*
X29065350Y-62731274D01*
X29025000Y-62528416D01*
X29025000Y-62321584D01*
X29065350Y-62118726D01*
X29144502Y-61927638D01*
X29259411Y-61755664D01*
X29405664Y-61609411D01*
X29577638Y-61494502D01*
X29768726Y-61415350D01*
X29949112Y-61379470D01*
X29971583Y-61375000D01*
X30178417Y-61375000D01*
X30200888Y-61379470D01*
X30200888Y-61379470D01*
G37*
G36*
X65917732Y-62795154D02*
X65917734Y-62795155D01*
X65917735Y-62795155D01*
X65996725Y-62827874D01*
X66131572Y-62883729D01*
X66324022Y-63012320D01*
X66487680Y-63175978D01*
X66616271Y-63368428D01*
X66659518Y-63472836D01*
X66683426Y-63530554D01*
X66704846Y-63582268D01*
X66750000Y-63809271D01*
X66750000Y-64040729D01*
X66704846Y-64267732D01*
X66616271Y-64481572D01*
X66487680Y-64674022D01*
X66324022Y-64837680D01*
X66131570Y-64966272D01*
X65906462Y-65059515D01*
X65884851Y-65071066D01*
X65865909Y-65086612D01*
X65850363Y-65105554D01*
X65838812Y-65127165D01*
X65831699Y-65150614D01*
X65829297Y-65175000D01*
X65831699Y-65199386D01*
X65838812Y-65222835D01*
X65850363Y-65244446D01*
X65865909Y-65263388D01*
X65884851Y-65278934D01*
X65906462Y-65290485D01*
X66131570Y-65383728D01*
X66324022Y-65512320D01*
X66487680Y-65675978D01*
X66616271Y-65868428D01*
X66704846Y-66082268D01*
X66750000Y-66309271D01*
X66750000Y-66540727D01*
X66704846Y-66767732D01*
X66616271Y-66981572D01*
X66487680Y-67174022D01*
X66324022Y-67337680D01*
X66131570Y-67466272D01*
X65906462Y-67559515D01*
X65884851Y-67571066D01*
X65865909Y-67586612D01*
X65850363Y-67605554D01*
X65838812Y-67627165D01*
X65831699Y-67650614D01*
X65829297Y-67675000D01*
X65831699Y-67699386D01*
X65838812Y-67722835D01*
X65850363Y-67744446D01*
X65865909Y-67763388D01*
X65884851Y-67778934D01*
X65906462Y-67790485D01*
X66131570Y-67883728D01*
X66324022Y-68012320D01*
X66487680Y-68175978D01*
X66616271Y-68368428D01*
X66704846Y-68582268D01*
X66750000Y-68809271D01*
X66750000Y-69040729D01*
X66710246Y-69240586D01*
X66704845Y-69267735D01*
X66676315Y-69336612D01*
X66616271Y-69481572D01*
X66487680Y-69674022D01*
X66324022Y-69837680D01*
X66131572Y-69966271D01*
X65996725Y-70022126D01*
X65917735Y-70054845D01*
X65917734Y-70054845D01*
X65917732Y-70054846D01*
X65690729Y-70100000D01*
X65459271Y-70100000D01*
X65232268Y-70054846D01*
X65232266Y-70054845D01*
X65232265Y-70054845D01*
X65153275Y-70022126D01*
X65018428Y-69966271D01*
X64825978Y-69837680D01*
X64662320Y-69674022D01*
X64533729Y-69481572D01*
X64473685Y-69336612D01*
X64445155Y-69267735D01*
X64439755Y-69240586D01*
X64400000Y-69040729D01*
X64400000Y-68809271D01*
X64445154Y-68582268D01*
X64533729Y-68368428D01*
X64662320Y-68175978D01*
X64825978Y-68012320D01*
X65018430Y-67883728D01*
X65243538Y-67790485D01*
X65265149Y-67778934D01*
X65284091Y-67763388D01*
X65299637Y-67744446D01*
X65311188Y-67722835D01*
X65318301Y-67699386D01*
X65320703Y-67675000D01*
X65318301Y-67650614D01*
X65311188Y-67627165D01*
X65299637Y-67605554D01*
X65284091Y-67586612D01*
X65265149Y-67571066D01*
X65243538Y-67559515D01*
X65018430Y-67466272D01*
X64825978Y-67337680D01*
X64662320Y-67174022D01*
X64533729Y-66981572D01*
X64445154Y-66767732D01*
X64400000Y-66540727D01*
X64400000Y-66309271D01*
X64445154Y-66082268D01*
X64533729Y-65868428D01*
X64662320Y-65675978D01*
X64825978Y-65512320D01*
X65018430Y-65383728D01*
X65243538Y-65290485D01*
X65265149Y-65278934D01*
X65284091Y-65263388D01*
X65299637Y-65244446D01*
X65311188Y-65222835D01*
X65318301Y-65199386D01*
X65320703Y-65175000D01*
X65318301Y-65150614D01*
X65311188Y-65127165D01*
X65299637Y-65105554D01*
X65284091Y-65086612D01*
X65265149Y-65071066D01*
X65243538Y-65059515D01*
X65018430Y-64966272D01*
X64825978Y-64837680D01*
X64662320Y-64674022D01*
X64533729Y-64481572D01*
X64445154Y-64267732D01*
X64400000Y-64040729D01*
X64400000Y-63809271D01*
X64445154Y-63582268D01*
X64466575Y-63530554D01*
X64490482Y-63472836D01*
X64533729Y-63368428D01*
X64662320Y-63175978D01*
X64825978Y-63012320D01*
X65018428Y-62883729D01*
X65153275Y-62827874D01*
X65232265Y-62795155D01*
X65232266Y-62795155D01*
X65232268Y-62795154D01*
X65459271Y-62750000D01*
X65690729Y-62750000D01*
X65917732Y-62795154D01*
X65917732Y-62795154D01*
G37*
G36*
X44917732Y-62795154D02*
X44917734Y-62795155D01*
X44917735Y-62795155D01*
X44996725Y-62827874D01*
X45131572Y-62883729D01*
X45324022Y-63012320D01*
X45487680Y-63175978D01*
X45616271Y-63368428D01*
X45659518Y-63472836D01*
X45683426Y-63530554D01*
X45704846Y-63582268D01*
X45750000Y-63809271D01*
X45750000Y-64040729D01*
X45704846Y-64267732D01*
X45616271Y-64481572D01*
X45487680Y-64674022D01*
X45324022Y-64837680D01*
X45131570Y-64966272D01*
X44906462Y-65059515D01*
X44884851Y-65071066D01*
X44865909Y-65086612D01*
X44850363Y-65105554D01*
X44838812Y-65127165D01*
X44831699Y-65150614D01*
X44829297Y-65175000D01*
X44831699Y-65199386D01*
X44838812Y-65222835D01*
X44850363Y-65244446D01*
X44865909Y-65263388D01*
X44884851Y-65278934D01*
X44906462Y-65290485D01*
X45131570Y-65383728D01*
X45324022Y-65512320D01*
X45487680Y-65675978D01*
X45616271Y-65868428D01*
X45704846Y-66082268D01*
X45750000Y-66309271D01*
X45750000Y-66540727D01*
X45704846Y-66767732D01*
X45616271Y-66981572D01*
X45487680Y-67174022D01*
X45324022Y-67337680D01*
X45131570Y-67466272D01*
X44906462Y-67559515D01*
X44884851Y-67571066D01*
X44865909Y-67586612D01*
X44850363Y-67605554D01*
X44838812Y-67627165D01*
X44831699Y-67650614D01*
X44829297Y-67675000D01*
X44831699Y-67699386D01*
X44838812Y-67722835D01*
X44850363Y-67744446D01*
X44865909Y-67763388D01*
X44884851Y-67778934D01*
X44906462Y-67790485D01*
X45131570Y-67883728D01*
X45324022Y-68012320D01*
X45487680Y-68175978D01*
X45616271Y-68368428D01*
X45704846Y-68582268D01*
X45750000Y-68809271D01*
X45750000Y-69040729D01*
X45710246Y-69240586D01*
X45704845Y-69267735D01*
X45676315Y-69336612D01*
X45616271Y-69481572D01*
X45487680Y-69674022D01*
X45324022Y-69837680D01*
X45131572Y-69966271D01*
X44996725Y-70022126D01*
X44917735Y-70054845D01*
X44917734Y-70054845D01*
X44917732Y-70054846D01*
X44690729Y-70100000D01*
X44459271Y-70100000D01*
X44232268Y-70054846D01*
X44232266Y-70054845D01*
X44232265Y-70054845D01*
X44153275Y-70022126D01*
X44018428Y-69966271D01*
X43825978Y-69837680D01*
X43662320Y-69674022D01*
X43533729Y-69481572D01*
X43473685Y-69336612D01*
X43445155Y-69267735D01*
X43439755Y-69240586D01*
X43400000Y-69040729D01*
X43400000Y-68809271D01*
X43445154Y-68582268D01*
X43533729Y-68368428D01*
X43662320Y-68175978D01*
X43825978Y-68012320D01*
X44018430Y-67883728D01*
X44243538Y-67790485D01*
X44265149Y-67778934D01*
X44284091Y-67763388D01*
X44299637Y-67744446D01*
X44311188Y-67722835D01*
X44318301Y-67699386D01*
X44320703Y-67675000D01*
X44318301Y-67650614D01*
X44311188Y-67627165D01*
X44299637Y-67605554D01*
X44284091Y-67586612D01*
X44265149Y-67571066D01*
X44243538Y-67559515D01*
X44018430Y-67466272D01*
X43825978Y-67337680D01*
X43662320Y-67174022D01*
X43533729Y-66981572D01*
X43445154Y-66767732D01*
X43400000Y-66540727D01*
X43400000Y-66309271D01*
X43445154Y-66082268D01*
X43533729Y-65868428D01*
X43662320Y-65675978D01*
X43825978Y-65512320D01*
X44018430Y-65383728D01*
X44243538Y-65290485D01*
X44265149Y-65278934D01*
X44284091Y-65263388D01*
X44299637Y-65244446D01*
X44311188Y-65222835D01*
X44318301Y-65199386D01*
X44320703Y-65175000D01*
X44318301Y-65150614D01*
X44311188Y-65127165D01*
X44299637Y-65105554D01*
X44284091Y-65086612D01*
X44265149Y-65071066D01*
X44243538Y-65059515D01*
X44018430Y-64966272D01*
X43825978Y-64837680D01*
X43662320Y-64674022D01*
X43533729Y-64481572D01*
X43445154Y-64267732D01*
X43400000Y-64040729D01*
X43400000Y-63809271D01*
X43445154Y-63582268D01*
X43466575Y-63530554D01*
X43490482Y-63472836D01*
X43533729Y-63368428D01*
X43662320Y-63175978D01*
X43825978Y-63012320D01*
X44018428Y-62883729D01*
X44153275Y-62827874D01*
X44232265Y-62795155D01*
X44232266Y-62795155D01*
X44232268Y-62795154D01*
X44459271Y-62750000D01*
X44690729Y-62750000D01*
X44917732Y-62795154D01*
X44917732Y-62795154D01*
G37*
G36*
X37558824Y-58392653D02*
X37798389Y-58440305D01*
X38249721Y-58627252D01*
X38655908Y-58898658D01*
X39001342Y-59244092D01*
X39272748Y-59650279D01*
X39459695Y-60101611D01*
X39555000Y-60580741D01*
X39555000Y-61069259D01*
X39459695Y-61548389D01*
X39272748Y-61999721D01*
X39001342Y-62405908D01*
X38655908Y-62751342D01*
X38249721Y-63022748D01*
X37798389Y-63209695D01*
X37558824Y-63257348D01*
X37319260Y-63305000D01*
X36830740Y-63305000D01*
X36591176Y-63257348D01*
X36351611Y-63209695D01*
X35900279Y-63022748D01*
X35494092Y-62751342D01*
X35148658Y-62405908D01*
X34877252Y-61999721D01*
X34690305Y-61548389D01*
X34595000Y-61069259D01*
X34595000Y-60580741D01*
X34690305Y-60101611D01*
X34877252Y-59650279D01*
X35148658Y-59244092D01*
X35494092Y-58898658D01*
X35900279Y-58627252D01*
X36351611Y-58440305D01*
X36591176Y-58392653D01*
X36830740Y-58345000D01*
X37319260Y-58345000D01*
X37558824Y-58392653D01*
X37558824Y-58392653D01*
G37*
G36*
X73558824Y-58392653D02*
X73798389Y-58440305D01*
X74249721Y-58627252D01*
X74655908Y-58898658D01*
X75001342Y-59244092D01*
X75272748Y-59650279D01*
X75459695Y-60101611D01*
X75555000Y-60580741D01*
X75555000Y-61069259D01*
X75459695Y-61548389D01*
X75272748Y-61999721D01*
X75001342Y-62405908D01*
X74655908Y-62751342D01*
X74249721Y-63022748D01*
X73798389Y-63209695D01*
X73558824Y-63257348D01*
X73319260Y-63305000D01*
X72830740Y-63305000D01*
X72591176Y-63257348D01*
X72351611Y-63209695D01*
X71900279Y-63022748D01*
X71494092Y-62751342D01*
X71148658Y-62405908D01*
X70877252Y-61999721D01*
X70690305Y-61548389D01*
X70595000Y-61069259D01*
X70595000Y-60580741D01*
X70690305Y-60101611D01*
X70877252Y-59650279D01*
X71148658Y-59244092D01*
X71494092Y-58898658D01*
X71900279Y-58627252D01*
X72351611Y-58440305D01*
X72591176Y-58392653D01*
X72830740Y-58345000D01*
X73319260Y-58345000D01*
X73558824Y-58392653D01*
X73558824Y-58392653D01*
G37*
G36*
X33604013Y-54883131D02*
X33604015Y-54883132D01*
X33604016Y-54883132D01*
X33699560Y-54922707D01*
X33785161Y-54979904D01*
X33785550Y-54980164D01*
X33858671Y-55053285D01*
X33858673Y-55053288D01*
X33916128Y-55139275D01*
X33955703Y-55234819D01*
X33975879Y-55336248D01*
X33975879Y-55439664D01*
X33955703Y-55541093D01*
X33916128Y-55636637D01*
X33858931Y-55722238D01*
X33858671Y-55722627D01*
X33785550Y-55795748D01*
X33785547Y-55795750D01*
X33699560Y-55853205D01*
X33604016Y-55892780D01*
X33604015Y-55892780D01*
X33604013Y-55892781D01*
X33502588Y-55912956D01*
X33399170Y-55912956D01*
X33297742Y-55892781D01*
X33258878Y-55876682D01*
X33239154Y-55868513D01*
X33215710Y-55861400D01*
X33191324Y-55858998D01*
X33166937Y-55861400D01*
X33143488Y-55868512D01*
X33121877Y-55880063D01*
X33102935Y-55895609D01*
X33087389Y-55914550D01*
X33075838Y-55936161D01*
X33068724Y-55959610D01*
X33066322Y-55983996D01*
X33068724Y-56008383D01*
X33075836Y-56031832D01*
X33087387Y-56053443D01*
X33102934Y-56072386D01*
X33722684Y-56692136D01*
X33788237Y-56772013D01*
X33853237Y-56893619D01*
X33893263Y-57025570D01*
X33906779Y-57162794D01*
X33893263Y-57300018D01*
X33853237Y-57431968D01*
X33788237Y-57553575D01*
X33700761Y-57660163D01*
X33594173Y-57747639D01*
X33472566Y-57812639D01*
X33340616Y-57852665D01*
X33203392Y-57866181D01*
X33066168Y-57852665D01*
X32934217Y-57812639D01*
X32812611Y-57747639D01*
X32732734Y-57682086D01*
X31906282Y-56855633D01*
X31840729Y-56775757D01*
X31775729Y-56654150D01*
X31746674Y-56558368D01*
X31735703Y-56522201D01*
X31734491Y-56509897D01*
X31722187Y-56384976D01*
X31735703Y-56247753D01*
X31735703Y-56247751D01*
X31746674Y-56211584D01*
X31775729Y-56115802D01*
X31840729Y-55994195D01*
X31928205Y-55887607D01*
X32034793Y-55800131D01*
X32156400Y-55735131D01*
X32252182Y-55706076D01*
X32288349Y-55695105D01*
X32300653Y-55693893D01*
X32425574Y-55681589D01*
X32550495Y-55693893D01*
X32562799Y-55695105D01*
X32598966Y-55706076D01*
X32694748Y-55735131D01*
X32812662Y-55798157D01*
X32835284Y-55807528D01*
X32859318Y-55812308D01*
X32883822Y-55812308D01*
X32907856Y-55807528D01*
X32930495Y-55798150D01*
X32950869Y-55784536D01*
X32968196Y-55767209D01*
X32981810Y-55746835D01*
X32991188Y-55724196D01*
X32995968Y-55700162D01*
X32995968Y-55675658D01*
X32991188Y-55651624D01*
X32987055Y-55640074D01*
X32985634Y-55636642D01*
X32985630Y-55636637D01*
X32946055Y-55541093D01*
X32925879Y-55439664D01*
X32925879Y-55336248D01*
X32946055Y-55234819D01*
X32985630Y-55139275D01*
X33043085Y-55053288D01*
X33043087Y-55053285D01*
X33116208Y-54980164D01*
X33116597Y-54979904D01*
X33202198Y-54922707D01*
X33297742Y-54883132D01*
X33297743Y-54883132D01*
X33297745Y-54883131D01*
X33399170Y-54862956D01*
X33502588Y-54862956D01*
X33604013Y-54883131D01*
X33604013Y-54883131D01*
G37*
G36*
X29771565Y-52914964D02*
X29783869Y-52916176D01*
X29820036Y-52927147D01*
X29915818Y-52956202D01*
X30037425Y-53021202D01*
X30117301Y-53086755D01*
X30590200Y-53559654D01*
X30655753Y-53639529D01*
X30720753Y-53761136D01*
X30760779Y-53893087D01*
X30774295Y-54030311D01*
X30760779Y-54167535D01*
X30720753Y-54299485D01*
X30655753Y-54421092D01*
X30568277Y-54527680D01*
X30461689Y-54615156D01*
X30340082Y-54680156D01*
X30229088Y-54713825D01*
X30208133Y-54720182D01*
X30201692Y-54720816D01*
X30070908Y-54733698D01*
X29940124Y-54720816D01*
X29933683Y-54720182D01*
X29912728Y-54713825D01*
X29801733Y-54680156D01*
X29680126Y-54615156D01*
X29600251Y-54549603D01*
X29127352Y-54076704D01*
X29061799Y-53996828D01*
X28996799Y-53875221D01*
X28962192Y-53761136D01*
X28956773Y-53743272D01*
X28955561Y-53730968D01*
X28943257Y-53606047D01*
X28956773Y-53468824D01*
X28956773Y-53468822D01*
X28967744Y-53432655D01*
X28996799Y-53336873D01*
X29061799Y-53215266D01*
X29149275Y-53108678D01*
X29255863Y-53021202D01*
X29377470Y-52956202D01*
X29473252Y-52927147D01*
X29509419Y-52916176D01*
X29521723Y-52914964D01*
X29646644Y-52902660D01*
X29771565Y-52914964D01*
X29771565Y-52914964D01*
G37*
G36*
X54675000Y-52025000D02*
X52475000Y-52025000D01*
X52475000Y-49825000D01*
X54675000Y-49825000D01*
X54675000Y-52025000D01*
X54675000Y-52025000D01*
G37*
G36*
X56435857Y-49867272D02*
X56636042Y-49950191D01*
X56636045Y-49950193D01*
X56720168Y-50006402D01*
X56816213Y-50070578D01*
X56969422Y-50223787D01*
X57089809Y-50403958D01*
X57172728Y-50604143D01*
X57215000Y-50816658D01*
X57215000Y-51033342D01*
X57172728Y-51245857D01*
X57089809Y-51446042D01*
X57089807Y-51446045D01*
X57005195Y-51572676D01*
X56969422Y-51626213D01*
X56816213Y-51779422D01*
X56816210Y-51779424D01*
X56816209Y-51779425D01*
X56746686Y-51825879D01*
X56636042Y-51899809D01*
X56435857Y-51982728D01*
X56223342Y-52025000D01*
X56006658Y-52025000D01*
X55794143Y-51982728D01*
X55593958Y-51899809D01*
X55483314Y-51825879D01*
X55413791Y-51779425D01*
X55413790Y-51779424D01*
X55413787Y-51779422D01*
X55260578Y-51626213D01*
X55224806Y-51572676D01*
X55140193Y-51446045D01*
X55140191Y-51446042D01*
X55057272Y-51245857D01*
X55015000Y-51033342D01*
X55015000Y-50816658D01*
X55057272Y-50604143D01*
X55140191Y-50403958D01*
X55260578Y-50223787D01*
X55413787Y-50070578D01*
X55509833Y-50006402D01*
X55593955Y-49950193D01*
X55593958Y-49950191D01*
X55794143Y-49867272D01*
X56006658Y-49825000D01*
X56223342Y-49825000D01*
X56435857Y-49867272D01*
X56435857Y-49867272D01*
G37*
G36*
X38659897Y-49584491D02*
X38672201Y-49585703D01*
X38708368Y-49596674D01*
X38804150Y-49625729D01*
X38925757Y-49690729D01*
X39005633Y-49756282D01*
X39832086Y-50582734D01*
X39897639Y-50662611D01*
X39962639Y-50784217D01*
X40002665Y-50916168D01*
X40016181Y-51053392D01*
X40002665Y-51190616D01*
X39962639Y-51322566D01*
X39897639Y-51444173D01*
X39810163Y-51550761D01*
X39703575Y-51638237D01*
X39581968Y-51703237D01*
X39450018Y-51743263D01*
X39312794Y-51756779D01*
X39175570Y-51743263D01*
X39043619Y-51703237D01*
X38922013Y-51638237D01*
X38842136Y-51572684D01*
X38222386Y-50952934D01*
X38203444Y-50937388D01*
X38181833Y-50925837D01*
X38158384Y-50918724D01*
X38133998Y-50916322D01*
X38109612Y-50918724D01*
X38086163Y-50925837D01*
X38064552Y-50937388D01*
X38045610Y-50952934D01*
X38030064Y-50971876D01*
X38018513Y-50993487D01*
X38011400Y-51016936D01*
X38008998Y-51041322D01*
X38011400Y-51065708D01*
X38018513Y-51089154D01*
X38026682Y-51108878D01*
X38042781Y-51147742D01*
X38062956Y-51249170D01*
X38062956Y-51352588D01*
X38044367Y-51446042D01*
X38042780Y-51454016D01*
X38003205Y-51549560D01*
X37951989Y-51626209D01*
X37945748Y-51635550D01*
X37872627Y-51708671D01*
X37872624Y-51708673D01*
X37786637Y-51766128D01*
X37691093Y-51805703D01*
X37691092Y-51805703D01*
X37691090Y-51805704D01*
X37589665Y-51825879D01*
X37486247Y-51825879D01*
X37384822Y-51805704D01*
X37384820Y-51805703D01*
X37384819Y-51805703D01*
X37289275Y-51766128D01*
X37203288Y-51708673D01*
X37203285Y-51708671D01*
X37130164Y-51635550D01*
X37123923Y-51626209D01*
X37072707Y-51549560D01*
X37033132Y-51454016D01*
X37031546Y-51446042D01*
X37012956Y-51352588D01*
X37012956Y-51249170D01*
X37033131Y-51147745D01*
X37033132Y-51147742D01*
X37072707Y-51052198D01*
X37130162Y-50966211D01*
X37130164Y-50966208D01*
X37203285Y-50893087D01*
X37203674Y-50892827D01*
X37289275Y-50835630D01*
X37384819Y-50796055D01*
X37384820Y-50796055D01*
X37384822Y-50796054D01*
X37486247Y-50775879D01*
X37589665Y-50775879D01*
X37691090Y-50796054D01*
X37691092Y-50796055D01*
X37691093Y-50796055D01*
X37786637Y-50835630D01*
X37786642Y-50835634D01*
X37790074Y-50837055D01*
X37813523Y-50844168D01*
X37837909Y-50846570D01*
X37862295Y-50844168D01*
X37885744Y-50837055D01*
X37907355Y-50825504D01*
X37926298Y-50809959D01*
X37941843Y-50791017D01*
X37953395Y-50769406D01*
X37960508Y-50745957D01*
X37962910Y-50721571D01*
X37960508Y-50697185D01*
X37953395Y-50673736D01*
X37948166Y-50662678D01*
X37885131Y-50544748D01*
X37856076Y-50448966D01*
X37845105Y-50412799D01*
X37843893Y-50400495D01*
X37831589Y-50275574D01*
X37845105Y-50138351D01*
X37845105Y-50138349D01*
X37856076Y-50102182D01*
X37885131Y-50006400D01*
X37950131Y-49884793D01*
X38037607Y-49778205D01*
X38144195Y-49690729D01*
X38265802Y-49625729D01*
X38361584Y-49596674D01*
X38397751Y-49585703D01*
X38410055Y-49584491D01*
X38534976Y-49572187D01*
X38659897Y-49584491D01*
X38659897Y-49584491D01*
G37*
G36*
X35880968Y-46805561D02*
X35893272Y-46806773D01*
X35929439Y-46817744D01*
X36025221Y-46846799D01*
X36146828Y-46911799D01*
X36226704Y-46977352D01*
X36699603Y-47450251D01*
X36765156Y-47530126D01*
X36830156Y-47651733D01*
X36870182Y-47783684D01*
X36883698Y-47920908D01*
X36870182Y-48058132D01*
X36830156Y-48190082D01*
X36765156Y-48311689D01*
X36677680Y-48418277D01*
X36571092Y-48505753D01*
X36449485Y-48570753D01*
X36338491Y-48604422D01*
X36317536Y-48610779D01*
X36311095Y-48611413D01*
X36180311Y-48624295D01*
X36049527Y-48611413D01*
X36043086Y-48610779D01*
X36022131Y-48604422D01*
X35911136Y-48570753D01*
X35789529Y-48505753D01*
X35709654Y-48440200D01*
X35236755Y-47967301D01*
X35171202Y-47887425D01*
X35106202Y-47765818D01*
X35071595Y-47651733D01*
X35066176Y-47633869D01*
X35064964Y-47621565D01*
X35052660Y-47496644D01*
X35066176Y-47359421D01*
X35066176Y-47359419D01*
X35077147Y-47323252D01*
X35106202Y-47227470D01*
X35171202Y-47105863D01*
X35258678Y-46999275D01*
X35365266Y-46911799D01*
X35486873Y-46846799D01*
X35582655Y-46817744D01*
X35618822Y-46806773D01*
X35631126Y-46805561D01*
X35756047Y-46793257D01*
X35880968Y-46805561D01*
X35880968Y-46805561D01*
G37*
M02*
