G04 #@! TF.GenerationSoftware,KiCad,Pcbnew,5.0.2-bee76a0~70~ubuntu18.04.1*
G04 #@! TF.CreationDate,2019-12-18T01:53:03+09:00*
G04 #@! TF.ProjectId,ts9,7473392e-6b69-4636-9164-5f7063625858,rev?*
G04 #@! TF.SameCoordinates,Original*
G04 #@! TF.FileFunction,Legend,Bot*
G04 #@! TF.FilePolarity,Positive*
%FSLAX46Y46*%
G04 Gerber Fmt 4.6, Leading zero omitted, Abs format (unit mm)*
G04 Created by KiCad (PCBNEW 5.0.2-bee76a0~70~ubuntu18.04.1) date 2019年12月18日 01時53分03秒*
%MOMM*%
%LPD*%
G01*
G04 APERTURE LIST*
%ADD10C,0.300000*%
%ADD11C,0.120000*%
%ADD12C,0.150000*%
%ADD13C,0.200000*%
%ADD14C,0.254000*%
%ADD15C,4.960000*%
%ADD16C,2.350000*%
%ADD17C,2.100000*%
%ADD18R,2.100000X2.100000*%
%ADD19R,1.600000X1.800000*%
%ADD20R,1.200000X1.150000*%
%ADD21C,0.950000*%
%ADD22C,0.100000*%
%ADD23C,1.525000*%
%ADD24R,1.150000X1.200000*%
%ADD25R,0.850000X2.100000*%
%ADD26R,1.100000X1.700000*%
%ADD27R,1.900000X1.300000*%
%ADD28C,3.829000*%
%ADD29C,2.432000*%
%ADD30C,1.390600*%
%ADD31C,2.101800*%
%ADD32C,2.200000*%
%ADD33R,2.200000X2.200000*%
%ADD34R,1.600000X1.300000*%
%ADD35R,2.430000X1.540000*%
%ADD36R,1.700000X1.100000*%
%ADD37R,1.000000X1.100000*%
%ADD38R,1.400000X1.100000*%
%ADD39C,1.400000*%
%ADD40C,1.400000*%
%ADD41C,1.050000*%
%ADD42C,0.700000*%
%ADD43C,1.000000*%
%ADD44O,2.900000X2.100000*%
%ADD45C,1.600000*%
%ADD46C,2.400000*%
%ADD47R,1.300000X1.600000*%
G04 APERTURE END LIST*
D10*
X46575000Y-78828571D02*
X46575000Y-77328571D01*
X46217857Y-77328571D01*
X46003571Y-77400000D01*
X45860714Y-77542857D01*
X45789285Y-77685714D01*
X45717857Y-77971428D01*
X45717857Y-78185714D01*
X45789285Y-78471428D01*
X45860714Y-78614285D01*
X46003571Y-78757142D01*
X46217857Y-78828571D01*
X46575000Y-78828571D01*
X44503571Y-78757142D02*
X44646428Y-78828571D01*
X44932142Y-78828571D01*
X45075000Y-78757142D01*
X45146428Y-78614285D01*
X45146428Y-78042857D01*
X45075000Y-77900000D01*
X44932142Y-77828571D01*
X44646428Y-77828571D01*
X44503571Y-77900000D01*
X44432142Y-78042857D01*
X44432142Y-78185714D01*
X45146428Y-78328571D01*
X43860714Y-78757142D02*
X43717857Y-78828571D01*
X43432142Y-78828571D01*
X43289285Y-78757142D01*
X43217857Y-78614285D01*
X43217857Y-78542857D01*
X43289285Y-78400000D01*
X43432142Y-78328571D01*
X43646428Y-78328571D01*
X43789285Y-78257142D01*
X43860714Y-78114285D01*
X43860714Y-78042857D01*
X43789285Y-77900000D01*
X43646428Y-77828571D01*
X43432142Y-77828571D01*
X43289285Y-77900000D01*
X42575000Y-78828571D02*
X42575000Y-77828571D01*
X42575000Y-77328571D02*
X42646428Y-77400000D01*
X42575000Y-77471428D01*
X42503571Y-77400000D01*
X42575000Y-77328571D01*
X42575000Y-77471428D01*
X41217857Y-77828571D02*
X41217857Y-79042857D01*
X41289285Y-79185714D01*
X41360714Y-79257142D01*
X41503571Y-79328571D01*
X41717857Y-79328571D01*
X41860714Y-79257142D01*
X41217857Y-78757142D02*
X41360714Y-78828571D01*
X41646428Y-78828571D01*
X41789285Y-78757142D01*
X41860714Y-78685714D01*
X41932142Y-78542857D01*
X41932142Y-78114285D01*
X41860714Y-77971428D01*
X41789285Y-77900000D01*
X41646428Y-77828571D01*
X41360714Y-77828571D01*
X41217857Y-77900000D01*
X40503571Y-77828571D02*
X40503571Y-78828571D01*
X40503571Y-77971428D02*
X40432142Y-77900000D01*
X40289285Y-77828571D01*
X40075000Y-77828571D01*
X39932142Y-77900000D01*
X39860714Y-78042857D01*
X39860714Y-78828571D01*
X38575000Y-78757142D02*
X38717857Y-78828571D01*
X39003571Y-78828571D01*
X39146428Y-78757142D01*
X39217857Y-78614285D01*
X39217857Y-78042857D01*
X39146428Y-77900000D01*
X39003571Y-77828571D01*
X38717857Y-77828571D01*
X38575000Y-77900000D01*
X38503571Y-78042857D01*
X38503571Y-78185714D01*
X39217857Y-78328571D01*
X37217857Y-78828571D02*
X37217857Y-77328571D01*
X37217857Y-78757142D02*
X37360714Y-78828571D01*
X37646428Y-78828571D01*
X37789285Y-78757142D01*
X37860714Y-78685714D01*
X37932142Y-78542857D01*
X37932142Y-78114285D01*
X37860714Y-77971428D01*
X37789285Y-77900000D01*
X37646428Y-77828571D01*
X37360714Y-77828571D01*
X37217857Y-77900000D01*
X35360714Y-78828571D02*
X35360714Y-77328571D01*
X35360714Y-77900000D02*
X35217857Y-77828571D01*
X34932142Y-77828571D01*
X34789285Y-77900000D01*
X34717857Y-77971428D01*
X34646428Y-78114285D01*
X34646428Y-78542857D01*
X34717857Y-78685714D01*
X34789285Y-78757142D01*
X34932142Y-78828571D01*
X35217857Y-78828571D01*
X35360714Y-78757142D01*
X34146428Y-77828571D02*
X33789285Y-78828571D01*
X33432142Y-77828571D02*
X33789285Y-78828571D01*
X33932142Y-79185714D01*
X34003571Y-79257142D01*
X34146428Y-79328571D01*
X44789285Y-80664285D02*
X44860714Y-80592857D01*
X45003571Y-80521428D01*
X45146428Y-80521428D01*
X45289285Y-80592857D01*
X45360714Y-80664285D01*
X45432142Y-80807142D01*
X45432142Y-80950000D01*
X45360714Y-81092857D01*
X45289285Y-81164285D01*
X45146428Y-81235714D01*
X45003571Y-81235714D01*
X44860714Y-81164285D01*
X44789285Y-81092857D01*
X44789285Y-80521428D02*
X44789285Y-81092857D01*
X44717857Y-81164285D01*
X44646428Y-81164285D01*
X44503571Y-81092857D01*
X44432142Y-80950000D01*
X44432142Y-80592857D01*
X44575000Y-80378571D01*
X44789285Y-80235714D01*
X45075000Y-80164285D01*
X45360714Y-80235714D01*
X45575000Y-80378571D01*
X45717857Y-80592857D01*
X45789285Y-80878571D01*
X45717857Y-81164285D01*
X45575000Y-81378571D01*
X45360714Y-81521428D01*
X45075000Y-81592857D01*
X44789285Y-81521428D01*
X44575000Y-81378571D01*
X43860714Y-81307142D02*
X43717857Y-81378571D01*
X43432142Y-81378571D01*
X43289285Y-81307142D01*
X43217857Y-81164285D01*
X43217857Y-81092857D01*
X43289285Y-80950000D01*
X43432142Y-80878571D01*
X43646428Y-80878571D01*
X43789285Y-80807142D01*
X43860714Y-80664285D01*
X43860714Y-80592857D01*
X43789285Y-80450000D01*
X43646428Y-80378571D01*
X43432142Y-80378571D01*
X43289285Y-80450000D01*
X42717857Y-80378571D02*
X42432142Y-81378571D01*
X42146428Y-80664285D01*
X41860714Y-81378571D01*
X41575000Y-80378571D01*
X40360714Y-81378571D02*
X40360714Y-80592857D01*
X40432142Y-80450000D01*
X40575000Y-80378571D01*
X40860714Y-80378571D01*
X41003571Y-80450000D01*
X40360714Y-81307142D02*
X40503571Y-81378571D01*
X40860714Y-81378571D01*
X41003571Y-81307142D01*
X41075000Y-81164285D01*
X41075000Y-81021428D01*
X41003571Y-80878571D01*
X40860714Y-80807142D01*
X40503571Y-80807142D01*
X40360714Y-80735714D01*
X39646428Y-80378571D02*
X39646428Y-81378571D01*
X39646428Y-80521428D02*
X39575000Y-80450000D01*
X39432142Y-80378571D01*
X39217857Y-80378571D01*
X39075000Y-80450000D01*
X39003571Y-80592857D01*
X39003571Y-81378571D01*
X38646428Y-81521428D02*
X37503571Y-81521428D01*
X37146428Y-81378571D02*
X37146428Y-80378571D01*
X37146428Y-80521428D02*
X37075000Y-80450000D01*
X36932142Y-80378571D01*
X36717857Y-80378571D01*
X36575000Y-80450000D01*
X36503571Y-80592857D01*
X36503571Y-81378571D01*
X36503571Y-80592857D02*
X36432142Y-80450000D01*
X36289285Y-80378571D01*
X36075000Y-80378571D01*
X35932142Y-80450000D01*
X35860714Y-80592857D01*
X35860714Y-81378571D01*
X34503571Y-81378571D02*
X34503571Y-80592857D01*
X34575000Y-80450000D01*
X34717857Y-80378571D01*
X35003571Y-80378571D01*
X35146428Y-80450000D01*
X34503571Y-81307142D02*
X34646428Y-81378571D01*
X35003571Y-81378571D01*
X35146428Y-81307142D01*
X35217857Y-81164285D01*
X35217857Y-81021428D01*
X35146428Y-80878571D01*
X35003571Y-80807142D01*
X34646428Y-80807142D01*
X34503571Y-80735714D01*
X34003571Y-80378571D02*
X33432142Y-80378571D01*
X33789285Y-79878571D02*
X33789285Y-81164285D01*
X33717857Y-81307142D01*
X33575000Y-81378571D01*
X33432142Y-81378571D01*
X32289285Y-81307142D02*
X32432142Y-81378571D01*
X32717857Y-81378571D01*
X32860714Y-81307142D01*
X32932142Y-81235714D01*
X33003571Y-81092857D01*
X33003571Y-80664285D01*
X32932142Y-80521428D01*
X32860714Y-80450000D01*
X32717857Y-80378571D01*
X32432142Y-80378571D01*
X32289285Y-80450000D01*
X31646428Y-81378571D02*
X31646428Y-79878571D01*
X31003571Y-81378571D02*
X31003571Y-80592857D01*
X31075000Y-80450000D01*
X31217857Y-80378571D01*
X31432142Y-80378571D01*
X31575000Y-80450000D01*
X31646428Y-80521428D01*
D11*
G04 #@! TO.C,Y1*
X61756900Y-59855100D02*
X61756900Y-55855100D01*
X65056900Y-59855100D02*
X61756900Y-59855100D01*
G04 #@! TO.C,C2*
X63056900Y-55280100D02*
X63756900Y-55280100D01*
X63756900Y-54080100D02*
X63056900Y-54080100D01*
G04 #@! TO.C,C1*
X63056900Y-61630100D02*
X63756900Y-61630100D01*
X63756900Y-60430100D02*
X63056900Y-60430100D01*
D12*
G04 #@! TO.C,U1*
X47756445Y-65925000D02*
X48163031Y-65518414D01*
X55075000Y-73243555D02*
X55552297Y-72766258D01*
X62393555Y-65925000D02*
X61916258Y-66402297D01*
X55075000Y-58606445D02*
X54597703Y-59083742D01*
X47756445Y-65925000D02*
X48233742Y-66402297D01*
X55075000Y-58606445D02*
X55552297Y-59083742D01*
X62393555Y-65925000D02*
X61916258Y-65447703D01*
X55075000Y-73243555D02*
X54597703Y-72766258D01*
X48163031Y-65518414D02*
X47261470Y-64616852D01*
D11*
G04 #@! TO.C,C5*
X62475000Y-71075000D02*
X62475000Y-71775000D01*
X63675000Y-71775000D02*
X63675000Y-71075000D01*
D13*
G04 #@! TO.C,U3*
X79395000Y-83580000D02*
X79395000Y-78980000D01*
X79395000Y-78980000D02*
X69195000Y-78980000D01*
X69195000Y-78980000D02*
X69195000Y-83580000D01*
X69195000Y-83580000D02*
X79395000Y-83580000D01*
X79095000Y-85630000D02*
X79095000Y-83930000D01*
D11*
G04 #@! TO.C,C9*
X66225000Y-77525000D02*
X66925000Y-77525000D01*
X66925000Y-76325000D02*
X66225000Y-76325000D01*
G04 #@! TO.C,R7*
X65975000Y-84805000D02*
X67175000Y-84805000D01*
X67175000Y-83045000D02*
X65975000Y-83045000D01*
G04 #@! TO.C,R8*
X67175000Y-87045000D02*
X65975000Y-87045000D01*
X65975000Y-88805000D02*
X67175000Y-88805000D01*
G04 #@! TO.C,D3*
X40313500Y-97210500D02*
G75*
G03X40313500Y-97210500I-190500J0D01*
G01*
G04 #@! TO.C,D4*
X58313500Y-97210500D02*
G75*
G03X58313500Y-97210500I-190500J0D01*
G01*
G04 #@! TO.C,D2*
X76313500Y-97210500D02*
G75*
G03X76313500Y-97210500I-190500J0D01*
G01*
G04 #@! TO.C,D12*
X40313500Y-114210500D02*
G75*
G03X40313500Y-114210500I-190500J0D01*
G01*
G04 #@! TO.C,D13*
X58313500Y-114210500D02*
G75*
G03X58313500Y-114210500I-190500J0D01*
G01*
G04 #@! TO.C,D11*
X76313500Y-114210500D02*
G75*
G03X76313500Y-114210500I-190500J0D01*
G01*
G04 #@! TO.C,D19*
X40313500Y-131210500D02*
G75*
G03X40313500Y-131210500I-190500J0D01*
G01*
G04 #@! TO.C,D20*
X58313500Y-131248500D02*
G75*
G03X58313500Y-131248500I-190500J0D01*
G01*
G04 #@! TO.C,D18*
X76313500Y-131210500D02*
G75*
G03X76313500Y-131210500I-190500J0D01*
G01*
D12*
G04 #@! TO.C,SW1*
X30075000Y-97425000D02*
X30075000Y-96425000D01*
X30075000Y-96425000D02*
X31075000Y-96425000D01*
X31075000Y-110425000D02*
X30075000Y-110425000D01*
X30075000Y-110425000D02*
X30075000Y-109425000D01*
X44075000Y-109425000D02*
X44075000Y-110425000D01*
X44075000Y-110425000D02*
X43075000Y-110425000D01*
X43075000Y-96425000D02*
X44075000Y-96425000D01*
X44075000Y-96425000D02*
X44075000Y-97425000D01*
G04 #@! TO.C,SW2*
X48075000Y-97425000D02*
X48075000Y-96425000D01*
X48075000Y-96425000D02*
X49075000Y-96425000D01*
X49075000Y-110425000D02*
X48075000Y-110425000D01*
X48075000Y-110425000D02*
X48075000Y-109425000D01*
X62075000Y-109425000D02*
X62075000Y-110425000D01*
X62075000Y-110425000D02*
X61075000Y-110425000D01*
X61075000Y-96425000D02*
X62075000Y-96425000D01*
X62075000Y-96425000D02*
X62075000Y-97425000D01*
G04 #@! TO.C,SW3*
X66075000Y-97425000D02*
X66075000Y-96425000D01*
X66075000Y-96425000D02*
X67075000Y-96425000D01*
X67075000Y-110425000D02*
X66075000Y-110425000D01*
X66075000Y-110425000D02*
X66075000Y-109425000D01*
X80075000Y-109425000D02*
X80075000Y-110425000D01*
X80075000Y-110425000D02*
X79075000Y-110425000D01*
X79075000Y-96425000D02*
X80075000Y-96425000D01*
X80075000Y-96425000D02*
X80075000Y-97425000D01*
G04 #@! TO.C,SW4*
X30075000Y-114425000D02*
X30075000Y-113425000D01*
X30075000Y-113425000D02*
X31075000Y-113425000D01*
X31075000Y-127425000D02*
X30075000Y-127425000D01*
X30075000Y-127425000D02*
X30075000Y-126425000D01*
X44075000Y-126425000D02*
X44075000Y-127425000D01*
X44075000Y-127425000D02*
X43075000Y-127425000D01*
X43075000Y-113425000D02*
X44075000Y-113425000D01*
X44075000Y-113425000D02*
X44075000Y-114425000D01*
G04 #@! TO.C,SW5*
X48075000Y-114425000D02*
X48075000Y-113425000D01*
X48075000Y-113425000D02*
X49075000Y-113425000D01*
X49075000Y-127425000D02*
X48075000Y-127425000D01*
X48075000Y-127425000D02*
X48075000Y-126425000D01*
X62075000Y-126425000D02*
X62075000Y-127425000D01*
X62075000Y-127425000D02*
X61075000Y-127425000D01*
X61075000Y-113425000D02*
X62075000Y-113425000D01*
X62075000Y-113425000D02*
X62075000Y-114425000D01*
G04 #@! TO.C,SW6*
X66075000Y-114425000D02*
X66075000Y-113425000D01*
X66075000Y-113425000D02*
X67075000Y-113425000D01*
X67075000Y-127425000D02*
X66075000Y-127425000D01*
X66075000Y-127425000D02*
X66075000Y-126425000D01*
X80075000Y-126425000D02*
X80075000Y-127425000D01*
X80075000Y-127425000D02*
X79075000Y-127425000D01*
X79075000Y-113425000D02*
X80075000Y-113425000D01*
X80075000Y-113425000D02*
X80075000Y-114425000D01*
G04 #@! TO.C,SW7*
X30075000Y-131425000D02*
X30075000Y-130425000D01*
X30075000Y-130425000D02*
X31075000Y-130425000D01*
X31075000Y-144425000D02*
X30075000Y-144425000D01*
X30075000Y-144425000D02*
X30075000Y-143425000D01*
X44075000Y-143425000D02*
X44075000Y-144425000D01*
X44075000Y-144425000D02*
X43075000Y-144425000D01*
X43075000Y-130425000D02*
X44075000Y-130425000D01*
X44075000Y-130425000D02*
X44075000Y-131425000D01*
G04 #@! TO.C,SW8*
X48075000Y-131425000D02*
X48075000Y-130425000D01*
X48075000Y-130425000D02*
X49075000Y-130425000D01*
X49075000Y-144425000D02*
X48075000Y-144425000D01*
X48075000Y-144425000D02*
X48075000Y-143425000D01*
X62075000Y-143425000D02*
X62075000Y-144425000D01*
X62075000Y-144425000D02*
X61075000Y-144425000D01*
X61075000Y-130425000D02*
X62075000Y-130425000D01*
X62075000Y-130425000D02*
X62075000Y-131425000D01*
G04 #@! TO.C,SW9*
X66075000Y-131425000D02*
X66075000Y-130425000D01*
X66075000Y-130425000D02*
X67075000Y-130425000D01*
X67075000Y-144425000D02*
X66075000Y-144425000D01*
X66075000Y-144425000D02*
X66075000Y-143425000D01*
X80075000Y-143425000D02*
X80075000Y-144425000D01*
X80075000Y-144425000D02*
X79075000Y-144425000D01*
X79075000Y-130425000D02*
X80075000Y-130425000D01*
X80075000Y-130425000D02*
X80075000Y-131425000D01*
D11*
G04 #@! TO.C,C3*
X49225000Y-57025000D02*
X49925000Y-57025000D01*
X49925000Y-55825000D02*
X49225000Y-55825000D01*
G04 #@! TO.C,C4*
X59425000Y-55825000D02*
X58725000Y-55825000D01*
X58725000Y-57025000D02*
X59425000Y-57025000D01*
G04 #@! TO.C,C6*
X51425000Y-74325000D02*
X50725000Y-74325000D01*
X50725000Y-75525000D02*
X51425000Y-75525000D01*
G04 #@! TO.C,C7*
X46475000Y-71575000D02*
X46475000Y-72275000D01*
X47675000Y-72275000D02*
X47675000Y-71575000D01*
G04 #@! TO.C,D5*
X44180000Y-110200000D02*
X44180000Y-106300000D01*
X42180000Y-110200000D02*
X42180000Y-106300000D01*
X44180000Y-110200000D02*
X42180000Y-110200000D01*
G04 #@! TO.C,D6*
X61960000Y-110200000D02*
X61960000Y-106300000D01*
X59960000Y-110200000D02*
X59960000Y-106300000D01*
X61960000Y-110200000D02*
X59960000Y-110200000D01*
G04 #@! TO.C,D7*
X80375000Y-110835000D02*
X78375000Y-110835000D01*
X78375000Y-110835000D02*
X78375000Y-106935000D01*
X80375000Y-110835000D02*
X80375000Y-106935000D01*
G04 #@! TO.C,D8*
X44180000Y-127345000D02*
X44180000Y-123445000D01*
X42180000Y-127345000D02*
X42180000Y-123445000D01*
X44180000Y-127345000D02*
X42180000Y-127345000D01*
G04 #@! TO.C,D9*
X61960000Y-127345000D02*
X59960000Y-127345000D01*
X59960000Y-127345000D02*
X59960000Y-123445000D01*
X61960000Y-127345000D02*
X61960000Y-123445000D01*
G04 #@! TO.C,D10*
X79740000Y-127345000D02*
X79740000Y-123445000D01*
X77740000Y-127345000D02*
X77740000Y-123445000D01*
X79740000Y-127345000D02*
X77740000Y-127345000D01*
G04 #@! TO.C,D15*
X44180000Y-144490000D02*
X42180000Y-144490000D01*
X42180000Y-144490000D02*
X42180000Y-140590000D01*
X44180000Y-144490000D02*
X44180000Y-140590000D01*
G04 #@! TO.C,D16*
X61960000Y-144490000D02*
X61960000Y-140590000D01*
X59960000Y-144490000D02*
X59960000Y-140590000D01*
X61960000Y-144490000D02*
X59960000Y-144490000D01*
G04 #@! TO.C,D17*
X80375000Y-144490000D02*
X78375000Y-144490000D01*
X78375000Y-144490000D02*
X78375000Y-140590000D01*
X80375000Y-144490000D02*
X80375000Y-140590000D01*
G04 #@! TO.C,F1*
X44015000Y-49165000D02*
X44015000Y-51165000D01*
X46155000Y-51165000D02*
X46155000Y-49165000D01*
G04 #@! TO.C,R1*
X49245000Y-51680000D02*
X50445000Y-51680000D01*
X50445000Y-49920000D02*
X49245000Y-49920000D01*
G04 #@! TO.C,R2*
X45975000Y-62305000D02*
X47175000Y-62305000D01*
X47175000Y-60545000D02*
X45975000Y-60545000D01*
G04 #@! TO.C,R3*
X47175000Y-58045000D02*
X45975000Y-58045000D01*
X45975000Y-59805000D02*
X47175000Y-59805000D01*
G04 #@! TO.C,R4*
X60175000Y-74045000D02*
X58975000Y-74045000D01*
X58975000Y-75805000D02*
X60175000Y-75805000D01*
G04 #@! TO.C,R5*
X31715000Y-58175000D02*
X30515000Y-58175000D01*
X30515000Y-59935000D02*
X31715000Y-59935000D01*
G04 #@! TO.C,R6*
X42790000Y-50130000D02*
X42790000Y-48930000D01*
X41030000Y-48930000D02*
X41030000Y-50130000D01*
G04 #@! TO.C,R10*
X68970000Y-48930000D02*
X68970000Y-50130000D01*
X70730000Y-50130000D02*
X70730000Y-48930000D01*
D12*
G04 #@! TO.C,U2*
X38555000Y-57165000D02*
X38555000Y-55865000D01*
X41455000Y-57165000D02*
X38555000Y-57165000D01*
X41455000Y-55865000D02*
X41455000Y-57165000D01*
X41455000Y-55865000D02*
X38555000Y-55865000D01*
D11*
G04 #@! TO.C,C8*
X44100000Y-57025000D02*
X44800000Y-57025000D01*
X44800000Y-55825000D02*
X44100000Y-55825000D01*
G04 #@! TO.C,C10*
X66925000Y-91325000D02*
X66225000Y-91325000D01*
X66225000Y-92525000D02*
X66925000Y-92525000D01*
G04 #@! TO.C,C11*
X66925000Y-79825000D02*
X66225000Y-79825000D01*
X66225000Y-81025000D02*
X66925000Y-81025000D01*
G04 #@! TO.C,D14*
X40825000Y-84925000D02*
X44725000Y-84925000D01*
X40825000Y-82925000D02*
X44725000Y-82925000D01*
X40825000Y-84925000D02*
X40825000Y-82925000D01*
G04 #@! TO.C,R9*
X43675000Y-87045000D02*
X42475000Y-87045000D01*
X42475000Y-88805000D02*
X43675000Y-88805000D01*
G04 #@! TO.C,Y1*
D12*
X67051185Y-57901215D02*
X67051185Y-58377405D01*
X67384518Y-57377405D02*
X67051185Y-57901215D01*
X66717852Y-57377405D01*
X65860709Y-58377405D02*
X66432137Y-58377405D01*
X66146423Y-58377405D02*
X66146423Y-57377405D01*
X66241661Y-57520263D01*
X66336899Y-57615501D01*
X66432137Y-57663120D01*
G04 #@! TO.C,C2*
X63573566Y-53537242D02*
X63621185Y-53584861D01*
X63764042Y-53632480D01*
X63859280Y-53632480D01*
X64002138Y-53584861D01*
X64097376Y-53489623D01*
X64144995Y-53394385D01*
X64192614Y-53203909D01*
X64192614Y-53061052D01*
X64144995Y-52870576D01*
X64097376Y-52775338D01*
X64002138Y-52680100D01*
X63859280Y-52632480D01*
X63764042Y-52632480D01*
X63621185Y-52680100D01*
X63573566Y-52727719D01*
X63192614Y-52727719D02*
X63144995Y-52680100D01*
X63049757Y-52632480D01*
X62811661Y-52632480D01*
X62716423Y-52680100D01*
X62668804Y-52727719D01*
X62621185Y-52822957D01*
X62621185Y-52918195D01*
X62668804Y-53061052D01*
X63240233Y-53632480D01*
X62621185Y-53632480D01*
G04 #@! TO.C,C1*
X63573566Y-62887242D02*
X63621185Y-62934861D01*
X63764042Y-62982480D01*
X63859280Y-62982480D01*
X64002138Y-62934861D01*
X64097376Y-62839623D01*
X64144995Y-62744385D01*
X64192614Y-62553909D01*
X64192614Y-62411052D01*
X64144995Y-62220576D01*
X64097376Y-62125338D01*
X64002138Y-62030100D01*
X63859280Y-61982480D01*
X63764042Y-61982480D01*
X63621185Y-62030100D01*
X63573566Y-62077719D01*
X62621185Y-62982480D02*
X63192614Y-62982480D01*
X62906900Y-62982480D02*
X62906900Y-61982480D01*
X63002138Y-62125338D01*
X63097376Y-62220576D01*
X63192614Y-62268195D01*
G04 #@! TO.C,U1*
X50733027Y-71344468D02*
X50160607Y-71916888D01*
X50059592Y-71950560D01*
X49992248Y-71950560D01*
X49891233Y-71916888D01*
X49756546Y-71782201D01*
X49722874Y-71681186D01*
X49722874Y-71613842D01*
X49756546Y-71512827D01*
X50328966Y-70940407D01*
X48914752Y-70940407D02*
X49318813Y-71344468D01*
X49116783Y-71142438D02*
X49823889Y-70435331D01*
X49790218Y-70603690D01*
X49790218Y-70738377D01*
X49823889Y-70839392D01*
G04 #@! TO.C,C5*
X65241666Y-71857142D02*
X65289285Y-71904761D01*
X65432142Y-71952380D01*
X65527380Y-71952380D01*
X65670238Y-71904761D01*
X65765476Y-71809523D01*
X65813095Y-71714285D01*
X65860714Y-71523809D01*
X65860714Y-71380952D01*
X65813095Y-71190476D01*
X65765476Y-71095238D01*
X65670238Y-71000000D01*
X65527380Y-70952380D01*
X65432142Y-70952380D01*
X65289285Y-71000000D01*
X65241666Y-71047619D01*
X64336904Y-70952380D02*
X64813095Y-70952380D01*
X64860714Y-71428571D01*
X64813095Y-71380952D01*
X64717857Y-71333333D01*
X64479761Y-71333333D01*
X64384523Y-71380952D01*
X64336904Y-71428571D01*
X64289285Y-71523809D01*
X64289285Y-71761904D01*
X64336904Y-71857142D01*
X64384523Y-71904761D01*
X64479761Y-71952380D01*
X64717857Y-71952380D01*
X64813095Y-71904761D01*
X64860714Y-71857142D01*
G04 #@! TO.C,U3*
D14*
X75262619Y-80584523D02*
X75262619Y-81612619D01*
X75202142Y-81733571D01*
X75141666Y-81794047D01*
X75020714Y-81854523D01*
X74778809Y-81854523D01*
X74657857Y-81794047D01*
X74597380Y-81733571D01*
X74536904Y-81612619D01*
X74536904Y-80584523D01*
X74053095Y-80584523D02*
X73266904Y-80584523D01*
X73690238Y-81068333D01*
X73508809Y-81068333D01*
X73387857Y-81128809D01*
X73327380Y-81189285D01*
X73266904Y-81310238D01*
X73266904Y-81612619D01*
X73327380Y-81733571D01*
X73387857Y-81794047D01*
X73508809Y-81854523D01*
X73871666Y-81854523D01*
X73992619Y-81794047D01*
X74053095Y-81733571D01*
G04 #@! TO.C,C9*
D12*
X66741666Y-78782142D02*
X66789285Y-78829761D01*
X66932142Y-78877380D01*
X67027380Y-78877380D01*
X67170238Y-78829761D01*
X67265476Y-78734523D01*
X67313095Y-78639285D01*
X67360714Y-78448809D01*
X67360714Y-78305952D01*
X67313095Y-78115476D01*
X67265476Y-78020238D01*
X67170238Y-77925000D01*
X67027380Y-77877380D01*
X66932142Y-77877380D01*
X66789285Y-77925000D01*
X66741666Y-77972619D01*
X66265476Y-78877380D02*
X66075000Y-78877380D01*
X65979761Y-78829761D01*
X65932142Y-78782142D01*
X65836904Y-78639285D01*
X65789285Y-78448809D01*
X65789285Y-78067857D01*
X65836904Y-77972619D01*
X65884523Y-77925000D01*
X65979761Y-77877380D01*
X66170238Y-77877380D01*
X66265476Y-77925000D01*
X66313095Y-77972619D01*
X66360714Y-78067857D01*
X66360714Y-78305952D01*
X66313095Y-78401190D01*
X66265476Y-78448809D01*
X66170238Y-78496428D01*
X65979761Y-78496428D01*
X65884523Y-78448809D01*
X65836904Y-78401190D01*
X65789285Y-78305952D01*
G04 #@! TO.C,R7*
X66741666Y-86027380D02*
X67075000Y-85551190D01*
X67313095Y-86027380D02*
X67313095Y-85027380D01*
X66932142Y-85027380D01*
X66836904Y-85075000D01*
X66789285Y-85122619D01*
X66741666Y-85217857D01*
X66741666Y-85360714D01*
X66789285Y-85455952D01*
X66836904Y-85503571D01*
X66932142Y-85551190D01*
X67313095Y-85551190D01*
X66408333Y-85027380D02*
X65741666Y-85027380D01*
X66170238Y-86027380D01*
G04 #@! TO.C,R8*
X66741666Y-90027380D02*
X67075000Y-89551190D01*
X67313095Y-90027380D02*
X67313095Y-89027380D01*
X66932142Y-89027380D01*
X66836904Y-89075000D01*
X66789285Y-89122619D01*
X66741666Y-89217857D01*
X66741666Y-89360714D01*
X66789285Y-89455952D01*
X66836904Y-89503571D01*
X66932142Y-89551190D01*
X67313095Y-89551190D01*
X66170238Y-89455952D02*
X66265476Y-89408333D01*
X66313095Y-89360714D01*
X66360714Y-89265476D01*
X66360714Y-89217857D01*
X66313095Y-89122619D01*
X66265476Y-89075000D01*
X66170238Y-89027380D01*
X65979761Y-89027380D01*
X65884523Y-89075000D01*
X65836904Y-89122619D01*
X65789285Y-89217857D01*
X65789285Y-89265476D01*
X65836904Y-89360714D01*
X65884523Y-89408333D01*
X65979761Y-89455952D01*
X66170238Y-89455952D01*
X66265476Y-89503571D01*
X66313095Y-89551190D01*
X66360714Y-89646428D01*
X66360714Y-89836904D01*
X66313095Y-89932142D01*
X66265476Y-89979761D01*
X66170238Y-90027380D01*
X65979761Y-90027380D01*
X65884523Y-89979761D01*
X65836904Y-89932142D01*
X65789285Y-89836904D01*
X65789285Y-89646428D01*
X65836904Y-89551190D01*
X65884523Y-89503571D01*
X65979761Y-89455952D01*
G04 #@! TO.C,D3*
X37813095Y-99377380D02*
X37813095Y-98377380D01*
X37575000Y-98377380D01*
X37432142Y-98425000D01*
X37336904Y-98520238D01*
X37289285Y-98615476D01*
X37241666Y-98805952D01*
X37241666Y-98948809D01*
X37289285Y-99139285D01*
X37336904Y-99234523D01*
X37432142Y-99329761D01*
X37575000Y-99377380D01*
X37813095Y-99377380D01*
X36908333Y-98377380D02*
X36289285Y-98377380D01*
X36622619Y-98758333D01*
X36479761Y-98758333D01*
X36384523Y-98805952D01*
X36336904Y-98853571D01*
X36289285Y-98948809D01*
X36289285Y-99186904D01*
X36336904Y-99282142D01*
X36384523Y-99329761D01*
X36479761Y-99377380D01*
X36765476Y-99377380D01*
X36860714Y-99329761D01*
X36908333Y-99282142D01*
G04 #@! TO.C,D4*
X55813095Y-99377380D02*
X55813095Y-98377380D01*
X55575000Y-98377380D01*
X55432142Y-98425000D01*
X55336904Y-98520238D01*
X55289285Y-98615476D01*
X55241666Y-98805952D01*
X55241666Y-98948809D01*
X55289285Y-99139285D01*
X55336904Y-99234523D01*
X55432142Y-99329761D01*
X55575000Y-99377380D01*
X55813095Y-99377380D01*
X54384523Y-98710714D02*
X54384523Y-99377380D01*
X54622619Y-98329761D02*
X54860714Y-99044047D01*
X54241666Y-99044047D01*
G04 #@! TO.C,D2*
X73813095Y-99377380D02*
X73813095Y-98377380D01*
X73575000Y-98377380D01*
X73432142Y-98425000D01*
X73336904Y-98520238D01*
X73289285Y-98615476D01*
X73241666Y-98805952D01*
X73241666Y-98948809D01*
X73289285Y-99139285D01*
X73336904Y-99234523D01*
X73432142Y-99329761D01*
X73575000Y-99377380D01*
X73813095Y-99377380D01*
X72860714Y-98472619D02*
X72813095Y-98425000D01*
X72717857Y-98377380D01*
X72479761Y-98377380D01*
X72384523Y-98425000D01*
X72336904Y-98472619D01*
X72289285Y-98567857D01*
X72289285Y-98663095D01*
X72336904Y-98805952D01*
X72908333Y-99377380D01*
X72289285Y-99377380D01*
G04 #@! TO.C,D12*
X38289285Y-116377380D02*
X38289285Y-115377380D01*
X38051190Y-115377380D01*
X37908333Y-115425000D01*
X37813095Y-115520238D01*
X37765476Y-115615476D01*
X37717857Y-115805952D01*
X37717857Y-115948809D01*
X37765476Y-116139285D01*
X37813095Y-116234523D01*
X37908333Y-116329761D01*
X38051190Y-116377380D01*
X38289285Y-116377380D01*
X36765476Y-116377380D02*
X37336904Y-116377380D01*
X37051190Y-116377380D02*
X37051190Y-115377380D01*
X37146428Y-115520238D01*
X37241666Y-115615476D01*
X37336904Y-115663095D01*
X36384523Y-115472619D02*
X36336904Y-115425000D01*
X36241666Y-115377380D01*
X36003571Y-115377380D01*
X35908333Y-115425000D01*
X35860714Y-115472619D01*
X35813095Y-115567857D01*
X35813095Y-115663095D01*
X35860714Y-115805952D01*
X36432142Y-116377380D01*
X35813095Y-116377380D01*
G04 #@! TO.C,D13*
X56289285Y-116377380D02*
X56289285Y-115377380D01*
X56051190Y-115377380D01*
X55908333Y-115425000D01*
X55813095Y-115520238D01*
X55765476Y-115615476D01*
X55717857Y-115805952D01*
X55717857Y-115948809D01*
X55765476Y-116139285D01*
X55813095Y-116234523D01*
X55908333Y-116329761D01*
X56051190Y-116377380D01*
X56289285Y-116377380D01*
X54765476Y-116377380D02*
X55336904Y-116377380D01*
X55051190Y-116377380D02*
X55051190Y-115377380D01*
X55146428Y-115520238D01*
X55241666Y-115615476D01*
X55336904Y-115663095D01*
X54432142Y-115377380D02*
X53813095Y-115377380D01*
X54146428Y-115758333D01*
X54003571Y-115758333D01*
X53908333Y-115805952D01*
X53860714Y-115853571D01*
X53813095Y-115948809D01*
X53813095Y-116186904D01*
X53860714Y-116282142D01*
X53908333Y-116329761D01*
X54003571Y-116377380D01*
X54289285Y-116377380D01*
X54384523Y-116329761D01*
X54432142Y-116282142D01*
G04 #@! TO.C,D11*
X74289285Y-116377380D02*
X74289285Y-115377380D01*
X74051190Y-115377380D01*
X73908333Y-115425000D01*
X73813095Y-115520238D01*
X73765476Y-115615476D01*
X73717857Y-115805952D01*
X73717857Y-115948809D01*
X73765476Y-116139285D01*
X73813095Y-116234523D01*
X73908333Y-116329761D01*
X74051190Y-116377380D01*
X74289285Y-116377380D01*
X72765476Y-116377380D02*
X73336904Y-116377380D01*
X73051190Y-116377380D02*
X73051190Y-115377380D01*
X73146428Y-115520238D01*
X73241666Y-115615476D01*
X73336904Y-115663095D01*
X71813095Y-116377380D02*
X72384523Y-116377380D01*
X72098809Y-116377380D02*
X72098809Y-115377380D01*
X72194047Y-115520238D01*
X72289285Y-115615476D01*
X72384523Y-115663095D01*
G04 #@! TO.C,D19*
X38289285Y-133377380D02*
X38289285Y-132377380D01*
X38051190Y-132377380D01*
X37908333Y-132425000D01*
X37813095Y-132520238D01*
X37765476Y-132615476D01*
X37717857Y-132805952D01*
X37717857Y-132948809D01*
X37765476Y-133139285D01*
X37813095Y-133234523D01*
X37908333Y-133329761D01*
X38051190Y-133377380D01*
X38289285Y-133377380D01*
X36765476Y-133377380D02*
X37336904Y-133377380D01*
X37051190Y-133377380D02*
X37051190Y-132377380D01*
X37146428Y-132520238D01*
X37241666Y-132615476D01*
X37336904Y-132663095D01*
X36289285Y-133377380D02*
X36098809Y-133377380D01*
X36003571Y-133329761D01*
X35955952Y-133282142D01*
X35860714Y-133139285D01*
X35813095Y-132948809D01*
X35813095Y-132567857D01*
X35860714Y-132472619D01*
X35908333Y-132425000D01*
X36003571Y-132377380D01*
X36194047Y-132377380D01*
X36289285Y-132425000D01*
X36336904Y-132472619D01*
X36384523Y-132567857D01*
X36384523Y-132805952D01*
X36336904Y-132901190D01*
X36289285Y-132948809D01*
X36194047Y-132996428D01*
X36003571Y-132996428D01*
X35908333Y-132948809D01*
X35860714Y-132901190D01*
X35813095Y-132805952D01*
G04 #@! TO.C,D20*
X56289285Y-133415380D02*
X56289285Y-132415380D01*
X56051190Y-132415380D01*
X55908333Y-132463000D01*
X55813095Y-132558238D01*
X55765476Y-132653476D01*
X55717857Y-132843952D01*
X55717857Y-132986809D01*
X55765476Y-133177285D01*
X55813095Y-133272523D01*
X55908333Y-133367761D01*
X56051190Y-133415380D01*
X56289285Y-133415380D01*
X55336904Y-132510619D02*
X55289285Y-132463000D01*
X55194047Y-132415380D01*
X54955952Y-132415380D01*
X54860714Y-132463000D01*
X54813095Y-132510619D01*
X54765476Y-132605857D01*
X54765476Y-132701095D01*
X54813095Y-132843952D01*
X55384523Y-133415380D01*
X54765476Y-133415380D01*
X54146428Y-132415380D02*
X54051190Y-132415380D01*
X53955952Y-132463000D01*
X53908333Y-132510619D01*
X53860714Y-132605857D01*
X53813095Y-132796333D01*
X53813095Y-133034428D01*
X53860714Y-133224904D01*
X53908333Y-133320142D01*
X53955952Y-133367761D01*
X54051190Y-133415380D01*
X54146428Y-133415380D01*
X54241666Y-133367761D01*
X54289285Y-133320142D01*
X54336904Y-133224904D01*
X54384523Y-133034428D01*
X54384523Y-132796333D01*
X54336904Y-132605857D01*
X54289285Y-132510619D01*
X54241666Y-132463000D01*
X54146428Y-132415380D01*
G04 #@! TO.C,D18*
X74142781Y-133339683D02*
X74142781Y-132339683D01*
X73904686Y-132339683D01*
X73761829Y-132387303D01*
X73666591Y-132482541D01*
X73618972Y-132577779D01*
X73571353Y-132768255D01*
X73571353Y-132911112D01*
X73618972Y-133101588D01*
X73666591Y-133196826D01*
X73761829Y-133292064D01*
X73904686Y-133339683D01*
X74142781Y-133339683D01*
X72618972Y-133339683D02*
X73190400Y-133339683D01*
X72904686Y-133339683D02*
X72904686Y-132339683D01*
X72999924Y-132482541D01*
X73095162Y-132577779D01*
X73190400Y-132625398D01*
X72047543Y-132768255D02*
X72142781Y-132720636D01*
X72190400Y-132673017D01*
X72238019Y-132577779D01*
X72238019Y-132530160D01*
X72190400Y-132434922D01*
X72142781Y-132387303D01*
X72047543Y-132339683D01*
X71857067Y-132339683D01*
X71761829Y-132387303D01*
X71714210Y-132434922D01*
X71666591Y-132530160D01*
X71666591Y-132577779D01*
X71714210Y-132673017D01*
X71761829Y-132720636D01*
X71857067Y-132768255D01*
X72047543Y-132768255D01*
X72142781Y-132815874D01*
X72190400Y-132863493D01*
X72238019Y-132958731D01*
X72238019Y-133149207D01*
X72190400Y-133244445D01*
X72142781Y-133292064D01*
X72047543Y-133339683D01*
X71857067Y-133339683D01*
X71761829Y-133292064D01*
X71714210Y-133244445D01*
X71666591Y-133149207D01*
X71666591Y-132958731D01*
X71714210Y-132863493D01*
X71761829Y-132815874D01*
X71857067Y-132768255D01*
G04 #@! TO.C,SW1*
X38408333Y-104129761D02*
X38265476Y-104177380D01*
X38027380Y-104177380D01*
X37932142Y-104129761D01*
X37884523Y-104082142D01*
X37836904Y-103986904D01*
X37836904Y-103891666D01*
X37884523Y-103796428D01*
X37932142Y-103748809D01*
X38027380Y-103701190D01*
X38217857Y-103653571D01*
X38313095Y-103605952D01*
X38360714Y-103558333D01*
X38408333Y-103463095D01*
X38408333Y-103367857D01*
X38360714Y-103272619D01*
X38313095Y-103225000D01*
X38217857Y-103177380D01*
X37979761Y-103177380D01*
X37836904Y-103225000D01*
X37503571Y-103177380D02*
X37265476Y-104177380D01*
X37075000Y-103463095D01*
X36884523Y-104177380D01*
X36646428Y-103177380D01*
X35741666Y-104177380D02*
X36313095Y-104177380D01*
X36027380Y-104177380D02*
X36027380Y-103177380D01*
X36122619Y-103320238D01*
X36217857Y-103415476D01*
X36313095Y-103463095D01*
G04 #@! TO.C,SW2*
X56408333Y-104129761D02*
X56265476Y-104177380D01*
X56027380Y-104177380D01*
X55932142Y-104129761D01*
X55884523Y-104082142D01*
X55836904Y-103986904D01*
X55836904Y-103891666D01*
X55884523Y-103796428D01*
X55932142Y-103748809D01*
X56027380Y-103701190D01*
X56217857Y-103653571D01*
X56313095Y-103605952D01*
X56360714Y-103558333D01*
X56408333Y-103463095D01*
X56408333Y-103367857D01*
X56360714Y-103272619D01*
X56313095Y-103225000D01*
X56217857Y-103177380D01*
X55979761Y-103177380D01*
X55836904Y-103225000D01*
X55503571Y-103177380D02*
X55265476Y-104177380D01*
X55075000Y-103463095D01*
X54884523Y-104177380D01*
X54646428Y-103177380D01*
X54313095Y-103272619D02*
X54265476Y-103225000D01*
X54170238Y-103177380D01*
X53932142Y-103177380D01*
X53836904Y-103225000D01*
X53789285Y-103272619D01*
X53741666Y-103367857D01*
X53741666Y-103463095D01*
X53789285Y-103605952D01*
X54360714Y-104177380D01*
X53741666Y-104177380D01*
G04 #@! TO.C,SW3*
X74408333Y-104129761D02*
X74265476Y-104177380D01*
X74027380Y-104177380D01*
X73932142Y-104129761D01*
X73884523Y-104082142D01*
X73836904Y-103986904D01*
X73836904Y-103891666D01*
X73884523Y-103796428D01*
X73932142Y-103748809D01*
X74027380Y-103701190D01*
X74217857Y-103653571D01*
X74313095Y-103605952D01*
X74360714Y-103558333D01*
X74408333Y-103463095D01*
X74408333Y-103367857D01*
X74360714Y-103272619D01*
X74313095Y-103225000D01*
X74217857Y-103177380D01*
X73979761Y-103177380D01*
X73836904Y-103225000D01*
X73503571Y-103177380D02*
X73265476Y-104177380D01*
X73075000Y-103463095D01*
X72884523Y-104177380D01*
X72646428Y-103177380D01*
X72360714Y-103177380D02*
X71741666Y-103177380D01*
X72075000Y-103558333D01*
X71932142Y-103558333D01*
X71836904Y-103605952D01*
X71789285Y-103653571D01*
X71741666Y-103748809D01*
X71741666Y-103986904D01*
X71789285Y-104082142D01*
X71836904Y-104129761D01*
X71932142Y-104177380D01*
X72217857Y-104177380D01*
X72313095Y-104129761D01*
X72360714Y-104082142D01*
G04 #@! TO.C,SW4*
X38408333Y-121129761D02*
X38265476Y-121177380D01*
X38027380Y-121177380D01*
X37932142Y-121129761D01*
X37884523Y-121082142D01*
X37836904Y-120986904D01*
X37836904Y-120891666D01*
X37884523Y-120796428D01*
X37932142Y-120748809D01*
X38027380Y-120701190D01*
X38217857Y-120653571D01*
X38313095Y-120605952D01*
X38360714Y-120558333D01*
X38408333Y-120463095D01*
X38408333Y-120367857D01*
X38360714Y-120272619D01*
X38313095Y-120225000D01*
X38217857Y-120177380D01*
X37979761Y-120177380D01*
X37836904Y-120225000D01*
X37503571Y-120177380D02*
X37265476Y-121177380D01*
X37075000Y-120463095D01*
X36884523Y-121177380D01*
X36646428Y-120177380D01*
X35836904Y-120510714D02*
X35836904Y-121177380D01*
X36075000Y-120129761D02*
X36313095Y-120844047D01*
X35694047Y-120844047D01*
G04 #@! TO.C,SW5*
X56408333Y-121129761D02*
X56265476Y-121177380D01*
X56027380Y-121177380D01*
X55932142Y-121129761D01*
X55884523Y-121082142D01*
X55836904Y-120986904D01*
X55836904Y-120891666D01*
X55884523Y-120796428D01*
X55932142Y-120748809D01*
X56027380Y-120701190D01*
X56217857Y-120653571D01*
X56313095Y-120605952D01*
X56360714Y-120558333D01*
X56408333Y-120463095D01*
X56408333Y-120367857D01*
X56360714Y-120272619D01*
X56313095Y-120225000D01*
X56217857Y-120177380D01*
X55979761Y-120177380D01*
X55836904Y-120225000D01*
X55503571Y-120177380D02*
X55265476Y-121177380D01*
X55075000Y-120463095D01*
X54884523Y-121177380D01*
X54646428Y-120177380D01*
X53789285Y-120177380D02*
X54265476Y-120177380D01*
X54313095Y-120653571D01*
X54265476Y-120605952D01*
X54170238Y-120558333D01*
X53932142Y-120558333D01*
X53836904Y-120605952D01*
X53789285Y-120653571D01*
X53741666Y-120748809D01*
X53741666Y-120986904D01*
X53789285Y-121082142D01*
X53836904Y-121129761D01*
X53932142Y-121177380D01*
X54170238Y-121177380D01*
X54265476Y-121129761D01*
X54313095Y-121082142D01*
G04 #@! TO.C,SW6*
X74408333Y-121129761D02*
X74265476Y-121177380D01*
X74027380Y-121177380D01*
X73932142Y-121129761D01*
X73884523Y-121082142D01*
X73836904Y-120986904D01*
X73836904Y-120891666D01*
X73884523Y-120796428D01*
X73932142Y-120748809D01*
X74027380Y-120701190D01*
X74217857Y-120653571D01*
X74313095Y-120605952D01*
X74360714Y-120558333D01*
X74408333Y-120463095D01*
X74408333Y-120367857D01*
X74360714Y-120272619D01*
X74313095Y-120225000D01*
X74217857Y-120177380D01*
X73979761Y-120177380D01*
X73836904Y-120225000D01*
X73503571Y-120177380D02*
X73265476Y-121177380D01*
X73075000Y-120463095D01*
X72884523Y-121177380D01*
X72646428Y-120177380D01*
X71836904Y-120177380D02*
X72027380Y-120177380D01*
X72122619Y-120225000D01*
X72170238Y-120272619D01*
X72265476Y-120415476D01*
X72313095Y-120605952D01*
X72313095Y-120986904D01*
X72265476Y-121082142D01*
X72217857Y-121129761D01*
X72122619Y-121177380D01*
X71932142Y-121177380D01*
X71836904Y-121129761D01*
X71789285Y-121082142D01*
X71741666Y-120986904D01*
X71741666Y-120748809D01*
X71789285Y-120653571D01*
X71836904Y-120605952D01*
X71932142Y-120558333D01*
X72122619Y-120558333D01*
X72217857Y-120605952D01*
X72265476Y-120653571D01*
X72313095Y-120748809D01*
G04 #@! TO.C,SW7*
X38408333Y-138129761D02*
X38265476Y-138177380D01*
X38027380Y-138177380D01*
X37932142Y-138129761D01*
X37884523Y-138082142D01*
X37836904Y-137986904D01*
X37836904Y-137891666D01*
X37884523Y-137796428D01*
X37932142Y-137748809D01*
X38027380Y-137701190D01*
X38217857Y-137653571D01*
X38313095Y-137605952D01*
X38360714Y-137558333D01*
X38408333Y-137463095D01*
X38408333Y-137367857D01*
X38360714Y-137272619D01*
X38313095Y-137225000D01*
X38217857Y-137177380D01*
X37979761Y-137177380D01*
X37836904Y-137225000D01*
X37503571Y-137177380D02*
X37265476Y-138177380D01*
X37075000Y-137463095D01*
X36884523Y-138177380D01*
X36646428Y-137177380D01*
X36360714Y-137177380D02*
X35694047Y-137177380D01*
X36122619Y-138177380D01*
G04 #@! TO.C,SW8*
X56408333Y-138129761D02*
X56265476Y-138177380D01*
X56027380Y-138177380D01*
X55932142Y-138129761D01*
X55884523Y-138082142D01*
X55836904Y-137986904D01*
X55836904Y-137891666D01*
X55884523Y-137796428D01*
X55932142Y-137748809D01*
X56027380Y-137701190D01*
X56217857Y-137653571D01*
X56313095Y-137605952D01*
X56360714Y-137558333D01*
X56408333Y-137463095D01*
X56408333Y-137367857D01*
X56360714Y-137272619D01*
X56313095Y-137225000D01*
X56217857Y-137177380D01*
X55979761Y-137177380D01*
X55836904Y-137225000D01*
X55503571Y-137177380D02*
X55265476Y-138177380D01*
X55075000Y-137463095D01*
X54884523Y-138177380D01*
X54646428Y-137177380D01*
X54122619Y-137605952D02*
X54217857Y-137558333D01*
X54265476Y-137510714D01*
X54313095Y-137415476D01*
X54313095Y-137367857D01*
X54265476Y-137272619D01*
X54217857Y-137225000D01*
X54122619Y-137177380D01*
X53932142Y-137177380D01*
X53836904Y-137225000D01*
X53789285Y-137272619D01*
X53741666Y-137367857D01*
X53741666Y-137415476D01*
X53789285Y-137510714D01*
X53836904Y-137558333D01*
X53932142Y-137605952D01*
X54122619Y-137605952D01*
X54217857Y-137653571D01*
X54265476Y-137701190D01*
X54313095Y-137796428D01*
X54313095Y-137986904D01*
X54265476Y-138082142D01*
X54217857Y-138129761D01*
X54122619Y-138177380D01*
X53932142Y-138177380D01*
X53836904Y-138129761D01*
X53789285Y-138082142D01*
X53741666Y-137986904D01*
X53741666Y-137796428D01*
X53789285Y-137701190D01*
X53836904Y-137653571D01*
X53932142Y-137605952D01*
G04 #@! TO.C,SW9*
X74408333Y-138129761D02*
X74265476Y-138177380D01*
X74027380Y-138177380D01*
X73932142Y-138129761D01*
X73884523Y-138082142D01*
X73836904Y-137986904D01*
X73836904Y-137891666D01*
X73884523Y-137796428D01*
X73932142Y-137748809D01*
X74027380Y-137701190D01*
X74217857Y-137653571D01*
X74313095Y-137605952D01*
X74360714Y-137558333D01*
X74408333Y-137463095D01*
X74408333Y-137367857D01*
X74360714Y-137272619D01*
X74313095Y-137225000D01*
X74217857Y-137177380D01*
X73979761Y-137177380D01*
X73836904Y-137225000D01*
X73503571Y-137177380D02*
X73265476Y-138177380D01*
X73075000Y-137463095D01*
X72884523Y-138177380D01*
X72646428Y-137177380D01*
X72217857Y-138177380D02*
X72027380Y-138177380D01*
X71932142Y-138129761D01*
X71884523Y-138082142D01*
X71789285Y-137939285D01*
X71741666Y-137748809D01*
X71741666Y-137367857D01*
X71789285Y-137272619D01*
X71836904Y-137225000D01*
X71932142Y-137177380D01*
X72122619Y-137177380D01*
X72217857Y-137225000D01*
X72265476Y-137272619D01*
X72313095Y-137367857D01*
X72313095Y-137605952D01*
X72265476Y-137701190D01*
X72217857Y-137748809D01*
X72122619Y-137796428D01*
X71932142Y-137796428D01*
X71836904Y-137748809D01*
X71789285Y-137701190D01*
X71741666Y-137605952D01*
G04 #@! TO.C,C3*
X49741666Y-55512142D02*
X49789285Y-55559761D01*
X49932142Y-55607380D01*
X50027380Y-55607380D01*
X50170238Y-55559761D01*
X50265476Y-55464523D01*
X50313095Y-55369285D01*
X50360714Y-55178809D01*
X50360714Y-55035952D01*
X50313095Y-54845476D01*
X50265476Y-54750238D01*
X50170238Y-54655000D01*
X50027380Y-54607380D01*
X49932142Y-54607380D01*
X49789285Y-54655000D01*
X49741666Y-54702619D01*
X49408333Y-54607380D02*
X48789285Y-54607380D01*
X49122619Y-54988333D01*
X48979761Y-54988333D01*
X48884523Y-55035952D01*
X48836904Y-55083571D01*
X48789285Y-55178809D01*
X48789285Y-55416904D01*
X48836904Y-55512142D01*
X48884523Y-55559761D01*
X48979761Y-55607380D01*
X49265476Y-55607380D01*
X49360714Y-55559761D01*
X49408333Y-55512142D01*
G04 #@! TO.C,C4*
X59241666Y-55282142D02*
X59289285Y-55329761D01*
X59432142Y-55377380D01*
X59527380Y-55377380D01*
X59670238Y-55329761D01*
X59765476Y-55234523D01*
X59813095Y-55139285D01*
X59860714Y-54948809D01*
X59860714Y-54805952D01*
X59813095Y-54615476D01*
X59765476Y-54520238D01*
X59670238Y-54425000D01*
X59527380Y-54377380D01*
X59432142Y-54377380D01*
X59289285Y-54425000D01*
X59241666Y-54472619D01*
X58384523Y-54710714D02*
X58384523Y-55377380D01*
X58622619Y-54329761D02*
X58860714Y-55044047D01*
X58241666Y-55044047D01*
G04 #@! TO.C,C6*
X51241666Y-73644047D02*
X51289285Y-73691666D01*
X51432142Y-73739285D01*
X51527380Y-73739285D01*
X51670238Y-73691666D01*
X51765476Y-73596428D01*
X51813095Y-73501190D01*
X51860714Y-73310714D01*
X51860714Y-73167857D01*
X51813095Y-72977381D01*
X51765476Y-72882143D01*
X51670238Y-72786905D01*
X51527380Y-72739285D01*
X51432142Y-72739285D01*
X51289285Y-72786905D01*
X51241666Y-72834524D01*
X50384523Y-72739285D02*
X50575000Y-72739285D01*
X50670238Y-72786905D01*
X50717857Y-72834524D01*
X50813095Y-72977381D01*
X50860714Y-73167857D01*
X50860714Y-73548809D01*
X50813095Y-73644047D01*
X50765476Y-73691666D01*
X50670238Y-73739285D01*
X50479761Y-73739285D01*
X50384523Y-73691666D01*
X50336904Y-73644047D01*
X50289285Y-73548809D01*
X50289285Y-73310714D01*
X50336904Y-73215476D01*
X50384523Y-73167857D01*
X50479761Y-73120238D01*
X50670238Y-73120238D01*
X50765476Y-73167857D01*
X50813095Y-73215476D01*
X50860714Y-73310714D01*
G04 #@! TO.C,C7*
X45241666Y-72282142D02*
X45289285Y-72329761D01*
X45432142Y-72377380D01*
X45527380Y-72377380D01*
X45670238Y-72329761D01*
X45765476Y-72234523D01*
X45813095Y-72139285D01*
X45860714Y-71948809D01*
X45860714Y-71805952D01*
X45813095Y-71615476D01*
X45765476Y-71520238D01*
X45670238Y-71425000D01*
X45527380Y-71377380D01*
X45432142Y-71377380D01*
X45289285Y-71425000D01*
X45241666Y-71472619D01*
X44908333Y-71377380D02*
X44241666Y-71377380D01*
X44670238Y-72377380D01*
G04 #@! TO.C,D5*
X45632380Y-107139665D02*
X44632380Y-107139665D01*
X44632380Y-107377761D01*
X44680000Y-107520618D01*
X44775238Y-107615856D01*
X44870476Y-107663475D01*
X45060952Y-107711094D01*
X45203809Y-107711094D01*
X45394285Y-107663475D01*
X45489523Y-107615856D01*
X45584761Y-107520618D01*
X45632380Y-107377761D01*
X45632380Y-107139665D01*
X44632380Y-108615856D02*
X44632380Y-108139665D01*
X45108571Y-108092046D01*
X45060952Y-108139665D01*
X45013333Y-108234903D01*
X45013333Y-108472999D01*
X45060952Y-108568237D01*
X45108571Y-108615856D01*
X45203809Y-108663475D01*
X45441904Y-108663475D01*
X45537142Y-108615856D01*
X45584761Y-108568237D01*
X45632380Y-108472999D01*
X45632380Y-108234903D01*
X45584761Y-108139665D01*
X45537142Y-108092046D01*
G04 #@! TO.C,D6*
X63412380Y-107211904D02*
X62412380Y-107211904D01*
X62412380Y-107450000D01*
X62460000Y-107592857D01*
X62555238Y-107688095D01*
X62650476Y-107735714D01*
X62840952Y-107783333D01*
X62983809Y-107783333D01*
X63174285Y-107735714D01*
X63269523Y-107688095D01*
X63364761Y-107592857D01*
X63412380Y-107450000D01*
X63412380Y-107211904D01*
X62412380Y-108640476D02*
X62412380Y-108450000D01*
X62460000Y-108354761D01*
X62507619Y-108307142D01*
X62650476Y-108211904D01*
X62840952Y-108164285D01*
X63221904Y-108164285D01*
X63317142Y-108211904D01*
X63364761Y-108259523D01*
X63412380Y-108354761D01*
X63412380Y-108545238D01*
X63364761Y-108640476D01*
X63317142Y-108688095D01*
X63221904Y-108735714D01*
X62983809Y-108735714D01*
X62888571Y-108688095D01*
X62840952Y-108640476D01*
X62793333Y-108545238D01*
X62793333Y-108354761D01*
X62840952Y-108259523D01*
X62888571Y-108211904D01*
X62983809Y-108164285D01*
G04 #@! TO.C,D7*
X81827380Y-107846904D02*
X80827380Y-107846904D01*
X80827380Y-108085000D01*
X80875000Y-108227857D01*
X80970238Y-108323095D01*
X81065476Y-108370714D01*
X81255952Y-108418333D01*
X81398809Y-108418333D01*
X81589285Y-108370714D01*
X81684523Y-108323095D01*
X81779761Y-108227857D01*
X81827380Y-108085000D01*
X81827380Y-107846904D01*
X80827380Y-108751666D02*
X80827380Y-109418333D01*
X81827380Y-108989761D01*
G04 #@! TO.C,D8*
X45632380Y-124356904D02*
X44632380Y-124356904D01*
X44632380Y-124595000D01*
X44680000Y-124737857D01*
X44775238Y-124833095D01*
X44870476Y-124880714D01*
X45060952Y-124928333D01*
X45203809Y-124928333D01*
X45394285Y-124880714D01*
X45489523Y-124833095D01*
X45584761Y-124737857D01*
X45632380Y-124595000D01*
X45632380Y-124356904D01*
X45060952Y-125499761D02*
X45013333Y-125404523D01*
X44965714Y-125356904D01*
X44870476Y-125309285D01*
X44822857Y-125309285D01*
X44727619Y-125356904D01*
X44680000Y-125404523D01*
X44632380Y-125499761D01*
X44632380Y-125690238D01*
X44680000Y-125785476D01*
X44727619Y-125833095D01*
X44822857Y-125880714D01*
X44870476Y-125880714D01*
X44965714Y-125833095D01*
X45013333Y-125785476D01*
X45060952Y-125690238D01*
X45060952Y-125499761D01*
X45108571Y-125404523D01*
X45156190Y-125356904D01*
X45251428Y-125309285D01*
X45441904Y-125309285D01*
X45537142Y-125356904D01*
X45584761Y-125404523D01*
X45632380Y-125499761D01*
X45632380Y-125690238D01*
X45584761Y-125785476D01*
X45537142Y-125833095D01*
X45441904Y-125880714D01*
X45251428Y-125880714D01*
X45156190Y-125833095D01*
X45108571Y-125785476D01*
X45060952Y-125690238D01*
G04 #@! TO.C,D9*
X63412380Y-124356904D02*
X62412380Y-124356904D01*
X62412380Y-124595000D01*
X62460000Y-124737857D01*
X62555238Y-124833095D01*
X62650476Y-124880714D01*
X62840952Y-124928333D01*
X62983809Y-124928333D01*
X63174285Y-124880714D01*
X63269523Y-124833095D01*
X63364761Y-124737857D01*
X63412380Y-124595000D01*
X63412380Y-124356904D01*
X63412380Y-125404523D02*
X63412380Y-125595000D01*
X63364761Y-125690238D01*
X63317142Y-125737857D01*
X63174285Y-125833095D01*
X62983809Y-125880714D01*
X62602857Y-125880714D01*
X62507619Y-125833095D01*
X62460000Y-125785476D01*
X62412380Y-125690238D01*
X62412380Y-125499761D01*
X62460000Y-125404523D01*
X62507619Y-125356904D01*
X62602857Y-125309285D01*
X62840952Y-125309285D01*
X62936190Y-125356904D01*
X62983809Y-125404523D01*
X63031428Y-125499761D01*
X63031428Y-125690238D01*
X62983809Y-125785476D01*
X62936190Y-125833095D01*
X62840952Y-125880714D01*
G04 #@! TO.C,D10*
X81192380Y-123880714D02*
X80192380Y-123880714D01*
X80192380Y-124118809D01*
X80240000Y-124261666D01*
X80335238Y-124356904D01*
X80430476Y-124404523D01*
X80620952Y-124452142D01*
X80763809Y-124452142D01*
X80954285Y-124404523D01*
X81049523Y-124356904D01*
X81144761Y-124261666D01*
X81192380Y-124118809D01*
X81192380Y-123880714D01*
X81192380Y-125404523D02*
X81192380Y-124833095D01*
X81192380Y-125118809D02*
X80192380Y-125118809D01*
X80335238Y-125023571D01*
X80430476Y-124928333D01*
X80478095Y-124833095D01*
X80192380Y-126023571D02*
X80192380Y-126118809D01*
X80240000Y-126214047D01*
X80287619Y-126261666D01*
X80382857Y-126309285D01*
X80573333Y-126356904D01*
X80811428Y-126356904D01*
X81001904Y-126309285D01*
X81097142Y-126261666D01*
X81144761Y-126214047D01*
X81192380Y-126118809D01*
X81192380Y-126023571D01*
X81144761Y-125928333D01*
X81097142Y-125880714D01*
X81001904Y-125833095D01*
X80811428Y-125785476D01*
X80573333Y-125785476D01*
X80382857Y-125833095D01*
X80287619Y-125880714D01*
X80240000Y-125928333D01*
X80192380Y-126023571D01*
G04 #@! TO.C,D15*
X45632380Y-141025714D02*
X44632380Y-141025714D01*
X44632380Y-141263809D01*
X44680000Y-141406666D01*
X44775238Y-141501904D01*
X44870476Y-141549523D01*
X45060952Y-141597142D01*
X45203809Y-141597142D01*
X45394285Y-141549523D01*
X45489523Y-141501904D01*
X45584761Y-141406666D01*
X45632380Y-141263809D01*
X45632380Y-141025714D01*
X45632380Y-142549523D02*
X45632380Y-141978095D01*
X45632380Y-142263809D02*
X44632380Y-142263809D01*
X44775238Y-142168571D01*
X44870476Y-142073333D01*
X44918095Y-141978095D01*
X44632380Y-143454285D02*
X44632380Y-142978095D01*
X45108571Y-142930476D01*
X45060952Y-142978095D01*
X45013333Y-143073333D01*
X45013333Y-143311428D01*
X45060952Y-143406666D01*
X45108571Y-143454285D01*
X45203809Y-143501904D01*
X45441904Y-143501904D01*
X45537142Y-143454285D01*
X45584761Y-143406666D01*
X45632380Y-143311428D01*
X45632380Y-143073333D01*
X45584761Y-142978095D01*
X45537142Y-142930476D01*
G04 #@! TO.C,D16*
X63412380Y-141025714D02*
X62412380Y-141025714D01*
X62412380Y-141263809D01*
X62460000Y-141406666D01*
X62555238Y-141501904D01*
X62650476Y-141549523D01*
X62840952Y-141597142D01*
X62983809Y-141597142D01*
X63174285Y-141549523D01*
X63269523Y-141501904D01*
X63364761Y-141406666D01*
X63412380Y-141263809D01*
X63412380Y-141025714D01*
X63412380Y-142549523D02*
X63412380Y-141978095D01*
X63412380Y-142263809D02*
X62412380Y-142263809D01*
X62555238Y-142168571D01*
X62650476Y-142073333D01*
X62698095Y-141978095D01*
X62412380Y-143406666D02*
X62412380Y-143216190D01*
X62460000Y-143120952D01*
X62507619Y-143073333D01*
X62650476Y-142978095D01*
X62840952Y-142930476D01*
X63221904Y-142930476D01*
X63317142Y-142978095D01*
X63364761Y-143025714D01*
X63412380Y-143120952D01*
X63412380Y-143311428D01*
X63364761Y-143406666D01*
X63317142Y-143454285D01*
X63221904Y-143501904D01*
X62983809Y-143501904D01*
X62888571Y-143454285D01*
X62840952Y-143406666D01*
X62793333Y-143311428D01*
X62793333Y-143120952D01*
X62840952Y-143025714D01*
X62888571Y-142978095D01*
X62983809Y-142930476D01*
G04 #@! TO.C,D17*
X81827380Y-141025714D02*
X80827380Y-141025714D01*
X80827380Y-141263809D01*
X80875000Y-141406666D01*
X80970238Y-141501904D01*
X81065476Y-141549523D01*
X81255952Y-141597142D01*
X81398809Y-141597142D01*
X81589285Y-141549523D01*
X81684523Y-141501904D01*
X81779761Y-141406666D01*
X81827380Y-141263809D01*
X81827380Y-141025714D01*
X81827380Y-142549523D02*
X81827380Y-141978095D01*
X81827380Y-142263809D02*
X80827380Y-142263809D01*
X80970238Y-142168571D01*
X81065476Y-142073333D01*
X81113095Y-141978095D01*
X80827380Y-142882857D02*
X80827380Y-143549523D01*
X81827380Y-143120952D01*
G04 #@! TO.C,F1*
X45408333Y-53353571D02*
X45741666Y-53353571D01*
X45741666Y-53877380D02*
X45741666Y-52877380D01*
X45265476Y-52877380D01*
X44360714Y-53877380D02*
X44932142Y-53877380D01*
X44646428Y-53877380D02*
X44646428Y-52877380D01*
X44741666Y-53020238D01*
X44836904Y-53115476D01*
X44932142Y-53163095D01*
G04 #@! TO.C,R1*
X50011666Y-52902380D02*
X50345000Y-52426190D01*
X50583095Y-52902380D02*
X50583095Y-51902380D01*
X50202142Y-51902380D01*
X50106904Y-51950000D01*
X50059285Y-51997619D01*
X50011666Y-52092857D01*
X50011666Y-52235714D01*
X50059285Y-52330952D01*
X50106904Y-52378571D01*
X50202142Y-52426190D01*
X50583095Y-52426190D01*
X49059285Y-52902380D02*
X49630714Y-52902380D01*
X49345000Y-52902380D02*
X49345000Y-51902380D01*
X49440238Y-52045238D01*
X49535476Y-52140476D01*
X49630714Y-52188095D01*
G04 #@! TO.C,R2*
X44241666Y-61877380D02*
X44575000Y-61401190D01*
X44813095Y-61877380D02*
X44813095Y-60877380D01*
X44432142Y-60877380D01*
X44336904Y-60925000D01*
X44289285Y-60972619D01*
X44241666Y-61067857D01*
X44241666Y-61210714D01*
X44289285Y-61305952D01*
X44336904Y-61353571D01*
X44432142Y-61401190D01*
X44813095Y-61401190D01*
X43860714Y-60972619D02*
X43813095Y-60925000D01*
X43717857Y-60877380D01*
X43479761Y-60877380D01*
X43384523Y-60925000D01*
X43336904Y-60972619D01*
X43289285Y-61067857D01*
X43289285Y-61163095D01*
X43336904Y-61305952D01*
X43908333Y-61877380D01*
X43289285Y-61877380D01*
G04 #@! TO.C,R3*
X44241666Y-59377380D02*
X44575000Y-58901190D01*
X44813095Y-59377380D02*
X44813095Y-58377380D01*
X44432142Y-58377380D01*
X44336904Y-58425000D01*
X44289285Y-58472619D01*
X44241666Y-58567857D01*
X44241666Y-58710714D01*
X44289285Y-58805952D01*
X44336904Y-58853571D01*
X44432142Y-58901190D01*
X44813095Y-58901190D01*
X43908333Y-58377380D02*
X43289285Y-58377380D01*
X43622619Y-58758333D01*
X43479761Y-58758333D01*
X43384523Y-58805952D01*
X43336904Y-58853571D01*
X43289285Y-58948809D01*
X43289285Y-59186904D01*
X43336904Y-59282142D01*
X43384523Y-59329761D01*
X43479761Y-59377380D01*
X43765476Y-59377380D01*
X43860714Y-59329761D01*
X43908333Y-59282142D01*
G04 #@! TO.C,R4*
X59741666Y-73727380D02*
X60075000Y-73251190D01*
X60313095Y-73727380D02*
X60313095Y-72727380D01*
X59932142Y-72727380D01*
X59836904Y-72775000D01*
X59789285Y-72822619D01*
X59741666Y-72917857D01*
X59741666Y-73060714D01*
X59789285Y-73155952D01*
X59836904Y-73203571D01*
X59932142Y-73251190D01*
X60313095Y-73251190D01*
X58884523Y-73060714D02*
X58884523Y-73727380D01*
X59122619Y-72679761D02*
X59360714Y-73394047D01*
X58741666Y-73394047D01*
G04 #@! TO.C,R5*
X31281666Y-61157380D02*
X31615000Y-60681190D01*
X31853095Y-61157380D02*
X31853095Y-60157380D01*
X31472142Y-60157380D01*
X31376904Y-60205000D01*
X31329285Y-60252619D01*
X31281666Y-60347857D01*
X31281666Y-60490714D01*
X31329285Y-60585952D01*
X31376904Y-60633571D01*
X31472142Y-60681190D01*
X31853095Y-60681190D01*
X30376904Y-60157380D02*
X30853095Y-60157380D01*
X30900714Y-60633571D01*
X30853095Y-60585952D01*
X30757857Y-60538333D01*
X30519761Y-60538333D01*
X30424523Y-60585952D01*
X30376904Y-60633571D01*
X30329285Y-60728809D01*
X30329285Y-60966904D01*
X30376904Y-61062142D01*
X30424523Y-61109761D01*
X30519761Y-61157380D01*
X30757857Y-61157380D01*
X30853095Y-61109761D01*
X30900714Y-61062142D01*
G04 #@! TO.C,R6*
X42241666Y-52377380D02*
X42575000Y-51901190D01*
X42813095Y-52377380D02*
X42813095Y-51377380D01*
X42432142Y-51377380D01*
X42336904Y-51425000D01*
X42289285Y-51472619D01*
X42241666Y-51567857D01*
X42241666Y-51710714D01*
X42289285Y-51805952D01*
X42336904Y-51853571D01*
X42432142Y-51901190D01*
X42813095Y-51901190D01*
X41384523Y-51377380D02*
X41575000Y-51377380D01*
X41670238Y-51425000D01*
X41717857Y-51472619D01*
X41813095Y-51615476D01*
X41860714Y-51805952D01*
X41860714Y-52186904D01*
X41813095Y-52282142D01*
X41765476Y-52329761D01*
X41670238Y-52377380D01*
X41479761Y-52377380D01*
X41384523Y-52329761D01*
X41336904Y-52282142D01*
X41289285Y-52186904D01*
X41289285Y-51948809D01*
X41336904Y-51853571D01*
X41384523Y-51805952D01*
X41479761Y-51758333D01*
X41670238Y-51758333D01*
X41765476Y-51805952D01*
X41813095Y-51853571D01*
X41860714Y-51948809D01*
G04 #@! TO.C,R10*
X70717857Y-52877380D02*
X71051190Y-52401190D01*
X71289285Y-52877380D02*
X71289285Y-51877380D01*
X70908333Y-51877380D01*
X70813095Y-51925000D01*
X70765476Y-51972619D01*
X70717857Y-52067857D01*
X70717857Y-52210714D01*
X70765476Y-52305952D01*
X70813095Y-52353571D01*
X70908333Y-52401190D01*
X71289285Y-52401190D01*
X69765476Y-52877380D02*
X70336904Y-52877380D01*
X70051190Y-52877380D02*
X70051190Y-51877380D01*
X70146428Y-52020238D01*
X70241666Y-52115476D01*
X70336904Y-52163095D01*
X69146428Y-51877380D02*
X69051190Y-51877380D01*
X68955952Y-51925000D01*
X68908333Y-51972619D01*
X68860714Y-52067857D01*
X68813095Y-52258333D01*
X68813095Y-52496428D01*
X68860714Y-52686904D01*
X68908333Y-52782142D01*
X68955952Y-52829761D01*
X69051190Y-52877380D01*
X69146428Y-52877380D01*
X69241666Y-52829761D01*
X69289285Y-52782142D01*
X69336904Y-52686904D01*
X69384523Y-52496428D01*
X69384523Y-52258333D01*
X69336904Y-52067857D01*
X69289285Y-51972619D01*
X69241666Y-51925000D01*
X69146428Y-51877380D01*
G04 #@! TO.C,U2*
X40766904Y-58417380D02*
X40766904Y-59226904D01*
X40719285Y-59322142D01*
X40671666Y-59369761D01*
X40576428Y-59417380D01*
X40385952Y-59417380D01*
X40290714Y-59369761D01*
X40243095Y-59322142D01*
X40195476Y-59226904D01*
X40195476Y-58417380D01*
X39766904Y-58512619D02*
X39719285Y-58465000D01*
X39624047Y-58417380D01*
X39385952Y-58417380D01*
X39290714Y-58465000D01*
X39243095Y-58512619D01*
X39195476Y-58607857D01*
X39195476Y-58703095D01*
X39243095Y-58845952D01*
X39814523Y-59417380D01*
X39195476Y-59417380D01*
G04 #@! TO.C,USB1*
X38457531Y-53849493D02*
X39029951Y-54421913D01*
X39063623Y-54522928D01*
X39063623Y-54590272D01*
X39029951Y-54691287D01*
X38895264Y-54825974D01*
X38794249Y-54859646D01*
X38726905Y-54859646D01*
X38625890Y-54825974D01*
X38053470Y-54253554D01*
X38423860Y-55230035D02*
X38356516Y-55364722D01*
X38188157Y-55533081D01*
X38087142Y-55566753D01*
X38019799Y-55566753D01*
X37918783Y-55533081D01*
X37851440Y-55465738D01*
X37817768Y-55364722D01*
X37817768Y-55297379D01*
X37851440Y-55196363D01*
X37952455Y-55028005D01*
X37986127Y-54926989D01*
X37986127Y-54859646D01*
X37952455Y-54758631D01*
X37885112Y-54691287D01*
X37784096Y-54657615D01*
X37716753Y-54657615D01*
X37615738Y-54691287D01*
X37447379Y-54859646D01*
X37380035Y-54994333D01*
X37144333Y-55836127D02*
X37076989Y-55970814D01*
X37076989Y-56038157D01*
X37110661Y-56139173D01*
X37211676Y-56240188D01*
X37312692Y-56273860D01*
X37380035Y-56273860D01*
X37481050Y-56240188D01*
X37750425Y-55970814D01*
X37043318Y-55263707D01*
X36807615Y-55499409D01*
X36773944Y-55600425D01*
X36773944Y-55667768D01*
X36807615Y-55768783D01*
X36874959Y-55836127D01*
X36975974Y-55869799D01*
X37043318Y-55869799D01*
X37144333Y-55836127D01*
X37380035Y-55600425D01*
X36672928Y-57048310D02*
X37076989Y-56644249D01*
X36874959Y-56846279D02*
X36167852Y-56139173D01*
X36336211Y-56172844D01*
X36470898Y-56172844D01*
X36571913Y-56139173D01*
G04 #@! TO.C,C8*
X44616666Y-55557142D02*
X44664285Y-55604761D01*
X44807142Y-55652380D01*
X44902380Y-55652380D01*
X45045238Y-55604761D01*
X45140476Y-55509523D01*
X45188095Y-55414285D01*
X45235714Y-55223809D01*
X45235714Y-55080952D01*
X45188095Y-54890476D01*
X45140476Y-54795238D01*
X45045238Y-54700000D01*
X44902380Y-54652380D01*
X44807142Y-54652380D01*
X44664285Y-54700000D01*
X44616666Y-54747619D01*
X44045238Y-55080952D02*
X44140476Y-55033333D01*
X44188095Y-54985714D01*
X44235714Y-54890476D01*
X44235714Y-54842857D01*
X44188095Y-54747619D01*
X44140476Y-54700000D01*
X44045238Y-54652380D01*
X43854761Y-54652380D01*
X43759523Y-54700000D01*
X43711904Y-54747619D01*
X43664285Y-54842857D01*
X43664285Y-54890476D01*
X43711904Y-54985714D01*
X43759523Y-55033333D01*
X43854761Y-55080952D01*
X44045238Y-55080952D01*
X44140476Y-55128571D01*
X44188095Y-55176190D01*
X44235714Y-55271428D01*
X44235714Y-55461904D01*
X44188095Y-55557142D01*
X44140476Y-55604761D01*
X44045238Y-55652380D01*
X43854761Y-55652380D01*
X43759523Y-55604761D01*
X43711904Y-55557142D01*
X43664285Y-55461904D01*
X43664285Y-55271428D01*
X43711904Y-55176190D01*
X43759523Y-55128571D01*
X43854761Y-55080952D01*
G04 #@! TO.C,C10*
X67217857Y-93782142D02*
X67265476Y-93829761D01*
X67408333Y-93877380D01*
X67503571Y-93877380D01*
X67646428Y-93829761D01*
X67741666Y-93734523D01*
X67789285Y-93639285D01*
X67836904Y-93448809D01*
X67836904Y-93305952D01*
X67789285Y-93115476D01*
X67741666Y-93020238D01*
X67646428Y-92925000D01*
X67503571Y-92877380D01*
X67408333Y-92877380D01*
X67265476Y-92925000D01*
X67217857Y-92972619D01*
X66265476Y-93877380D02*
X66836904Y-93877380D01*
X66551190Y-93877380D02*
X66551190Y-92877380D01*
X66646428Y-93020238D01*
X66741666Y-93115476D01*
X66836904Y-93163095D01*
X65646428Y-92877380D02*
X65551190Y-92877380D01*
X65455952Y-92925000D01*
X65408333Y-92972619D01*
X65360714Y-93067857D01*
X65313095Y-93258333D01*
X65313095Y-93496428D01*
X65360714Y-93686904D01*
X65408333Y-93782142D01*
X65455952Y-93829761D01*
X65551190Y-93877380D01*
X65646428Y-93877380D01*
X65741666Y-93829761D01*
X65789285Y-93782142D01*
X65836904Y-93686904D01*
X65884523Y-93496428D01*
X65884523Y-93258333D01*
X65836904Y-93067857D01*
X65789285Y-92972619D01*
X65741666Y-92925000D01*
X65646428Y-92877380D01*
G04 #@! TO.C,C11*
X67217857Y-82282142D02*
X67265476Y-82329761D01*
X67408333Y-82377380D01*
X67503571Y-82377380D01*
X67646428Y-82329761D01*
X67741666Y-82234523D01*
X67789285Y-82139285D01*
X67836904Y-81948809D01*
X67836904Y-81805952D01*
X67789285Y-81615476D01*
X67741666Y-81520238D01*
X67646428Y-81425000D01*
X67503571Y-81377380D01*
X67408333Y-81377380D01*
X67265476Y-81425000D01*
X67217857Y-81472619D01*
X66265476Y-82377380D02*
X66836904Y-82377380D01*
X66551190Y-82377380D02*
X66551190Y-81377380D01*
X66646428Y-81520238D01*
X66741666Y-81615476D01*
X66836904Y-81663095D01*
X65313095Y-82377380D02*
X65884523Y-82377380D01*
X65598809Y-82377380D02*
X65598809Y-81377380D01*
X65694047Y-81520238D01*
X65789285Y-81615476D01*
X65884523Y-81663095D01*
G04 #@! TO.C,D14*
X44289285Y-86377380D02*
X44289285Y-85377380D01*
X44051190Y-85377380D01*
X43908333Y-85425000D01*
X43813095Y-85520238D01*
X43765476Y-85615476D01*
X43717857Y-85805952D01*
X43717857Y-85948809D01*
X43765476Y-86139285D01*
X43813095Y-86234523D01*
X43908333Y-86329761D01*
X44051190Y-86377380D01*
X44289285Y-86377380D01*
X42765476Y-86377380D02*
X43336904Y-86377380D01*
X43051190Y-86377380D02*
X43051190Y-85377380D01*
X43146428Y-85520238D01*
X43241666Y-85615476D01*
X43336904Y-85663095D01*
X41908333Y-85710714D02*
X41908333Y-86377380D01*
X42146428Y-85329761D02*
X42384523Y-86044047D01*
X41765476Y-86044047D01*
G04 #@! TO.C,R9*
X43241666Y-90377380D02*
X43575000Y-89901190D01*
X43813095Y-90377380D02*
X43813095Y-89377380D01*
X43432142Y-89377380D01*
X43336904Y-89425000D01*
X43289285Y-89472619D01*
X43241666Y-89567857D01*
X43241666Y-89710714D01*
X43289285Y-89805952D01*
X43336904Y-89853571D01*
X43432142Y-89901190D01*
X43813095Y-89901190D01*
X42765476Y-90377380D02*
X42575000Y-90377380D01*
X42479761Y-90329761D01*
X42432142Y-90282142D01*
X42336904Y-90139285D01*
X42289285Y-89948809D01*
X42289285Y-89567857D01*
X42336904Y-89472619D01*
X42384523Y-89425000D01*
X42479761Y-89377380D01*
X42670238Y-89377380D01*
X42765476Y-89425000D01*
X42813095Y-89472619D01*
X42860714Y-89567857D01*
X42860714Y-89805952D01*
X42813095Y-89901190D01*
X42765476Y-89948809D01*
X42670238Y-89996428D01*
X42479761Y-89996428D01*
X42384523Y-89948809D01*
X42336904Y-89901190D01*
X42289285Y-89805952D01*
G04 #@! TD*
%LPC*%
D15*
G04 #@! TO.C,S1*
X37075000Y-60825000D03*
X37075000Y-72025000D03*
D16*
X44575000Y-66425000D03*
X44575000Y-63925000D03*
X44575000Y-68925000D03*
D17*
X30075000Y-62425000D03*
X30075000Y-64425000D03*
X30075000Y-66425000D03*
X30075000Y-68425000D03*
D18*
X30075000Y-70425000D03*
G04 #@! TD*
D19*
G04 #@! TO.C,Y1*
X64256900Y-58955100D03*
X64256900Y-56755100D03*
X62556900Y-56755100D03*
X62556900Y-58955100D03*
G04 #@! TD*
D20*
G04 #@! TO.C,C2*
X62656900Y-54680100D03*
X64156900Y-54680100D03*
G04 #@! TD*
G04 #@! TO.C,C1*
X62656900Y-61030100D03*
X64156900Y-61030100D03*
G04 #@! TD*
D21*
G04 #@! TO.C,U1*
X48216064Y-64722918D03*
D22*
G36*
X47208437Y-64387042D02*
X47880188Y-63715291D01*
X49223691Y-65058794D01*
X48551940Y-65730545D01*
X47208437Y-64387042D01*
X47208437Y-64387042D01*
G37*
D21*
X48781750Y-64157233D03*
D22*
G36*
X47774123Y-63821357D02*
X48445874Y-63149606D01*
X49789377Y-64493109D01*
X49117626Y-65164860D01*
X47774123Y-63821357D01*
X47774123Y-63821357D01*
G37*
D21*
X49347435Y-63591548D03*
D22*
G36*
X48339808Y-63255672D02*
X49011559Y-62583921D01*
X50355062Y-63927424D01*
X49683311Y-64599175D01*
X48339808Y-63255672D01*
X48339808Y-63255672D01*
G37*
D21*
X49913120Y-63025862D03*
D22*
G36*
X48905493Y-62689986D02*
X49577244Y-62018235D01*
X50920747Y-63361738D01*
X50248996Y-64033489D01*
X48905493Y-62689986D01*
X48905493Y-62689986D01*
G37*
D21*
X50478806Y-62460177D03*
D22*
G36*
X49471179Y-62124301D02*
X50142930Y-61452550D01*
X51486433Y-62796053D01*
X50814682Y-63467804D01*
X49471179Y-62124301D01*
X49471179Y-62124301D01*
G37*
D21*
X51044491Y-61894491D03*
D22*
G36*
X50036864Y-61558615D02*
X50708615Y-60886864D01*
X52052118Y-62230367D01*
X51380367Y-62902118D01*
X50036864Y-61558615D01*
X50036864Y-61558615D01*
G37*
D21*
X51610177Y-61328806D03*
D22*
G36*
X50602550Y-60992930D02*
X51274301Y-60321179D01*
X52617804Y-61664682D01*
X51946053Y-62336433D01*
X50602550Y-60992930D01*
X50602550Y-60992930D01*
G37*
D21*
X52175862Y-60763120D03*
D22*
G36*
X51168235Y-60427244D02*
X51839986Y-59755493D01*
X53183489Y-61098996D01*
X52511738Y-61770747D01*
X51168235Y-60427244D01*
X51168235Y-60427244D01*
G37*
D21*
X52741548Y-60197435D03*
D22*
G36*
X51733921Y-59861559D02*
X52405672Y-59189808D01*
X53749175Y-60533311D01*
X53077424Y-61205062D01*
X51733921Y-59861559D01*
X51733921Y-59861559D01*
G37*
D21*
X53307233Y-59631750D03*
D22*
G36*
X52299606Y-59295874D02*
X52971357Y-58624123D01*
X54314860Y-59967626D01*
X53643109Y-60639377D01*
X52299606Y-59295874D01*
X52299606Y-59295874D01*
G37*
D21*
X53872918Y-59066064D03*
D22*
G36*
X52865291Y-58730188D02*
X53537042Y-58058437D01*
X54880545Y-59401940D01*
X54208794Y-60073691D01*
X52865291Y-58730188D01*
X52865291Y-58730188D01*
G37*
D21*
X56277082Y-59066064D03*
D22*
G36*
X56612958Y-58058437D02*
X57284709Y-58730188D01*
X55941206Y-60073691D01*
X55269455Y-59401940D01*
X56612958Y-58058437D01*
X56612958Y-58058437D01*
G37*
D21*
X56842767Y-59631750D03*
D22*
G36*
X57178643Y-58624123D02*
X57850394Y-59295874D01*
X56506891Y-60639377D01*
X55835140Y-59967626D01*
X57178643Y-58624123D01*
X57178643Y-58624123D01*
G37*
D21*
X57408452Y-60197435D03*
D22*
G36*
X57744328Y-59189808D02*
X58416079Y-59861559D01*
X57072576Y-61205062D01*
X56400825Y-60533311D01*
X57744328Y-59189808D01*
X57744328Y-59189808D01*
G37*
D21*
X57974138Y-60763120D03*
D22*
G36*
X58310014Y-59755493D02*
X58981765Y-60427244D01*
X57638262Y-61770747D01*
X56966511Y-61098996D01*
X58310014Y-59755493D01*
X58310014Y-59755493D01*
G37*
D21*
X58539823Y-61328806D03*
D22*
G36*
X58875699Y-60321179D02*
X59547450Y-60992930D01*
X58203947Y-62336433D01*
X57532196Y-61664682D01*
X58875699Y-60321179D01*
X58875699Y-60321179D01*
G37*
D21*
X59105509Y-61894491D03*
D22*
G36*
X59441385Y-60886864D02*
X60113136Y-61558615D01*
X58769633Y-62902118D01*
X58097882Y-62230367D01*
X59441385Y-60886864D01*
X59441385Y-60886864D01*
G37*
D21*
X59671194Y-62460177D03*
D22*
G36*
X60007070Y-61452550D02*
X60678821Y-62124301D01*
X59335318Y-63467804D01*
X58663567Y-62796053D01*
X60007070Y-61452550D01*
X60007070Y-61452550D01*
G37*
D21*
X60236880Y-63025862D03*
D22*
G36*
X60572756Y-62018235D02*
X61244507Y-62689986D01*
X59901004Y-64033489D01*
X59229253Y-63361738D01*
X60572756Y-62018235D01*
X60572756Y-62018235D01*
G37*
D21*
X60802565Y-63591548D03*
D22*
G36*
X61138441Y-62583921D02*
X61810192Y-63255672D01*
X60466689Y-64599175D01*
X59794938Y-63927424D01*
X61138441Y-62583921D01*
X61138441Y-62583921D01*
G37*
D21*
X61368250Y-64157233D03*
D22*
G36*
X61704126Y-63149606D02*
X62375877Y-63821357D01*
X61032374Y-65164860D01*
X60360623Y-64493109D01*
X61704126Y-63149606D01*
X61704126Y-63149606D01*
G37*
D21*
X61933936Y-64722918D03*
D22*
G36*
X62269812Y-63715291D02*
X62941563Y-64387042D01*
X61598060Y-65730545D01*
X60926309Y-65058794D01*
X62269812Y-63715291D01*
X62269812Y-63715291D01*
G37*
D21*
X61933936Y-67127082D03*
D22*
G36*
X60926309Y-66791206D02*
X61598060Y-66119455D01*
X62941563Y-67462958D01*
X62269812Y-68134709D01*
X60926309Y-66791206D01*
X60926309Y-66791206D01*
G37*
D21*
X61368250Y-67692767D03*
D22*
G36*
X60360623Y-67356891D02*
X61032374Y-66685140D01*
X62375877Y-68028643D01*
X61704126Y-68700394D01*
X60360623Y-67356891D01*
X60360623Y-67356891D01*
G37*
D21*
X60802565Y-68258452D03*
D22*
G36*
X59794938Y-67922576D02*
X60466689Y-67250825D01*
X61810192Y-68594328D01*
X61138441Y-69266079D01*
X59794938Y-67922576D01*
X59794938Y-67922576D01*
G37*
D21*
X60236880Y-68824138D03*
D22*
G36*
X59229253Y-68488262D02*
X59901004Y-67816511D01*
X61244507Y-69160014D01*
X60572756Y-69831765D01*
X59229253Y-68488262D01*
X59229253Y-68488262D01*
G37*
D21*
X59671194Y-69389823D03*
D22*
G36*
X58663567Y-69053947D02*
X59335318Y-68382196D01*
X60678821Y-69725699D01*
X60007070Y-70397450D01*
X58663567Y-69053947D01*
X58663567Y-69053947D01*
G37*
D21*
X59105509Y-69955509D03*
D22*
G36*
X58097882Y-69619633D02*
X58769633Y-68947882D01*
X60113136Y-70291385D01*
X59441385Y-70963136D01*
X58097882Y-69619633D01*
X58097882Y-69619633D01*
G37*
D21*
X58539823Y-70521194D03*
D22*
G36*
X57532196Y-70185318D02*
X58203947Y-69513567D01*
X59547450Y-70857070D01*
X58875699Y-71528821D01*
X57532196Y-70185318D01*
X57532196Y-70185318D01*
G37*
D21*
X57974138Y-71086880D03*
D22*
G36*
X56966511Y-70751004D02*
X57638262Y-70079253D01*
X58981765Y-71422756D01*
X58310014Y-72094507D01*
X56966511Y-70751004D01*
X56966511Y-70751004D01*
G37*
D21*
X57408452Y-71652565D03*
D22*
G36*
X56400825Y-71316689D02*
X57072576Y-70644938D01*
X58416079Y-71988441D01*
X57744328Y-72660192D01*
X56400825Y-71316689D01*
X56400825Y-71316689D01*
G37*
D21*
X56842767Y-72218250D03*
D22*
G36*
X55835140Y-71882374D02*
X56506891Y-71210623D01*
X57850394Y-72554126D01*
X57178643Y-73225877D01*
X55835140Y-71882374D01*
X55835140Y-71882374D01*
G37*
D21*
X56277082Y-72783936D03*
D22*
G36*
X55269455Y-72448060D02*
X55941206Y-71776309D01*
X57284709Y-73119812D01*
X56612958Y-73791563D01*
X55269455Y-72448060D01*
X55269455Y-72448060D01*
G37*
D21*
X53872918Y-72783936D03*
D22*
G36*
X54208794Y-71776309D02*
X54880545Y-72448060D01*
X53537042Y-73791563D01*
X52865291Y-73119812D01*
X54208794Y-71776309D01*
X54208794Y-71776309D01*
G37*
D21*
X53307233Y-72218250D03*
D22*
G36*
X53643109Y-71210623D02*
X54314860Y-71882374D01*
X52971357Y-73225877D01*
X52299606Y-72554126D01*
X53643109Y-71210623D01*
X53643109Y-71210623D01*
G37*
D21*
X52741548Y-71652565D03*
D22*
G36*
X53077424Y-70644938D02*
X53749175Y-71316689D01*
X52405672Y-72660192D01*
X51733921Y-71988441D01*
X53077424Y-70644938D01*
X53077424Y-70644938D01*
G37*
D21*
X52175862Y-71086880D03*
D22*
G36*
X52511738Y-70079253D02*
X53183489Y-70751004D01*
X51839986Y-72094507D01*
X51168235Y-71422756D01*
X52511738Y-70079253D01*
X52511738Y-70079253D01*
G37*
D21*
X51610177Y-70521194D03*
D22*
G36*
X51946053Y-69513567D02*
X52617804Y-70185318D01*
X51274301Y-71528821D01*
X50602550Y-70857070D01*
X51946053Y-69513567D01*
X51946053Y-69513567D01*
G37*
D21*
X51044491Y-69955509D03*
D22*
G36*
X51380367Y-68947882D02*
X52052118Y-69619633D01*
X50708615Y-70963136D01*
X50036864Y-70291385D01*
X51380367Y-68947882D01*
X51380367Y-68947882D01*
G37*
D21*
X50478806Y-69389823D03*
D22*
G36*
X50814682Y-68382196D02*
X51486433Y-69053947D01*
X50142930Y-70397450D01*
X49471179Y-69725699D01*
X50814682Y-68382196D01*
X50814682Y-68382196D01*
G37*
D21*
X49913120Y-68824138D03*
D22*
G36*
X50248996Y-67816511D02*
X50920747Y-68488262D01*
X49577244Y-69831765D01*
X48905493Y-69160014D01*
X50248996Y-67816511D01*
X50248996Y-67816511D01*
G37*
D21*
X49347435Y-68258452D03*
D22*
G36*
X49683311Y-67250825D02*
X50355062Y-67922576D01*
X49011559Y-69266079D01*
X48339808Y-68594328D01*
X49683311Y-67250825D01*
X49683311Y-67250825D01*
G37*
D21*
X48781750Y-67692767D03*
D22*
G36*
X49117626Y-66685140D02*
X49789377Y-67356891D01*
X48445874Y-68700394D01*
X47774123Y-68028643D01*
X49117626Y-66685140D01*
X49117626Y-66685140D01*
G37*
D21*
X48216064Y-67127082D03*
D22*
G36*
X48551940Y-66119455D02*
X49223691Y-66791206D01*
X47880188Y-68134709D01*
X47208437Y-67462958D01*
X48551940Y-66119455D01*
X48551940Y-66119455D01*
G37*
D23*
X57461485Y-65925000D03*
D22*
G36*
X56383147Y-65925000D02*
X57461485Y-64846662D01*
X58539823Y-65925000D01*
X57461485Y-67003338D01*
X56383147Y-65925000D01*
X56383147Y-65925000D01*
G37*
D23*
X56665990Y-66720495D03*
D22*
G36*
X55587652Y-66720495D02*
X56665990Y-65642157D01*
X57744328Y-66720495D01*
X56665990Y-67798833D01*
X55587652Y-66720495D01*
X55587652Y-66720495D01*
G37*
D23*
X55870495Y-67515990D03*
D22*
G36*
X54792157Y-67515990D02*
X55870495Y-66437652D01*
X56948833Y-67515990D01*
X55870495Y-68594328D01*
X54792157Y-67515990D01*
X54792157Y-67515990D01*
G37*
D23*
X55075000Y-68311485D03*
D22*
G36*
X53996662Y-68311485D02*
X55075000Y-67233147D01*
X56153338Y-68311485D01*
X55075000Y-69389823D01*
X53996662Y-68311485D01*
X53996662Y-68311485D01*
G37*
D23*
X56665990Y-65129505D03*
D22*
G36*
X55587652Y-65129505D02*
X56665990Y-64051167D01*
X57744328Y-65129505D01*
X56665990Y-66207843D01*
X55587652Y-65129505D01*
X55587652Y-65129505D01*
G37*
D23*
X55870495Y-65925000D03*
D22*
G36*
X54792157Y-65925000D02*
X55870495Y-64846662D01*
X56948833Y-65925000D01*
X55870495Y-67003338D01*
X54792157Y-65925000D01*
X54792157Y-65925000D01*
G37*
D23*
X55075000Y-66720495D03*
D22*
G36*
X53996662Y-66720495D02*
X55075000Y-65642157D01*
X56153338Y-66720495D01*
X55075000Y-67798833D01*
X53996662Y-66720495D01*
X53996662Y-66720495D01*
G37*
D23*
X54279505Y-67515990D03*
D22*
G36*
X53201167Y-67515990D02*
X54279505Y-66437652D01*
X55357843Y-67515990D01*
X54279505Y-68594328D01*
X53201167Y-67515990D01*
X53201167Y-67515990D01*
G37*
D23*
X55870495Y-64334010D03*
D22*
G36*
X54792157Y-64334010D02*
X55870495Y-63255672D01*
X56948833Y-64334010D01*
X55870495Y-65412348D01*
X54792157Y-64334010D01*
X54792157Y-64334010D01*
G37*
D23*
X55075000Y-65129505D03*
D22*
G36*
X53996662Y-65129505D02*
X55075000Y-64051167D01*
X56153338Y-65129505D01*
X55075000Y-66207843D01*
X53996662Y-65129505D01*
X53996662Y-65129505D01*
G37*
D23*
X54279505Y-65925000D03*
D22*
G36*
X53201167Y-65925000D02*
X54279505Y-64846662D01*
X55357843Y-65925000D01*
X54279505Y-67003338D01*
X53201167Y-65925000D01*
X53201167Y-65925000D01*
G37*
D23*
X53484010Y-66720495D03*
D22*
G36*
X52405672Y-66720495D02*
X53484010Y-65642157D01*
X54562348Y-66720495D01*
X53484010Y-67798833D01*
X52405672Y-66720495D01*
X52405672Y-66720495D01*
G37*
D23*
X55075000Y-63538515D03*
D22*
G36*
X53996662Y-63538515D02*
X55075000Y-62460177D01*
X56153338Y-63538515D01*
X55075000Y-64616853D01*
X53996662Y-63538515D01*
X53996662Y-63538515D01*
G37*
D23*
X54279505Y-64334010D03*
D22*
G36*
X53201167Y-64334010D02*
X54279505Y-63255672D01*
X55357843Y-64334010D01*
X54279505Y-65412348D01*
X53201167Y-64334010D01*
X53201167Y-64334010D01*
G37*
D23*
X53484010Y-65129505D03*
D22*
G36*
X52405672Y-65129505D02*
X53484010Y-64051167D01*
X54562348Y-65129505D01*
X53484010Y-66207843D01*
X52405672Y-65129505D01*
X52405672Y-65129505D01*
G37*
D23*
X52688515Y-65925000D03*
D22*
G36*
X51610177Y-65925000D02*
X52688515Y-64846662D01*
X53766853Y-65925000D01*
X52688515Y-67003338D01*
X51610177Y-65925000D01*
X51610177Y-65925000D01*
G37*
G04 #@! TD*
D24*
G04 #@! TO.C,C5*
X63075000Y-70675000D03*
X63075000Y-72175000D03*
G04 #@! TD*
D25*
G04 #@! TO.C,U3*
X78520000Y-84780000D03*
X77870000Y-84780000D03*
X77220000Y-84780000D03*
X76570000Y-84780000D03*
X75920000Y-84780000D03*
X75270000Y-84780000D03*
X74620000Y-84780000D03*
X73970000Y-84780000D03*
X73320000Y-84780000D03*
X72670000Y-84780000D03*
X72020000Y-84780000D03*
X71370000Y-84780000D03*
X70720000Y-84780000D03*
X70070000Y-84780000D03*
X70070000Y-77780000D03*
X70720000Y-77780000D03*
X71370000Y-77780000D03*
X72020000Y-77780000D03*
X72670000Y-77780000D03*
X73320000Y-77780000D03*
X73970000Y-77780000D03*
X74620000Y-77780000D03*
X75270000Y-77780000D03*
X75920000Y-77780000D03*
X76570000Y-77780000D03*
X77220000Y-77780000D03*
X77870000Y-77780000D03*
X78520000Y-77780000D03*
G04 #@! TD*
D20*
G04 #@! TO.C,C9*
X65825000Y-76925000D03*
X67325000Y-76925000D03*
G04 #@! TD*
D26*
G04 #@! TO.C,R7*
X67525000Y-83925000D03*
X65625000Y-83925000D03*
G04 #@! TD*
G04 #@! TO.C,R8*
X65625000Y-87925000D03*
X67525000Y-87925000D03*
G04 #@! TD*
D27*
G04 #@! TO.C,D3*
X39551500Y-98200000D03*
X34598500Y-99650000D03*
X39551500Y-99650000D03*
X34598500Y-98200000D03*
G04 #@! TD*
G04 #@! TO.C,D4*
X57551500Y-98200000D03*
X52598500Y-99650000D03*
X57551500Y-99650000D03*
X52598500Y-98200000D03*
G04 #@! TD*
G04 #@! TO.C,D2*
X75551500Y-98200000D03*
X70598500Y-99650000D03*
X75551500Y-99650000D03*
X70598500Y-98200000D03*
G04 #@! TD*
G04 #@! TO.C,D12*
X39551500Y-115200000D03*
X34598500Y-116650000D03*
X39551500Y-116650000D03*
X34598500Y-115200000D03*
G04 #@! TD*
G04 #@! TO.C,D13*
X57551500Y-115200000D03*
X52598500Y-116650000D03*
X57551500Y-116650000D03*
X52598500Y-115200000D03*
G04 #@! TD*
G04 #@! TO.C,D11*
X75551500Y-115200000D03*
X70598500Y-116650000D03*
X75551500Y-116650000D03*
X70598500Y-115200000D03*
G04 #@! TD*
G04 #@! TO.C,D19*
X39551500Y-132200000D03*
X34598500Y-133650000D03*
X39551500Y-133650000D03*
X34598500Y-132200000D03*
G04 #@! TD*
G04 #@! TO.C,D20*
X57551500Y-132238000D03*
X52598500Y-133688000D03*
X57551500Y-133688000D03*
X52598500Y-132238000D03*
G04 #@! TD*
G04 #@! TO.C,D18*
X75551500Y-132200000D03*
X70598500Y-133650000D03*
X75551500Y-133650000D03*
X70598500Y-132200000D03*
G04 #@! TD*
D28*
G04 #@! TO.C,SW1*
X37075000Y-103425000D03*
D29*
X32075000Y-107225000D03*
X37075000Y-109325000D03*
D30*
X42295000Y-99225000D03*
D31*
X42575000Y-103425000D03*
X31575000Y-103425000D03*
G04 #@! TD*
D28*
G04 #@! TO.C,SW2*
X55075000Y-103425000D03*
D29*
X50075000Y-107225000D03*
X55075000Y-109325000D03*
D30*
X60295000Y-99225000D03*
D31*
X60575000Y-103425000D03*
X49575000Y-103425000D03*
G04 #@! TD*
D28*
G04 #@! TO.C,SW3*
X73075000Y-103425000D03*
D29*
X68075000Y-107225000D03*
X73075000Y-109325000D03*
D30*
X78295000Y-99225000D03*
D31*
X78575000Y-103425000D03*
X67575000Y-103425000D03*
G04 #@! TD*
D28*
G04 #@! TO.C,SW4*
X37075000Y-120425000D03*
D29*
X32075000Y-124225000D03*
X37075000Y-126325000D03*
D30*
X42295000Y-116225000D03*
D31*
X42575000Y-120425000D03*
X31575000Y-120425000D03*
G04 #@! TD*
D28*
G04 #@! TO.C,SW5*
X55075000Y-120425000D03*
D29*
X50075000Y-124225000D03*
X55075000Y-126325000D03*
D30*
X60295000Y-116225000D03*
D31*
X60575000Y-120425000D03*
X49575000Y-120425000D03*
G04 #@! TD*
D28*
G04 #@! TO.C,SW6*
X73075000Y-120425000D03*
D29*
X68075000Y-124225000D03*
X73075000Y-126325000D03*
D30*
X78295000Y-116225000D03*
D31*
X78575000Y-120425000D03*
X67575000Y-120425000D03*
G04 #@! TD*
D28*
G04 #@! TO.C,SW7*
X37075000Y-137425000D03*
D29*
X32075000Y-141225000D03*
X37075000Y-143325000D03*
D30*
X42295000Y-133225000D03*
D31*
X42575000Y-137425000D03*
X31575000Y-137425000D03*
G04 #@! TD*
D28*
G04 #@! TO.C,SW8*
X55075000Y-137425000D03*
D29*
X50075000Y-141225000D03*
X55075000Y-143325000D03*
D30*
X60295000Y-133225000D03*
D31*
X60575000Y-137425000D03*
X49575000Y-137425000D03*
G04 #@! TD*
D28*
G04 #@! TO.C,SW9*
X73075000Y-137425000D03*
D29*
X68075000Y-141225000D03*
X73075000Y-143325000D03*
D30*
X78295000Y-133225000D03*
D31*
X78575000Y-137425000D03*
X67575000Y-137425000D03*
G04 #@! TD*
D20*
G04 #@! TO.C,C3*
X48825000Y-56425000D03*
X50325000Y-56425000D03*
G04 #@! TD*
G04 #@! TO.C,C4*
X59825000Y-56425000D03*
X58325000Y-56425000D03*
G04 #@! TD*
G04 #@! TO.C,C6*
X51825000Y-74925000D03*
X50325000Y-74925000D03*
G04 #@! TD*
D24*
G04 #@! TO.C,C7*
X47075000Y-71175000D03*
X47075000Y-72675000D03*
G04 #@! TD*
D32*
G04 #@! TO.C,D1*
X56115000Y-50925000D03*
D33*
X53575000Y-50925000D03*
G04 #@! TD*
D34*
G04 #@! TO.C,D5*
X43180000Y-106300000D03*
X43180000Y-109600000D03*
G04 #@! TD*
G04 #@! TO.C,D6*
X60960000Y-106300000D03*
X60960000Y-109600000D03*
G04 #@! TD*
G04 #@! TO.C,D7*
X79375000Y-110235000D03*
X79375000Y-106935000D03*
G04 #@! TD*
G04 #@! TO.C,D8*
X43180000Y-123445000D03*
X43180000Y-126745000D03*
G04 #@! TD*
G04 #@! TO.C,D9*
X60960000Y-126745000D03*
X60960000Y-123445000D03*
G04 #@! TD*
G04 #@! TO.C,D10*
X78740000Y-123445000D03*
X78740000Y-126745000D03*
G04 #@! TD*
G04 #@! TO.C,D15*
X43180000Y-143890000D03*
X43180000Y-140590000D03*
G04 #@! TD*
G04 #@! TO.C,D16*
X60960000Y-140590000D03*
X60960000Y-143890000D03*
G04 #@! TD*
G04 #@! TO.C,D17*
X79375000Y-143890000D03*
X79375000Y-140590000D03*
G04 #@! TD*
D35*
G04 #@! TO.C,F1*
X45085000Y-51365000D03*
X45085000Y-48965000D03*
G04 #@! TD*
D26*
G04 #@! TO.C,R1*
X50795000Y-50800000D03*
X48895000Y-50800000D03*
G04 #@! TD*
G04 #@! TO.C,R2*
X47525000Y-61425000D03*
X45625000Y-61425000D03*
G04 #@! TD*
G04 #@! TO.C,R3*
X45625000Y-58925000D03*
X47525000Y-58925000D03*
G04 #@! TD*
G04 #@! TO.C,R4*
X58625000Y-74925000D03*
X60525000Y-74925000D03*
G04 #@! TD*
G04 #@! TO.C,R5*
X30165000Y-59055000D03*
X32065000Y-59055000D03*
G04 #@! TD*
D36*
G04 #@! TO.C,R6*
X41910000Y-48580000D03*
X41910000Y-50480000D03*
G04 #@! TD*
G04 #@! TO.C,R10*
X69850000Y-50480000D03*
X69850000Y-48580000D03*
G04 #@! TD*
D18*
G04 #@! TO.C,S2*
X59075000Y-92425000D03*
D17*
X57075000Y-92425000D03*
X55075000Y-92425000D03*
X53075000Y-92425000D03*
X51075000Y-92425000D03*
D16*
X57575000Y-77925000D03*
X52575000Y-77925000D03*
X55075000Y-77925000D03*
D15*
X60675000Y-85425000D03*
X49475000Y-85425000D03*
G04 #@! TD*
D18*
G04 #@! TO.C,S3*
X80075000Y-62425000D03*
D17*
X80075000Y-64425000D03*
X80075000Y-66425000D03*
X80075000Y-68425000D03*
X80075000Y-70425000D03*
D16*
X65575000Y-63925000D03*
X65575000Y-68925000D03*
X65575000Y-66425000D03*
D15*
X73075000Y-60825000D03*
X73075000Y-72025000D03*
G04 #@! TD*
D37*
G04 #@! TO.C,U2*
X39055000Y-55515000D03*
X39055000Y-57515000D03*
X40955000Y-55515000D03*
D38*
X40755000Y-57515000D03*
G04 #@! TD*
D39*
G04 #@! TO.C,USB1*
X35968179Y-47708776D03*
D40*
X35756047Y-47496644D02*
X36180311Y-47920908D01*
D39*
X29858776Y-53818179D03*
D40*
X29646644Y-53606047D02*
X30070908Y-54030311D01*
D39*
X38923885Y-50664483D03*
D40*
X38534976Y-50275574D02*
X39312794Y-51053392D01*
D39*
X32814483Y-56773885D03*
D40*
X32425574Y-56384976D02*
X33203392Y-57162794D01*
D41*
X33450879Y-55387956D03*
X37537956Y-51300879D03*
D42*
X36339410Y-54542963D03*
D22*
G36*
X36745996Y-55444524D02*
X35437849Y-54136377D01*
X35932824Y-53641402D01*
X37240971Y-54949549D01*
X36745996Y-55444524D01*
X36745996Y-55444524D01*
G37*
D42*
X36692963Y-54189410D03*
D22*
G36*
X37099549Y-55090971D02*
X35791402Y-53782824D01*
X36286377Y-53287849D01*
X37594524Y-54595996D01*
X37099549Y-55090971D01*
X37099549Y-55090971D01*
G37*
D42*
X37046517Y-53835857D03*
D22*
G36*
X37453103Y-54737418D02*
X36144956Y-53429271D01*
X36639931Y-52934296D01*
X37948078Y-54242443D01*
X37453103Y-54737418D01*
X37453103Y-54737418D01*
G37*
D42*
X35985857Y-54896517D03*
D22*
G36*
X36392443Y-55798078D02*
X35084296Y-54489931D01*
X35579271Y-53994956D01*
X36887418Y-55303103D01*
X36392443Y-55798078D01*
X36392443Y-55798078D01*
G37*
D42*
X37400070Y-53482303D03*
D22*
G36*
X37806656Y-54383864D02*
X36498509Y-53075717D01*
X36993484Y-52580742D01*
X38301631Y-53888889D01*
X37806656Y-54383864D01*
X37806656Y-54383864D01*
G37*
D42*
X35632303Y-55250070D03*
D22*
G36*
X36038889Y-56151631D02*
X34730742Y-54843484D01*
X35225717Y-54348509D01*
X36533864Y-55656656D01*
X36038889Y-56151631D01*
X36038889Y-56151631D01*
G37*
D42*
X37753624Y-53128750D03*
D22*
G36*
X38160210Y-54030311D02*
X36852063Y-52722164D01*
X37347038Y-52227189D01*
X38655185Y-53535336D01*
X38160210Y-54030311D01*
X38160210Y-54030311D01*
G37*
D42*
X35278750Y-55603624D03*
D22*
G36*
X35685336Y-56505185D02*
X34377189Y-55197038D01*
X34872164Y-54702063D01*
X36180311Y-56010210D01*
X35685336Y-56505185D01*
X35685336Y-56505185D01*
G37*
D43*
X34783775Y-56098598D03*
D22*
G36*
X35084295Y-57106225D02*
X33776148Y-55798078D01*
X34483255Y-55090971D01*
X35791402Y-56399118D01*
X35084295Y-57106225D01*
X35084295Y-57106225D01*
G37*
D43*
X38248598Y-52633775D03*
D22*
G36*
X38549118Y-53641402D02*
X37240971Y-52333255D01*
X37948078Y-51626148D01*
X39256225Y-52934295D01*
X38549118Y-53641402D01*
X38549118Y-53641402D01*
G37*
D43*
X34235767Y-56646606D03*
D22*
G36*
X34536287Y-57654233D02*
X33228140Y-56346086D01*
X33935247Y-55638979D01*
X35243394Y-56947126D01*
X34536287Y-57654233D01*
X34536287Y-57654233D01*
G37*
D43*
X38796606Y-52085767D03*
D22*
G36*
X39097126Y-53093394D02*
X37788979Y-51785247D01*
X38496086Y-51078140D01*
X39804233Y-52386287D01*
X39097126Y-53093394D01*
X39097126Y-53093394D01*
G37*
G04 #@! TD*
D44*
G04 #@! TO.C,J1*
X39740000Y-92525000D03*
X38240000Y-88325000D03*
X34240000Y-88325000D03*
X31240000Y-88325000D03*
D45*
X36440000Y-90425000D03*
X29440000Y-90425000D03*
G04 #@! TD*
G04 #@! TO.C,J2*
X80575000Y-90425000D03*
X73575000Y-90425000D03*
D44*
X78775000Y-92525000D03*
X75775000Y-92525000D03*
X71775000Y-92525000D03*
X70275000Y-88325000D03*
G04 #@! TD*
D46*
G04 #@! TO.C,SW10*
X72825000Y-47925000D03*
X79325000Y-47925000D03*
G04 #@! TD*
D20*
G04 #@! TO.C,C8*
X43700000Y-56425000D03*
X45200000Y-56425000D03*
G04 #@! TD*
G04 #@! TO.C,C10*
X67325000Y-91925000D03*
X65825000Y-91925000D03*
G04 #@! TD*
G04 #@! TO.C,C11*
X67325000Y-80425000D03*
X65825000Y-80425000D03*
G04 #@! TD*
D47*
G04 #@! TO.C,D14*
X44725000Y-83925000D03*
X41425000Y-83925000D03*
G04 #@! TD*
D26*
G04 #@! TO.C,R9*
X42125000Y-87925000D03*
X44025000Y-87925000D03*
G04 #@! TD*
M02*
