M48
;DRILL file {KiCad 5.0.2-bee76a0~70~ubuntu18.04.1} date 2019年12月20日 02時10分32秒
;FORMAT={-:-/ absolute / inch / decimal}
FMAT,2
INCH,TZ
T1C0.0157
T2C0.0236
T3C0.0354
T4C0.0394
T5C0.0472
T6C0.0500
T7C0.0512
T8C0.1197
T9C0.0256
T10C0.0390
T11C0.0472
T12C0.0670
T13C0.1350
%
G90
G05
T1
X1.2037Y-5.6663
X1.2234Y-3.9144
X1.2431Y-5.0561
X1.2628Y-4.3868
X1.2768Y-5.2086
X1.3415Y-2.5758
X1.3612Y-4.0128
X1.3612Y-4.6821
X1.3822Y-5.0847
X1.4203Y-4.8396
X1.5581Y-4.0128
X1.5974Y-4.2687
X1.7191Y-3.4088
X1.7352Y-3.8356
X1.7549Y-4.6033
X1.8005Y-3.132
X1.814Y-5.2333
X1.814Y-5.5089
X1.8314Y-4.9948
X1.8513Y-4.299
X1.8577Y-4.5054
X1.8927Y-3.0482
X1.8927Y-3.6781
X1.9321Y-3.56
X1.9321Y-4.6033
X1.9346Y-4.4666
X1.963Y-2.6131
X1.9966Y-2.6705
X2.0422Y-4.4965
X2.0493Y-2.5223
X2.0568Y-5.09
X2.0568Y-5.1569
X2.0913Y-2.4574
X2.1139Y-2.7486
X2.1141Y-2.7877
X2.1683Y-2.5955
X2.2077Y-2.2608
X2.2387Y-3.8009
X2.2523Y-4.6513
X2.2523Y-5.0198
X2.2634Y-3.8281
X2.2806Y-5.1569
X2.3258Y-4.4459
X2.33Y-3.151
X2.331Y-2.0906
X2.3476Y-2.6629
X2.359Y-2.1743
X2.4121Y-2.7965
X2.4223Y-2.4541
X2.4242Y-3.5994
X2.4632Y-2.6097
X2.4636Y-3.7569
X2.4671Y-3.0023
X2.4833Y-4.1112
X2.4865Y-3.0956
X2.5061Y-3.0543
X2.5226Y-5.5089
X2.5423Y-4.9183
X2.5537Y-4.1712
X2.562Y-4.5837
X2.562Y-5.1742
X2.5789Y-3.5598
X2.6407Y-1.8671
X2.6412Y-3.7185
X2.6413Y-2.5659
X2.6552Y-3.3501
X2.6572Y-3.257
X2.6819Y-3.5258
X2.6862Y-2.8266
X2.6862Y-3.0269
X2.7173Y-3.1941
X2.7392Y-2.7726
X2.7545Y-3.6183
X2.7785Y-3.7175
X2.7834Y-3.1211
X2.7975Y-3.8031
X2.7982Y-3.2648
X2.815Y-3.152
X2.8179Y-2.6545
X2.8346Y-3.3979
X2.8382Y-3.0032
X2.8435Y-3.1261
X2.854Y-3.5056
X2.8572Y-4.44
X2.8893Y-3.008
X2.9354Y-3.4801
X2.9539Y-3.7639
X2.9589Y-4.4312
X2.9682Y-3.144
X2.9754Y-4.938
X2.9801Y-3.3914
X2.9951Y-5.0955
X2.9951Y-5.4104
X2.9951Y-5.627
X3.0148Y-4.7018
X3.023Y-3.1187
X3.0252Y-3.1516
X3.0344Y-4.0128
X3.0523Y-3.4116
X3.0541Y-3.7766
X3.0541Y-4.2687
X3.0541Y-4.4852
X3.1132Y-3.9734
X3.1204Y-3.3438
X3.1329Y-3.2254
X3.1636Y-4.7941
X3.1722Y-3.4616
T3
X2.1093Y-2.0049
X2.2093Y-2.0049
T5
X1.1841Y-2.4577
X1.1841Y-2.5364
X1.1841Y-2.6152
X1.1841Y-2.6939
X1.1841Y-2.7726
X3.1526Y-2.4577
X3.1526Y-2.5364
X3.1526Y-2.6152
X3.1526Y-2.6939
X3.1526Y-2.7726
X2.0108Y-3.6388
X2.0896Y-3.6388
X2.1683Y-3.6388
X2.247Y-3.6388
X2.3258Y-3.6388
T6
X1.9715Y-4.2215
X2.1683Y-4.3041
X1.9715Y-5.56
X2.1683Y-5.6427
X2.6801Y-4.2215
X2.877Y-4.3041
X2.6801Y-4.8907
X2.877Y-4.9734
X1.2628Y-5.56
X1.4596Y-5.6427
X2.6801Y-5.56
X2.877Y-5.6427
X1.2628Y-4.8907
X1.4596Y-4.9734
X1.9715Y-4.8907
X2.1683Y-4.9734
X1.2628Y-4.2215
X1.4596Y-4.3041
T7
X2.5817Y-2.5167
X2.5817Y-2.6152
X2.5817Y-2.7136
X2.0699Y-3.0679
X2.1683Y-3.0679
X2.2667Y-3.0679
X2.8671Y-1.8868
X3.123Y-1.8868
X1.7549Y-2.5167
X1.7549Y-2.6152
X1.7549Y-2.7136
T8
X1.4596Y-2.3947
X1.4596Y-2.8356
X2.877Y-2.3947
X2.877Y-2.8356
X1.9478Y-3.3632
X2.3888Y-3.3632
T9
X1.317Y-2.1806
X1.4779Y-2.0197
T10
X1.6652Y-3.9065
X2.3738Y-3.9065
X2.3738Y-5.2451
X3.0825Y-3.9065
X3.0825Y-4.5758
X1.6652Y-5.2451
X3.0825Y-5.2451
X1.6652Y-4.5758
X2.3738Y-4.5758
T11
X1.1591Y-3.56
X1.4346Y-3.56
X2.8967Y-3.56
X3.1722Y-3.56
T12
X1.9518Y-5.4104
X2.3848Y-5.4104
X2.6604Y-4.0719
X3.0935Y-4.0719
X2.6604Y-4.7411
X3.0935Y-4.7411
X1.2431Y-5.4104
X1.6762Y-5.4104
X2.6604Y-5.4104
X3.0935Y-5.4104
X1.2431Y-4.7411
X1.6762Y-4.7411
X1.9518Y-4.7411
X2.3848Y-4.7411
X1.2431Y-4.0719
X1.6762Y-4.0719
X1.9518Y-4.0719
X2.3848Y-4.0719
T13
X1.4596Y-5.4104
X1.4596Y-4.0719
X2.1683Y-5.4104
X2.877Y-4.7411
X2.877Y-5.4104
X1.4596Y-4.7411
X2.1683Y-4.7411
X2.1683Y-4.0719
X2.877Y-4.0719
T2
X1.1672Y-2.1105G85X1.1839Y-2.1272
G05
X1.2766Y-2.2199G85X1.3072Y-2.2505
G05
X1.4077Y-1.8699G85X1.4244Y-1.8866
G05
X1.5171Y-1.9794G85X1.5477Y-2.01
G05
T4
X1.2201Y-3.4774G85X1.2398Y-3.4774
G05
X1.3382Y-3.4774G85X1.3579Y-3.4774
G05
X1.4957Y-3.4774G85X1.5154Y-3.4774
G05
X1.5547Y-3.6427G85X1.5744Y-3.6427
G05
X2.7766Y-3.4774G85X2.7569Y-3.4774
G05
X2.8356Y-3.6427G85X2.8159Y-3.6427
G05
X2.9931Y-3.6427G85X2.9734Y-3.6427
G05
X3.1112Y-3.6427G85X3.0915Y-3.6427
G05
T0
M30
